<?xml version="1.0" encoding="us-ascii" standalone="no"?><svg xmlns="http://www.w3.org/2000/svg" xmlns:xlink="http://www.w3.org/1999/xlink" contentStyleType="text/css" height="723px" preserveAspectRatio="none" style="width:1392px;height:723px;background:#FFFFFF;" version="1.1" viewBox="0 0 1392 723" width="1392px" zoomAndPan="magnify"><defs/><g><text fill="#000000" font-family="sans-serif" font-size="14" font-weight="bold" lengthAdjust="spacing" textLength="322" x="528" y="24.5332">UUPS-VendingMachine V2 - Use Case Diagram</text><text fill="#000000" font-family="sans-serif" font-size="14" font-weight="bold" lengthAdjust="spacing" textLength="205" x="586.5" y="42.1426">Owner System Administration</text><!--cluster Owner System Controls--><g id="cluster_Owner System Controls"><rect fill="none" height="270.5" rx="3.5" ry="3.5" style="stroke:#393939;stroke-width:1.0;" width="951" x="213.5" y="250.2188"/><text fill="#000000" font-family="sans-serif" font-size="14" font-weight="bold" lengthAdjust="spacing" textLength="164" x="607" y="266.752">Owner System Controls</text></g><!--cluster External--><g id="cluster_External"><rect fill="none" height="108" rx="3.5" ry="3.5" style="stroke:#393939;stroke-width:1.0;" width="565" x="151.5" y="598.7188"/><text fill="#000000" font-family="sans-serif" font-size="14" font-weight="bold" lengthAdjust="spacing" textLength="58" x="405" y="615.252">External</text></g><g id="elem_UC1"><ellipse cx="444.5408" cy="305.9269" fill="#F1F1F1" rx="86.5408" ry="19.7082" style="stroke:#181818;stroke-width:0.5;"/><text fill="#000000" font-family="sans-serif" font-size="14" lengthAdjust="spacing" textLength="130" x="379.5408" y="309.6554">Access Owner Panel</text></g><g id="elem_UC2"><ellipse cx="634.533" cy="476.6286" fill="#F1F1F1" rx="93.533" ry="27.9098" style="stroke:#181818;stroke-width:0.5;"/><text fill="#000000" font-family="sans-serif" font-size="14" lengthAdjust="spacing" textLength="116" x="575.0809" y="471.9519">Withdraw Contract</text><text fill="#000000" font-family="sans-serif" font-size="14" lengthAdjust="spacing" textLength="40" x="613.0809" y="489.5613">Funds</text></g><g id="elem_UC3"><ellipse cx="1067.2817" cy="476.6222" fill="#F1F1F1" rx="80.7817" ry="27.9034" style="stroke:#181818;stroke-width:0.5;"/><text fill="#000000" font-family="sans-serif" font-size="14" lengthAdjust="spacing" textLength="98" x="1018.2817" y="471.546">Check Contract</text><text fill="#000000" font-family="sans-serif" font-size="14" lengthAdjust="spacing" textLength="51" x="1041.7817" y="489.1554">Balance</text></g><g id="elem_UC4"><ellipse cx="288.3614" cy="476.6222" fill="#F1F1F1" rx="58.8614" ry="27.9034" style="stroke:#181818;stroke-width:0.5;"/><text fill="#000000" font-family="sans-serif" font-size="14" lengthAdjust="spacing" textLength="54" x="261.3614" y="471.546">Transfer</text><text fill="#000000" font-family="sans-serif" font-size="14" lengthAdjust="spacing" textLength="67" x="254.8614" y="489.1554">Ownership</text></g><g id="elem_UC5"><ellipse cx="857.7485" cy="476.6308" fill="#F1F1F1" rx="94.2485" ry="27.9121" style="stroke:#181818;stroke-width:0.5;"/><text fill="#000000" font-family="sans-serif" font-size="14" lengthAdjust="spacing" textLength="117" x="797.5465" y="472.0194">Authorize Contract</text><text fill="#000000" font-family="sans-serif" font-size="14" lengthAdjust="spacing" textLength="61" x="825.5465" y="489.6287">Upgrades</text></g><g id="elem_UC6"><ellipse cx="444.6899" cy="476.6222" fill="#F1F1F1" rx="61.6899" ry="27.9034" style="stroke:#181818;stroke-width:0.5;"/><text fill="#000000" font-family="sans-serif" font-size="14" lengthAdjust="spacing" textLength="71" x="409.1899" y="471.546">Emergency</text><text fill="#000000" font-family="sans-serif" font-size="14" lengthAdjust="spacing" textLength="70" x="409.6899" y="489.1554">Operations</text></g><g id="elem_EXT1"><ellipse cx="622.4533" cy="662.6222" fill="#F1F1F1" rx="77.9533" ry="27.9034" style="stroke:#181818;stroke-width:0.5;"/><text fill="#000000" font-family="sans-serif" font-size="14" lengthAdjust="spacing" textLength="94" x="575.4533" y="657.546">UUPS Upgrade</text><text fill="#000000" font-family="sans-serif" font-size="14" lengthAdjust="spacing" textLength="71" x="586.9533" y="675.1554">Mechanism</text></g><g id="elem_EXT2"><ellipse cx="444.5183" cy="662.6222" fill="#F1F1F1" rx="64.5183" ry="27.9034" style="stroke:#181818;stroke-width:0.5;"/><text fill="#000000" font-family="sans-serif" font-size="14" lengthAdjust="spacing" textLength="61" x="414.0183" y="657.546">Ethereum</text><text fill="#000000" font-family="sans-serif" font-size="14" lengthAdjust="spacing" textLength="75" x="407.0183" y="675.1554">Transaction</text></g><g id="elem_EXT3"><ellipse cx="256.5599" cy="662.6222" fill="#F1F1F1" rx="88.5599" ry="27.9034" style="stroke:#181818;stroke-width:0.5;"/><text fill="#000000" font-family="sans-serif" font-size="14" lengthAdjust="spacing" textLength="109" x="202.0599" y="657.546">MetaMask Owner</text><text fill="#000000" font-family="sans-serif" font-size="14" lengthAdjust="spacing" textLength="90" x="211.5599" y="675.1554">Authentication</text></g><!--entity Customer--><g id="elem_Customer"><ellipse cx="36.5" cy="446.2188" fill="#191919" rx="8" ry="8" style="stroke:#191919;stroke-width:0.5;"/><path d="M36.5,454.2188 L36.5,481.2188 M23.5,462.2188 L49.5,462.2188 M36.5,481.2188 L23.5,496.2188 M36.5,481.2188 L49.5,496.2188 " fill="none" style="stroke:#191919;stroke-width:0.5;"/><text fill="#191919" font-family="sans-serif" font-size="14" lengthAdjust="spacing" textLength="61" x="6" y="512.252">Customer</text></g><!--entity Admin--><g id="elem_Admin"><ellipse cx="106.5" cy="275.2188" fill="#191919" rx="8" ry="8" style="stroke:#191919;stroke-width:0.5;"/><path d="M106.5,283.2188 L106.5,310.2188 M93.5,291.2188 L119.5,291.2188 M106.5,310.2188 L93.5,325.2188 M106.5,310.2188 L119.5,325.2188 " fill="none" style="stroke:#191919;stroke-width:0.5;"/><text fill="#191919" font-family="sans-serif" font-size="14" lengthAdjust="spacing" textLength="39" x="87" y="341.252">Admin</text></g><!--entity Owner--><g id="elem_Owner"><ellipse cx="275.5" cy="93.7188" fill="#191919" rx="8" ry="8" style="stroke:#191919;stroke-width:0.5;"/><path d="M275.5,101.7188 L275.5,128.7188 M262.5,109.7188 L288.5,109.7188 M275.5,128.7188 L262.5,143.7188 M275.5,128.7188 L288.5,143.7188 " fill="none" style="stroke:#191919;stroke-width:0.5;"/><text fill="#191919" font-family="sans-serif" font-size="14" lengthAdjust="spacing" textLength="99" x="226" y="159.752">Contract Owner</text></g><g id="elem_GMN29"><path d="M360.5,65.7188 L360.5,120.2188 L325.23,124.2188 L360.5,128.2188 L360.5,183.1797 A3.5,3.5 0 0 0 364,186.6797 L567,186.6797 A3.5,3.5 0 0 0 570.5,183.1797 L570.5,72.2188 L560.5,62.2188 L364,62.2188 A3.5,3.5 0 0 0 360.5,65.7188 " fill="#FFFACD" style="stroke:#DAA520;stroke-width:1.5;"/><path d="M560.5,62.2188 L560.5,70.4688 A1.75,1.75 0 0 0 562.25,72.2188 L570.5,72.2188 L560.5,62.2188 " fill="#FFFACD" style="stroke:#DAA520;stroke-width:1.5;"/><text fill="#191919" font-family="sans-serif" font-size="13" font-weight="bold" lengthAdjust="spacing" textLength="132" x="366.5" y="80.7139">Contract Owner Role</text><text fill="#191919" font-family="sans-serif" font-size="13" lengthAdjust="spacing" textLength="135" x="366.5" y="97.0654">System-level privileges:</text><text fill="#191919" font-family="sans-serif" font-size="13" lengthAdjust="spacing" textLength="125" x="366.5" y="113.417">&#8226; Financial operations</text><text fill="#191919" font-family="sans-serif" font-size="13" lengthAdjust="spacing" textLength="163" x="366.5" y="129.7686">&#8226; Contract ownership control</text><text fill="#191919" font-family="sans-serif" font-size="13" lengthAdjust="spacing" textLength="183" x="366.5" y="146.1201">&#8226; Upgrade authorization (UUPS)</text><text fill="#191919" font-family="sans-serif" font-size="13" lengthAdjust="spacing" textLength="151" x="366.5" y="162.4717">&#8226; Emergency interventions</text><text fill="#191919" font-family="sans-serif" font-size="13" lengthAdjust="spacing" textLength="189" x="366.5" y="178.8232">&#8226; All admin + customer functions</text></g><g id="elem_GMN32"><path d="M752,612.2188 L752,713.3281 A3.5,3.5 0 0 0 755.5,716.8281 L959.5,716.8281 A3.5,3.5 0 0 0 963,713.3281 L963,618.7188 L953,608.7188 L861.5,608.7188 L857.5,504.8688 L853.5,608.7188 L755.5,608.7188 A3.5,3.5 0 0 0 752,612.2188 " fill="#FFFACD" style="stroke:#DAA520;stroke-width:1.5;"/><path d="M953,608.7188 L953,616.9688 A1.75,1.75 0 0 0 954.75,618.7188 L963,618.7188 L953,608.7188 " fill="#FFFACD" style="stroke:#DAA520;stroke-width:1.5;"/><text fill="#191919" font-family="sans-serif" font-size="13" font-weight="bold" lengthAdjust="spacing" textLength="147" x="758" y="627.2139">UUPS Upgrade Process</text><text fill="#191919" font-family="sans-serif" font-size="13" lengthAdjust="spacing" textLength="158" x="758" y="643.5654">Owner-controlled upgrades:</text><text fill="#191919" font-family="sans-serif" font-size="13" lengthAdjust="spacing" textLength="190" x="758" y="659.917">&#8226; Authorize new implementations</text><text fill="#191919" font-family="sans-serif" font-size="13" lengthAdjust="spacing" textLength="143" x="758" y="676.2686">&#8226; Preserve contract state</text><text fill="#191919" font-family="sans-serif" font-size="13" lengthAdjust="spacing" textLength="180" x="758" y="692.6201">&#8226; Maintain same proxy address</text><text fill="#191919" font-family="sans-serif" font-size="13" lengthAdjust="spacing" textLength="164" x="758" y="708.9717">&#8226; Zero-downtime deployment</text></g><g id="elem_GMN35"><path d="M1184,426.2188 L1184,527.3281 A3.5,3.5 0 0 0 1187.5,530.8281 L1381.5,530.8281 A3.5,3.5 0 0 0 1385,527.3281 L1385,432.7188 L1375,422.7188 L1187.5,422.7188 A3.5,3.5 0 0 0 1184,426.2188 " fill="#FFFACD" style="stroke:#DAA520;stroke-width:1.5;"/><path d="M1375,422.7188 L1375,430.9688 A1.75,1.75 0 0 0 1376.75,432.7188 L1385,432.7188 L1375,422.7188 " fill="#FFFACD" style="stroke:#DAA520;stroke-width:1.0;"/><text fill="#191919" font-family="sans-serif" font-size="13" font-weight="bold" lengthAdjust="spacing" textLength="146" x="1190" y="441.2139">Financial Management</text><text fill="#191919" font-family="sans-serif" font-size="13" lengthAdjust="spacing" textLength="117" x="1190" y="457.5654">Revenue operations:</text><text fill="#191919" font-family="sans-serif" font-size="13" lengthAdjust="spacing" textLength="170" x="1190" y="473.917">&#8226; Withdraw accumulated ETH</text><text fill="#191919" font-family="sans-serif" font-size="13" lengthAdjust="spacing" textLength="146" x="1190" y="490.2686">&#8226; Check contract balance</text><text fill="#191919" font-family="sans-serif" font-size="13" lengthAdjust="spacing" textLength="180" x="1190" y="506.6201">&#8226; Transfer funds to owner wallet</text><text fill="#191919" font-family="sans-serif" font-size="13" lengthAdjust="spacing" textLength="166" x="1190" y="522.9717">&#8226; Financial oversight controls</text></g><!--link Admin to Customer--><g id="link_Admin_Customer"><path d="M86.94,337.4488 C80.19,348.8688 72.97,362.1088 67.5,374.7188 C58.74,394.9088 56.1985,401.0257 50.8585,420.2457 " fill="none" id="Admin-to-Customer" style="stroke:#191919;stroke-width:1.0;"/><polygon fill="none" points="46.04,437.5888,56.6395,421.8519,45.0775,418.6395,46.04,437.5888" style="stroke:#191919;stroke-width:1.0;"/><text fill="#000000" font-family="sans-serif" font-size="13" lengthAdjust="spacing" textLength="42" x="68.5" y="389.2139">inherits</text></g><!--link Owner to Admin--><g id="link_Owner_Admin"><path d="M239.66,163.2888 C205.17,199.9188 166.5984,240.8828 138.7884,270.4228 " fill="none" id="Owner-to-Admin" style="stroke:#191919;stroke-width:1.0;"/><polygon fill="none" points="126.45,283.5288,143.157,274.5356,134.4197,266.3101,126.45,283.5288" style="stroke:#191919;stroke-width:1.0;"/><text fill="#000000" font-family="sans-serif" font-size="13" lengthAdjust="spacing" textLength="42" x="186.5" y="230.7139">inherits</text></g><!--link Owner to UC1--><g id="link_Owner_UC1"><path d="M311.34,163.2888 C347,201.1588 396.0775,253.2798 423.1775,282.0698 " fill="none" id="Owner-to-UC1" style="stroke:#191919;stroke-width:1.0;"/><polygon fill="#191919" points="427.29,286.4388,424.0339,277.1437,423.8629,282.798,418.2087,282.627,427.29,286.4388" style="stroke:#191919;stroke-width:1.0;"/><text fill="#000000" font-family="sans-serif" font-size="13" lengthAdjust="spacing" textLength="129" x="375.5" y="230.7139">accesses owner panel</text></g><!--link UC1 to UC2--><g id="link_UC1_UC2"><path d="M485.4,322.9688 C511.27,334.6588 544.27,352.2888 568.5,374.7188 C591.4,395.9188 607.21,421.3469 618.76,443.3369 " fill="none" id="UC1-to-UC2" style="stroke:#191919;stroke-width:1.0;"/><polygon fill="#191919" points="621.55,448.6488,620.9062,438.821,619.225,444.2222,613.8238,442.541,621.55,448.6488" style="stroke:#191919;stroke-width:1.0;"/><text fill="#000000" font-family="sans-serif" font-size="13" lengthAdjust="spacing" textLength="86" x="584.5" y="389.2139">withdraws ETH</text></g><!--link UC1 to UC3--><g id="link_UC1_UC3"><path d="M520.05,315.3388 C600.61,325.5288 731.47,344.9488 841.5,374.7188 C900.15,390.5888 914.2,397.5388 969.5,422.7188 C988.86,431.5388 1004.437,439.6413 1021.887,449.3513 " fill="none" id="UC1-to-UC3" style="stroke:#191919;stroke-width:1.0;"/><polygon fill="#191919" points="1027.13,452.2688,1021.2105,444.3973,1022.7609,449.8376,1017.3206,451.3879,1027.13,452.2688" style="stroke:#191919;stroke-width:1.0;"/><text fill="#000000" font-family="sans-serif" font-size="13" lengthAdjust="spacing" textLength="91" x="898.5" y="389.2139">checks balance</text></g><!--link UC1 to UC4--><g id="link_UC1_UC4"><path d="M399.28,322.4288 C373.56,333.4488 342.57,350.5688 322.5,374.7188 C304.88,395.9188 297.3575,420.7619 293.2275,442.7519 " fill="none" id="UC1-to-UC4" style="stroke:#191919;stroke-width:1.0;"/><polygon fill="#191919" points="292.12,448.6488,297.7125,440.5417,293.0429,443.7347,289.85,439.0651,292.12,448.6488" style="stroke:#191919;stroke-width:1.0;"/><text fill="#000000" font-family="sans-serif" font-size="13" lengthAdjust="spacing" textLength="112" x="323.5" y="389.2139">transfers ownership</text></g><!--link UC1 to UC5--><g id="link_UC1_UC5"><path d="M504.25,319.8988 C552.55,331.5188 621.77,350.3888 679.5,374.7188 C730.25,396.1088 779.736,425.4008 814.876,447.7308 " fill="none" id="UC1-to-UC5" style="stroke:#191919;stroke-width:1.0;"/><polygon fill="#191919" points="819.94,450.9488,814.4893,442.7457,815.72,448.2671,810.1986,449.4978,819.94,450.9488" style="stroke:#191919;stroke-width:1.0;"/><text fill="#000000" font-family="sans-serif" font-size="13" lengthAdjust="spacing" textLength="117" x="715.5" y="389.2139">authorizes upgrades</text></g><!--link UC1 to UC6--><g id="link_UC1_UC6"><path d="M444.5,325.4488 C444.5,355.3588 444.5,408.0288 444.5,442.5488 " fill="none" id="UC1-to-UC6" style="stroke:#191919;stroke-width:1.0;"/><polygon fill="#191919" points="444.5,448.5488,448.5,439.5488,444.5,443.5488,440.5,439.5488,444.5,448.5488" style="stroke:#191919;stroke-width:1.0;"/><text fill="#000000" font-family="sans-serif" font-size="13" lengthAdjust="spacing" textLength="114" x="445.5" y="389.2139">emergency controls</text></g><!--link UC1 to EXT3--><g id="link_UC1_EXT3"><path d="M366.63,314.2788 C298.17,325.5088 202.36,353.4088 155.5,422.7188 C107.81,493.2488 181.4323,585.5828 225.4123,631.3428 " fill="none" id="UC1-to-EXT3" style="stroke:#191919;stroke-width:1.0;stroke-dasharray:7.0,7.0;"/><polygon fill="#191919" points="229.57,635.6688,226.2175,626.4081,226.1053,632.0638,220.4495,631.9516,229.57,635.6688" style="stroke:#191919;stroke-width:1.0;"/><text fill="#000000" font-family="sans-serif" font-size="13" lengthAdjust="spacing" textLength="55" x="156.5" y="482.2139">&#171;include&#187;</text></g><!--link UC2 to EXT2--><g id="link_UC2_EXT2"><path d="M607.68,503.6888 C571.16,539.0588 510.5398,597.7544 474.5798,632.5844 " fill="none" id="UC2-to-EXT2" style="stroke:#191919;stroke-width:1.0;stroke-dasharray:7.0,7.0;"/><polygon fill="#191919" points="470.27,636.7588,479.5176,633.3704,473.8615,633.2801,473.9518,627.624,470.27,636.7588" style="stroke:#191919;stroke-width:1.0;"/><text fill="#000000" font-family="sans-serif" font-size="13" lengthAdjust="spacing" textLength="55" x="545.5" y="575.2139">&#171;include&#187;</text></g><!--link UC4 to EXT2--><g id="link_UC4_EXT2"><path d="M309.86,502.9188 C339.57,537.9588 389.1809,596.4613 419.0109,631.6613 " fill="none" id="UC4-to-EXT2" style="stroke:#191919;stroke-width:1.0;stroke-dasharray:7.0,7.0;"/><polygon fill="#191919" points="422.89,636.2388,420.123,626.7866,419.6574,632.4242,414.0198,631.9587,422.89,636.2388" style="stroke:#191919;stroke-width:1.0;"/><text fill="#000000" font-family="sans-serif" font-size="13" lengthAdjust="spacing" textLength="55" x="371.5" y="575.2139">&#171;include&#187;</text></g><!--link UC5 to EXT1--><g id="link_UC5_EXT1"><path d="M824.82,503.2988 C779.67,538.6588 703.4742,598.3199 658.8742,633.2399 " fill="none" id="UC5-to-EXT1" style="stroke:#191919;stroke-width:1.0;stroke-dasharray:7.0,7.0;"/><polygon fill="#191919" points="654.15,636.9388,663.7023,634.5399,658.0869,633.8564,658.7704,628.241,654.15,636.9388" style="stroke:#191919;stroke-width:1.0;"/><text fill="#000000" font-family="sans-serif" font-size="13" lengthAdjust="spacing" textLength="55" x="747.5" y="575.2139">&#171;include&#187;</text></g><!--link UC6 to EXT2--><g id="link_UC6_EXT2"><path d="M444.5,504.8688 C444.5,539.6588 444.5,593.6188 444.5,628.4588 " fill="none" id="UC6-to-EXT2" style="stroke:#191919;stroke-width:1.0;stroke-dasharray:7.0,7.0;"/><polygon fill="#191919" points="444.5,634.4588,448.5,625.4588,444.5,629.4588,440.5,625.4588,444.5,634.4588" style="stroke:#191919;stroke-width:1.0;"/><text fill="#000000" font-family="sans-serif" font-size="13" lengthAdjust="spacing" textLength="55" x="445.5" y="575.2139">&#171;include&#187;</text></g><!--link GMN35 to UC2--><g id="link_GMN35_UC2"><path d="M1221.5,422.6388 C1199.4,406.9288 1173.45,391.8288 1147,383.7188 C984.25,333.8488 926.04,331.5688 764,383.7188 C723.95,396.6088 685.81,426.9788 661.42,449.5288 " fill="none" id="GMN35-UC2" style="stroke:#191919;stroke-width:1.0;stroke-dasharray:7.0,7.0;"/></g><!--SRC=[TLNRRXD947sVhoZC0y78Y3YNXmXPCauiUB2886PNgxnqUigULdgwHzqzCMONYM_PJzilsUhRq4v0IYAdJzrErQdoCzTWYz0oOojxBrJ736lXZl7xhT6zgXTQQWExHZWiSAKTmjyLmBj7Xi-No-LySUaHRMeqwVLoFZ-Rlgc-LquuYR1UNt-UV45L2xLTCTu8XV1b2XDOMuG5ep-NWcqfqQtwk5DeuFFUEcnXNhT22UiCSqAhgde1S-wqiT08DCpmPbyn_m2ZHM-TRj6CW5d8_sGmX0b8-3JuQ4MHkOEGC-3Xay-J2hZpJ9dPKwaFQ9pWJ89aUzsxoY1tJ6s9tUYWvX1LIpiA_QAV5p4gbSxHMZXokdj9pxr5xfcFqdiqkcOAPIXblJZE_akXcEA2Sg-OObkQdt9mr8gwbdWGwW_Xcjgm7MHgjsf916mAE2rj5mto-yBm7PEK19FfISxzoqd0qPrsrEA3v3U6ARj1asPe6z6bOAS7T7lNQ2E-OP5xtT7mQynrdfNsLpJ8BIg-fxWTnlpPy9mKHiEw-khGA6fFBDQMiybO7CSGrIiIKjfRjKBUCABNXhXNVzuS7rH0AsEm9t46YbGnbP0j3tgwGiTMpDx7OTugpvLcHR8fNKvYrHyKXHNEDxtGSsWqJ2R_p0OPmmM8Q6khg980Hyi2gtugBJIf5Er6wjtWFFFY8ayMb8SMT00whxtAGz5aIYQxf2Wg_EPzWPqGnhs2BDsE89m2F2NG9JMau5uDXSMPpvw5OA5Fyoyipia2y-Y1fwNo72-neqj2po8vl7uz2sqbZxTlXUAoht4sgpo114sVGAU_XyuoTFm4El-TLnKEf17Rne7Uf3Co7XzU6FYa9Ox7LLJfHE83IkYCU10IjsWlglz-_5likXxK7e0Xrj3Ft9K09oqFNKrxwdN-CXWCUqI2ePLuyBhCiUTI0WjoUWKygsxJgwYZYjeTlW4IpRZxdgTVrV6ut2MuDjgBYcW6pfDKeyHwc78a-lCEADo1Q3iPxbh1-DgWzOL6dfww9HW3jcB4Wdx1Cleswup-kYS6DNb4tx_Gw4bDhNA2y1exgVS-_6Ck4ZSkCfaIaryTMcBoYIQbUYmc4YaCvvOMgMzxISNLOK_2lC9z7KhFM-AXV2bzYsiBJgS5t37gatii0zfX6uGrBC70uNy0]--></g></svg>