<?xml version="1.0" encoding="us-ascii" standalone="no"?><svg xmlns="http://www.w3.org/2000/svg" xmlns:xlink="http://www.w3.org/1999/xlink" contentStyleType="text/css" height="1479px" preserveAspectRatio="none" style="width:1992px;height:1479px;background:#FFFFFF;" version="1.1" viewBox="0 0 1992 1479" width="1992px" zoomAndPan="magnify"><defs/><g><text fill="#000000" font-family="sans-serif" font-size="14" font-weight="bold" lengthAdjust="spacing" textLength="322" x="828" y="24.5332">UUPS-VendingMachine V2 - Use Case Diagram</text><text fill="#000000" font-family="sans-serif" font-size="14" font-weight="bold" lengthAdjust="spacing" textLength="223" x="877.5" y="42.1426">Customer Shopping Experience</text><!--cluster VendingMachine V2 DApp--><g id="cluster_VendingMachine V2 DApp"><rect fill="none" height="927" rx="3.5" ry="3.5" style="stroke:#393939;stroke-width:1.0;" width="871" x="362" y="373.2188"/><text fill="#000000" font-family="sans-serif" font-size="14" font-weight="bold" lengthAdjust="spacing" textLength="180" x="707.5" y="389.752">VendingMachine V2 DApp</text></g><!--cluster External Integrations--><g id="cluster_External Integrations"><rect fill="none" height="104" rx="3.5" ry="3.5" style="stroke:#393939;stroke-width:1.0;" width="778" x="328" y="1356.2188"/><text fill="#000000" font-family="sans-serif" font-size="14" font-weight="bold" lengthAdjust="spacing" textLength="147" x="643.5" y="1372.752">External Integrations</text></g><g id="elem_UC1"><ellipse cx="1138.0109" cy="1267.2209" fill="#F1F1F1" rx="73.0109" ry="17.0022" style="stroke:#181818;stroke-width:0.5;"/><text fill="#000000" font-family="sans-serif" font-size="14" lengthAdjust="spacing" textLength="96" x="1087.0109" y="1271.7375">Connect Wallet</text></g><g id="elem_UC2"><ellipse cx="1121.0702" cy="1118.3328" fill="#F1F1F1" rx="96.0702" ry="21.614" style="stroke:#181818;stroke-width:0.5;"/><text fill="#000000" font-family="sans-serif" font-size="14" lengthAdjust="spacing" textLength="152" x="1045.0702" y="1122.0613">Browse Product Catalog</text></g><g id="elem_UC3"><ellipse cx="1131.1163" cy="961.342" fill="#F1F1F1" rx="86.1163" ry="19.6233" style="stroke:#181818;stroke-width:0.5;"/><text fill="#000000" font-family="sans-serif" font-size="14" lengthAdjust="spacing" textLength="129" x="1066.6163" y="965.0705">View Product Details</text></g><g id="elem_UC4"><ellipse cx="770.9775" cy="796.0143" fill="#F1F1F1" rx="79.4775" ry="18.2955" style="stroke:#181818;stroke-width:0.5;"/><text fill="#000000" font-family="sans-serif" font-size="14" lengthAdjust="spacing" textLength="113" x="713.256" y="800.0896">Purchase Product</text></g><g id="elem_UC5"><ellipse cx="468.8297" cy="431.7847" fill="#F1F1F1" rx="90.8297" ry="20.5659" style="stroke:#181818;stroke-width:0.5;"/><text fill="#000000" font-family="sans-serif" font-size="14" lengthAdjust="spacing" textLength="140" x="398.8297" y="435.5132">View Purchase History</text></g><g id="elem_UC6"><ellipse cx="535.2412" cy="586.167" fill="#F1F1F1" rx="102.7412" ry="22.9482" style="stroke:#181818;stroke-width:0.5;"/><text fill="#000000" font-family="sans-serif" font-size="14" lengthAdjust="spacing" textLength="167" x="451.7412" y="589.8955">Receive Automatic Refund</text></g><g id="elem_UC7"><ellipse cx="456.7877" cy="961.2763" fill="#F1F1F1" rx="78.2877" ry="18.0575" style="stroke:#181818;stroke-width:0.5;"/><text fill="#000000" font-family="sans-serif" font-size="14" lengthAdjust="spacing" textLength="110" x="400.0149" y="965.4961">Validate Payment</text></g><g id="elem_UC8"><ellipse cx="660.035" cy="961.0258" fill="#F1F1F1" rx="89.535" ry="20.307" style="stroke:#181818;stroke-width:0.5;"/><text fill="#000000" font-family="sans-serif" font-size="14" lengthAdjust="spacing" textLength="137" x="591.535" y="964.7543">Update Product Stock</text></g><g id="elem_UC9"><ellipse cx="695.0583" cy="431.6304" fill="#F1F1F1" rx="100.0583" ry="22.4117" style="stroke:#181818;stroke-width:0.5;"/><text fill="#000000" font-family="sans-serif" font-size="14" lengthAdjust="spacing" textLength="161" x="614.5583" y="435.3589">Calculate Refund Amount</text></g><g id="elem_UC10"><ellipse cx="897.2192" cy="961.1626" fill="#F1F1F1" rx="112.7192" ry="24.9438" style="stroke:#181818;stroke-width:0.5;"/><text fill="#000000" font-family="sans-serif" font-size="14" lengthAdjust="spacing" textLength="189" x="802.7192" y="964.8911">Record Purchase Transaction</text></g><g id="elem_EXT1"><ellipse cx="982.8456" cy="1418.3879" fill="#F1F1F1" rx="106.3456" ry="23.6691" style="stroke:#181818;stroke-width:0.5;"/><text fill="#000000" font-family="sans-serif" font-size="14" lengthAdjust="spacing" textLength="175" x="895.3456" y="1422.1164">Authenticate with MetaMask</text></g><g id="elem_EXT2"><ellipse cx="723.2025" cy="1418.3592" fill="#F1F1F1" rx="118.7025" ry="26.1405" style="stroke:#181818;stroke-width:0.5;"/><text fill="#000000" font-family="sans-serif" font-size="14" lengthAdjust="spacing" textLength="202" x="622.2025" y="1422.0878">Process Blockchain Transaction</text></g><g id="elem_EXT3"><ellipse cx="456.7614" cy="1418.071" fill="#F1F1F1" rx="112.2614" ry="24.8523" style="stroke:#181818;stroke-width:0.5;"/><text fill="#000000" font-family="sans-serif" font-size="14" lengthAdjust="spacing" textLength="188" x="362.7614" y="1421.7996">Connect to Ethereum Network</text></g><!--entity Customer--><g id="elem_Customer"><ellipse cx="753" cy="239.7188" fill="#191919" rx="8" ry="8" style="stroke:#191919;stroke-width:0.5;"/><path d="M753,247.7188 L753,274.7188 M740,255.7188 L766,255.7188 M753,274.7188 L740,289.7188 M753,274.7188 L766,289.7188 " fill="none" style="stroke:#191919;stroke-width:0.5;"/><text fill="#191919" font-family="sans-serif" font-size="14" lengthAdjust="spacing" textLength="61" x="722.5" y="305.752">Customer</text></g><g id="elem_GMN37"><path d="M655.5,65.7188 L655.5,166.8281 A3.5,3.5 0 0 0 659,170.3281 L749,170.3281 L753,231.1588 L757,170.3281 L847,170.3281 A3.5,3.5 0 0 0 850.5,166.8281 L850.5,72.2188 L840.5,62.2188 L659,62.2188 A3.5,3.5 0 0 0 655.5,65.7188 " fill="#FFFACD" style="stroke:#DAA520;stroke-width:1.5;"/><path d="M840.5,62.2188 L840.5,70.4688 A1.75,1.75 0 0 0 842.25,72.2188 L850.5,72.2188 L840.5,62.2188 " fill="#FFFACD" style="stroke:#DAA520;stroke-width:1.5;"/><text fill="#191919" font-family="sans-serif" font-size="13" font-weight="bold" lengthAdjust="spacing" textLength="93" x="661.5" y="80.7139">Customer Role</text><text fill="#191919" font-family="sans-serif" font-size="13" lengthAdjust="spacing" textLength="157" x="661.5" y="97.0654">Regular users who want to:</text><text fill="#191919" font-family="sans-serif" font-size="13" lengthAdjust="spacing" textLength="174" x="661.5" y="113.417">&#8226; Purchase products with ETH</text><text fill="#191919" font-family="sans-serif" font-size="13" lengthAdjust="spacing" textLength="151" x="661.5" y="129.7686">&#8226; Browse available catalog</text><text fill="#191919" font-family="sans-serif" font-size="13" lengthAdjust="spacing" textLength="170" x="661.5" y="146.1201">&#8226; Track their purchase history</text><text fill="#191919" font-family="sans-serif" font-size="13" lengthAdjust="spacing" textLength="161" x="661.5" y="162.4717">&#8226; Receive automatic refunds</text></g><g id="elem_GMN40"><path d="M1249,737.7188 L1249,792.2188 L850.57,796.2188 L1249,800.2188 L1249,855.1797 A3.5,3.5 0 0 0 1252.5,858.6797 L1453.5,858.6797 A3.5,3.5 0 0 0 1457,855.1797 L1457,744.2188 L1447,734.2188 L1252.5,734.2188 A3.5,3.5 0 0 0 1249,737.7188 " fill="#FFFACD" style="stroke:#DAA520;stroke-width:1.5;"/><path d="M1447,734.2188 L1447,742.4688 A1.75,1.75 0 0 0 1448.75,744.2188 L1457,744.2188 L1447,734.2188 " fill="#FFFACD" style="stroke:#DAA520;stroke-width:1.5;"/><text fill="#191919" font-family="sans-serif" font-size="13" font-weight="bold" lengthAdjust="spacing" textLength="128" x="1255" y="752.7139">Core Purchase Flow</text><text fill="#191919" font-family="sans-serif" font-size="13" lengthAdjust="spacing" textLength="174" x="1255" y="769.0654">1. Select product from catalog</text><text fill="#191919" font-family="sans-serif" font-size="13" lengthAdjust="spacing" textLength="179" x="1255" y="785.417">2. Confirm price and availability</text><text fill="#191919" font-family="sans-serif" font-size="13" lengthAdjust="spacing" textLength="174" x="1255" y="801.7686">3. Sign MetaMask transaction</text><text fill="#191919" font-family="sans-serif" font-size="13" lengthAdjust="spacing" textLength="153" x="1255" y="818.1201">4. Automatic stock update</text><text fill="#191919" font-family="sans-serif" font-size="13" lengthAdjust="spacing" textLength="186" x="1255" y="834.4717">5. Overpayment refund if needed</text><text fill="#191919" font-family="sans-serif" font-size="13" lengthAdjust="spacing" textLength="181" x="1255" y="850.8232">6. Purchase recorded in history</text></g><g id="elem_GMN43"><path d="M156.5,745.7188 L156.5,846.8281 A3.5,3.5 0 0 0 160,850.3281 L342,850.3281 A3.5,3.5 0 0 0 345.5,846.8281 L345.5,752.2188 L335.5,742.2188 L327.38,742.2188 L506.21,608.3088 L319.38,742.2188 L160,742.2188 A3.5,3.5 0 0 0 156.5,745.7188 " fill="#FFFACD" style="stroke:#DAA520;stroke-width:1.5;"/><path d="M335.5,742.2188 L335.5,750.4688 A1.75,1.75 0 0 0 337.25,752.2188 L345.5,752.2188 L335.5,742.2188 " fill="#FFFACD" style="stroke:#DAA520;stroke-width:1.5;"/><text fill="#191919" font-family="sans-serif" font-size="13" font-weight="bold" lengthAdjust="spacing" textLength="132" x="162.5" y="760.7139">V2 Enhanced Refund</text><text fill="#191919" font-family="sans-serif" font-size="13" lengthAdjust="spacing" textLength="168" x="162.5" y="777.0654">Automatic refund calculation:</text><text fill="#191919" font-family="sans-serif" font-size="13" lengthAdjust="spacing" textLength="131" x="162.5" y="793.417">&#8226; Detects overpayment</text><text fill="#191919" font-family="sans-serif" font-size="13" lengthAdjust="spacing" textLength="145" x="162.5" y="809.7686">&#8226; Calculates exact refund</text><text fill="#191919" font-family="sans-serif" font-size="13" lengthAdjust="spacing" textLength="114" x="162.5" y="826.1201">&#8226; Instant ETH return</text><text fill="#191919" font-family="sans-serif" font-size="13" lengthAdjust="spacing" textLength="118" x="162.5" y="842.4717">&#8226; Transaction logged</text></g><g id="elem_GMN46"><path d="M1125,1367.7188 L1125,1468.8281 A3.5,3.5 0 0 0 1128.5,1472.3281 L1301.5,1472.3281 A3.5,3.5 0 0 0 1305,1468.8281 L1305,1374.2188 L1295,1364.2188 L1128.5,1364.2188 A3.5,3.5 0 0 0 1125,1367.7188 " fill="#FFFACD" style="stroke:#DAA520;stroke-width:1.5;"/><path d="M1295,1364.2188 L1295,1372.4688 A1.75,1.75 0 0 0 1296.75,1374.2188 L1305,1374.2188 L1295,1364.2188 " fill="#FFFACD" style="stroke:#DAA520;stroke-width:1.0;"/><text fill="#191919" font-family="sans-serif" font-size="13" font-weight="bold" lengthAdjust="spacing" textLength="143" x="1131" y="1382.7139">Blockchain Integration</text><text fill="#191919" font-family="sans-serif" font-size="13" lengthAdjust="spacing" textLength="159" x="1131" y="1399.0654">&#8226; Smart contract interaction</text><text fill="#191919" font-family="sans-serif" font-size="13" lengthAdjust="spacing" textLength="155" x="1131" y="1415.417">&#8226; ETH payment processing</text><text fill="#191919" font-family="sans-serif" font-size="13" lengthAdjust="spacing" textLength="150" x="1131" y="1431.7686">&#8226; Transaction confirmation</text><text fill="#191919" font-family="sans-serif" font-size="13" lengthAdjust="spacing" textLength="97" x="1131" y="1448.1201">&#8226; Event emission</text><text fill="#191919" font-family="sans-serif" font-size="13" lengthAdjust="spacing" textLength="106" x="1131" y="1464.4717">&#8226; Gas fee handling</text></g><g id="elem_GMN49"><path d="M178,535.7188 L178,636.8281 A3.5,3.5 0 0 0 181.5,640.3281 L342.5,640.3281 A3.5,3.5 0 0 0 346,636.8281 L346,542.2188 L336,532.2188 L338.34,532.2188 L443.62,451.4188 L330.34,532.2188 L181.5,532.2188 A3.5,3.5 0 0 0 178,535.7188 " fill="#FFFACD" style="stroke:#DAA520;stroke-width:1.5;"/><path d="M336,532.2188 L336,540.4688 A1.75,1.75 0 0 0 337.75,542.2188 L346,542.2188 L336,532.2188 " fill="#FFFACD" style="stroke:#DAA520;stroke-width:1.5;"/><text fill="#191919" font-family="sans-serif" font-size="13" font-weight="bold" lengthAdjust="spacing" textLength="106" x="184" y="550.7139">Purchase History</text><text fill="#191919" font-family="sans-serif" font-size="13" lengthAdjust="spacing" textLength="132" x="184" y="567.0654">Local storage tracking:</text><text fill="#191919" font-family="sans-serif" font-size="13" lengthAdjust="spacing" textLength="147" x="184" y="583.417">&#8226; Product name and price</text><text fill="#191919" font-family="sans-serif" font-size="13" lengthAdjust="spacing" textLength="141" x="184" y="599.7686">&#8226; Transaction timestamp</text><text fill="#191919" font-family="sans-serif" font-size="13" lengthAdjust="spacing" textLength="138" x="184" y="616.1201">&#8226; Purchase confirmation</text><text fill="#191919" font-family="sans-serif" font-size="13" lengthAdjust="spacing" textLength="146" x="184" y="632.4717">&#8226; Session-based memory</text></g><g id="elem_WorkflowNote"><path d="M1697,1067.7188 L1697,1168.8281 A3.5,3.5 0 0 0 1700.5,1172.3281 L1981.5,1172.3281 A3.5,3.5 0 0 0 1985,1168.8281 L1985,1074.2188 L1975,1064.2188 L1700.5,1064.2188 A3.5,3.5 0 0 0 1697,1067.7188 " fill="#FFFACD" style="stroke:#DAA520;stroke-width:1.5;"/><path d="M1975,1064.2188 L1975,1072.4688 A1.75,1.75 0 0 0 1976.75,1074.2188 L1985,1074.2188 L1975,1064.2188 " fill="#FFFACD" style="stroke:#DAA520;stroke-width:1.0;"/><text fill="#191919" font-family="sans-serif" font-size="13" font-weight="bold" lengthAdjust="spacing" textLength="174" x="1703" y="1082.7139">Typical Customer Workflow</text><text fill="#191919" font-family="sans-serif" font-size="13" lengthAdjust="spacing" textLength="238" x="1703" y="1099.0654">1. Connect MetaMask &#8594; Browse Catalog</text><text fill="#191919" font-family="sans-serif" font-size="13" lengthAdjust="spacing" textLength="259" x="1703" y="1115.417">2. View Product Details &#8594; Purchase Product</text><text fill="#191919" font-family="sans-serif" font-size="13" lengthAdjust="spacing" textLength="246" x="1703" y="1131.7686">3. Blockchain Processing &#8594; Stock Update</text><text fill="#191919" font-family="sans-serif" font-size="13" lengthAdjust="spacing" textLength="263" x="1703" y="1148.1201">4. Transaction Confirmation &#8594; History Update</text><text fill="#191919" font-family="sans-serif" font-size="13" lengthAdjust="spacing" textLength="243" x="1703" y="1164.4717">5. Optional: Automatic Refund Processing</text></g><!--link Customer to UC1--><g id="link_Customer_UC1"><path d="M783.67,273.3888 C940.34,284.8588 1644,341.3387 1644,430.7188 C1644,430.7188 1644,430.7188 1644,1119.2188 C1644,1209.4388 1349.5739,1247.3398 1211.6939,1260.2398 " fill="none" id="Customer-to-UC1" style="stroke:#191919;stroke-width:1.0;"/><polygon fill="#191919" points="1205.72,1260.7988,1215.0535,1263.943,1210.6983,1260.333,1214.3083,1255.9778,1205.72,1260.7988" style="stroke:#191919;stroke-width:1.0;"/><text fill="#000000" font-family="sans-serif" font-size="13" lengthAdjust="spacing" textLength="155" x="1645" y="801.7139">connects MetaMask wallet</text></g><!--link Customer to UC2--><g id="link_Customer_UC2"><path d="M783.68,279.3888 C900.45,312.3588 1318.4,447.7488 1475,734.2188 C1565.12,899.0788 1282.052,1045.8476 1169.482,1096.4776 " fill="none" id="Customer-to-UC2" style="stroke:#191919;stroke-width:1.0;"/><polygon fill="#191919" points="1164.01,1098.9388,1173.8588,1098.8951,1168.57,1096.8878,1170.5773,1091.5991,1164.01,1098.9388" style="stroke:#191919;stroke-width:1.0;"/><text fill="#000000" font-family="sans-serif" font-size="13" lengthAdjust="spacing" textLength="155" x="1456" y="692.7139">browses available products</text></g><!--link Customer to UC3--><g id="link_Customer_UC3"><path d="M722.32,271.1088 C581.76,271.3988 6,281.6988 6,430.7188 C6,430.7188 6,430.7188 6,797.2188 C6,862.2488 76.36,840.7488 139,858.2188 C520.63,964.6188 634.99,878.8088 1027,936.2188 C1043.41,938.6188 1055.2173,940.9139 1071.2273,944.6539 " fill="none" id="Customer-to-UC3" style="stroke:#191919;stroke-width:1.0;"/><polygon fill="#191919" points="1077.07,946.0188,1069.2159,940.0763,1072.2011,944.8814,1067.396,947.8666,1077.07,946.0188" style="stroke:#191919;stroke-width:1.0;"/><text fill="#000000" font-family="sans-serif" font-size="13" lengthAdjust="spacing" textLength="135" x="7" y="591.7139">checks price and stock</text></g><!--link Customer to UC4--><g id="link_Customer_UC4"><path d="M783.78,308.5687 C795.33,324.9088 807.09,344.9588 813,365.2188 C825.38,407.6288 845.29,550.7888 812,704.2188 C806.12,731.3088 794.5426,754.8712 784.4526,772.6412 " fill="none" id="Customer-to-UC4" style="stroke:#191919;stroke-width:1.0;"/><polygon fill="#191919" points="781.49,777.8588,789.4123,772.0075,783.9588,773.5108,782.4555,768.0573,781.49,777.8588" style="stroke:#191919;stroke-width:1.0;"/><text fill="#000000" font-family="sans-serif" font-size="13" lengthAdjust="spacing" textLength="122" x="830" y="498.7139">makes ETH payment</text></g><!--link Customer to UC5--><g id="link_Customer_UC5"><path d="M722.41,287.0787 C687.28,305.4188 628.07,336.7488 578,365.2188 C550.94,380.6088 525.7355,395.7732 503.9555,409.1232 " fill="none" id="Customer-to-UC5" style="stroke:#191919;stroke-width:1.0;"/><polygon fill="#191919" points="498.84,412.2587,508.6036,410.9658,503.1029,409.6458,504.4229,404.1451,498.84,412.2587" style="stroke:#191919;stroke-width:1.0;"/><text fill="#000000" font-family="sans-serif" font-size="13" lengthAdjust="spacing" textLength="159" x="621" y="353.7139">reviews personal purchases</text></g><!--reverse link Customer to UC6--><g id="link_Customer_UC6"><path d="M716.2006,271.5342 C609.5206,273.0542 264.54,284.1488 196,365.2188 C170.46,395.4288 173.63,421.5988 196,454.2188 C212.66,478.5187 385.41,537.0788 477.66,566.9788 " fill="none" id="Customer-backto-UC6" style="stroke:#191919;stroke-width:1.0;"/><polygon fill="#191919" points="722.2,271.4488,713.1439,267.5774,717.2005,271.52,713.2579,275.5766,722.2,271.4488" style="stroke:#191919;stroke-width:1.0;"/><text fill="#000000" font-family="sans-serif" font-size="13" lengthAdjust="spacing" textLength="163" x="197" y="437.2139">receives overpayment refund</text></g><!--link UC1 to EXT1--><g id="link_UC1_EXT1"><path d="M1121.71,1283.8788 C1094.03,1310.4788 1042.1157,1360.4008 1010.4057,1390.8808 " fill="none" id="UC1-to-EXT1" style="stroke:#191919;stroke-width:1.0;stroke-dasharray:7.0,7.0;"/><polygon fill="#191919" points="1006.08,1395.0388,1015.3405,1391.6857,1009.6848,1391.5738,1009.7966,1385.9181,1006.08,1395.0388" style="stroke:#191919;stroke-width:1.0;"/><text fill="#000000" font-family="sans-serif" font-size="13" lengthAdjust="spacing" textLength="55" x="1088" y="1330.7139">&#171;include&#187;</text></g><!--link UC4 to UC7--><g id="link_UC4_UC7"><path d="M740.03,813.2988 C679.69,844.6188 552.3855,910.7049 492.5955,941.7349 " fill="none" id="UC4-to-UC7" style="stroke:#191919;stroke-width:1.0;stroke-dasharray:7.0,7.0;"/><polygon fill="#191919" points="487.27,944.4988,497.1008,943.9033,491.7079,942.1955,493.4157,936.8026,487.27,944.4988" style="stroke:#191919;stroke-width:1.0;"/><text fill="#000000" font-family="sans-serif" font-size="13" lengthAdjust="spacing" textLength="55" x="596" y="902.7139">&#171;include&#187;</text></g><!--link UC4 to UC8--><g id="link_UC4_UC8"><path d="M759.12,814.6588 C738.2,845.3788 698.3381,903.9301 676.5381,935.9301 " fill="none" id="UC4-to-UC8" style="stroke:#191919;stroke-width:1.0;stroke-dasharray:7.0,7.0;"/><polygon fill="#191919" points="673.16,940.8888,681.5329,935.7028,675.9751,936.7565,674.9214,931.1987,673.16,940.8888" style="stroke:#191919;stroke-width:1.0;"/><text fill="#000000" font-family="sans-serif" font-size="13" lengthAdjust="spacing" textLength="55" x="709" y="902.7139">&#171;include&#187;</text></g><!--link UC4 to UC10--><g id="link_UC4_UC10"><path d="M784.48,814.6588 C807.15,843.9788 849.2407,898.4315 874.8707,931.5915 " fill="none" id="UC4-to-UC10" style="stroke:#191919;stroke-width:1.0;stroke-dasharray:7.0,7.0;"/><polygon fill="#191919" points="878.54,936.3388,876.201,926.7717,875.4823,932.3827,869.8713,931.664,878.54,936.3388" style="stroke:#191919;stroke-width:1.0;"/><text fill="#000000" font-family="sans-serif" font-size="13" lengthAdjust="spacing" textLength="55" x="853" y="902.7139">&#171;include&#187;</text></g><!--link UC4 to EXT2--><g id="link_UC4_EXT2"><path d="M706.15,807.0388 C582.45,827.6088 325,880.0488 325,960.2188 C325,960.2188 325,960.2188 325,1268.2188 C325,1389.9688 474.07,1302.7288 587,1348.2188 C619.66,1361.3788 649.8247,1376.6302 676.3247,1390.9902 " fill="none" id="UC4-to-EXT2" style="stroke:#191919;stroke-width:1.0;stroke-dasharray:7.0,7.0;"/><polygon fill="#191919" points="681.6,1393.8488,675.5928,1386.044,677.2039,1391.4666,671.7814,1393.0777,681.6,1393.8488" style="stroke:#191919;stroke-width:1.0;"/><text fill="#000000" font-family="sans-serif" font-size="13" lengthAdjust="spacing" textLength="55" x="326" y="1123.7139">&#171;include&#187;</text></g><!--link UC6 to UC4--><g id="link_UC6_UC4"><path d="M559.37,608.6988 C606.36,650.1088 704.129,736.2812 746.989,774.0612 " fill="none" id="UC6-to-UC4" style="stroke:#191919;stroke-width:1.0;stroke-dasharray:7.0,7.0;"/><polygon fill="#191919" points="751.49,778.0288,747.3835,769.0768,747.7392,774.7225,742.0935,775.0781,751.49,778.0288" style="stroke:#191919;stroke-width:1.0;"/><text fill="#000000" font-family="sans-serif" font-size="13" lengthAdjust="spacing" textLength="53" x="709" y="684.7139">&#171;extend&#187;</text><text fill="#000000" font-family="sans-serif" font-size="13" lengthAdjust="spacing" textLength="135" x="668" y="701.0654">[overpayment detected]</text></g><!--link UC9 to UC6--><g id="link_UC9_UC6"><path d="M672.75,453.9188 C642.36,482.8987 592.4837,530.4296 561.9137,559.5596 " fill="none" id="UC9-to-UC6" style="stroke:#191919;stroke-width:1.0;stroke-dasharray:7.0,7.0;"/><polygon fill="#191919" points="557.57,563.6988,566.845,560.3859,561.1898,560.2495,561.3262,554.5943,557.57,563.6988" style="stroke:#191919;stroke-width:1.0;"/><text fill="#000000" font-family="sans-serif" font-size="13" lengthAdjust="spacing" textLength="55" x="639" y="498.7139">&#171;include&#187;</text></g><!--link UC7 to EXT3--><g id="link_UC7_EXT3"><path d="M457,979.2288 C457,1048.7588 457,1305.5988 457,1387.0188 " fill="none" id="UC7-to-EXT3" style="stroke:#191919;stroke-width:1.0;stroke-dasharray:7.0,7.0;"/><polygon fill="#191919" points="457,1393.0188,461,1384.0188,457,1388.0188,453,1384.0188,457,1393.0188" style="stroke:#191919;stroke-width:1.0;"/><text fill="#000000" font-family="sans-serif" font-size="13" lengthAdjust="spacing" textLength="55" x="458" y="1216.7139">&#171;include&#187;</text></g><!--link UC8 to EXT2--><g id="link_UC8_EXT2"><path d="M662.71,981.7688 C672.8,1054.6588 707.407,1304.5955 718.697,1386.1255 " fill="none" id="UC8-to-EXT2" style="stroke:#191919;stroke-width:1.0;stroke-dasharray:7.0,7.0;"/><polygon fill="#191919" points="719.52,1392.0688,722.2477,1382.6051,718.8342,1387.116,714.3233,1383.7025,719.52,1392.0688" style="stroke:#191919;stroke-width:1.0;"/><text fill="#000000" font-family="sans-serif" font-size="13" lengthAdjust="spacing" textLength="55" x="696" y="1216.7139">&#171;include&#187;</text></g><!--link UC10 to EXT2--><g id="link_UC10_EXT2"><path d="M887.77,986.3588 C857.77,1064.8088 765.3531,1306.4745 734.7831,1386.4145 " fill="none" id="UC10-to-EXT2" style="stroke:#191919;stroke-width:1.0;stroke-dasharray:7.0,7.0;"/><polygon fill="#191919" points="732.64,1392.0188,739.5908,1385.0412,734.4259,1387.3486,732.1185,1382.1837,732.64,1392.0188" style="stroke:#191919;stroke-width:1.0;"/><text fill="#000000" font-family="sans-serif" font-size="13" lengthAdjust="spacing" textLength="55" x="804" y="1216.7139">&#171;include&#187;</text></g><!--link UC2 to UC1--><g id="link_UC2_UC1"><path d="M1123.4,1139.9688 C1126.82,1169.5688 1132.3508,1217.3285 1135.4508,1244.1385 " fill="none" id="UC2-to-UC1" style="stroke:#191919;stroke-width:1.0;stroke-dasharray:7.0,7.0;"/><polygon fill="#191919" points="1136.14,1250.0988,1139.0798,1240.6989,1135.5657,1245.1318,1131.1327,1241.6178,1136.14,1250.0988" style="stroke:#191919;stroke-width:1.0;"/><text fill="#000000" font-family="sans-serif" font-size="13" lengthAdjust="spacing" textLength="67" x="1133" y="1216.7139">&#171;precedes&#187;</text></g><!--link UC3 to UC2--><g id="link_UC3_UC2"><path d="M1129.79,980.9188 C1127.91,1010.0587 1124.6867,1060.1412 1122.7267,1090.4912 " fill="none" id="UC3-to-UC2" style="stroke:#191919;stroke-width:1.0;stroke-dasharray:7.0,7.0;"/><polygon fill="#191919" points="1122.34,1096.4788,1126.9117,1087.7552,1122.6622,1091.4891,1118.9283,1087.2397,1122.34,1096.4788" style="stroke:#191919;stroke-width:1.0;"/><text fill="#000000" font-family="sans-serif" font-size="13" lengthAdjust="spacing" textLength="67" x="1128" y="1030.7139">&#171;precedes&#187;</text></g><!--link UC4 to UC3--><g id="link_UC4_UC3"><path d="M805.85,812.9988 C874.05,843.8788 1019.1043,909.5536 1088.7943,941.1136 " fill="none" id="UC4-to-UC3" style="stroke:#191919;stroke-width:1.0;stroke-dasharray:7.0,7.0;"/><polygon fill="#191919" points="1094.26,943.5888,1087.7116,936.2322,1089.7053,941.5261,1084.4114,943.5197,1094.26,943.5888" style="stroke:#191919;stroke-width:1.0;"/><text fill="#000000" font-family="sans-serif" font-size="13" lengthAdjust="spacing" textLength="67" x="1005" y="902.7139">&#171;precedes&#187;</text></g><!--link GMN46 to EXT2--><g id="link_GMN46_EXT2"><path d="M1154.85,1364.0288 C1135.1,1349.5088 1112.12,1335.7688 1088.5,1328.2188 C1043.62,1313.8788 921.96,1315.8688 876.5,1328.2188 C830.29,1340.7688 783.77,1371.1088 754.25,1393.1088 " fill="none" id="GMN46-EXT2" style="stroke:#191919;stroke-width:1.0;stroke-dasharray:7.0,7.0;"/></g><!--link WorkflowNote to UC1--><g id="link_WorkflowNote_UC1"><path d="M1767.43,1172.4588 C1738.44,1190.7488 1703.99,1209.3388 1670,1220.2188 C1586.35,1247.0088 1335.03,1259.3388 1210.11,1263.9388 " fill="none" id="WorkflowNote-UC1" style="stroke:#191919;stroke-width:1.0;stroke-dasharray:7.0,7.0;"/></g><!--SRC=[VLRXJYCt4Fw_Jp6bFsWZ9RrBW788HGe1UaZb6X7WAlNwm-nE4Ykxzfxj9OUgIltL1-WZzD7kIJfZUpVB1YgTEDZvF9vlvfiPV-DMM20KmjZ4hgKgXH45F8XqlJIwKjbKvzh0PYKTjknAEuG_4e2p3l3RoylBoVISBTfaQEBNyydaSFWc-JD9d7GvmjtTRDw_HvL9jRmMwKegXFiXzE7E8am5_JYNOaatVLBJoZfTe87vIfSbuU7YIub6eaenIVPXPYG5_mIJr6cJ2Fu9U_MXFH0MwZyOFN-o3eaVHqod4eEf4sf98UtjXdC-ASizJvF-xSDK6soSDP5QibKMKmvwRwgL8e_mKUGvEd_xtVHj6t5cz8R-dncTLGIS2YTolOp8OHjvBt7JuCxH2PdRY1krSRFAf2knzHan1xk-Qk1xIHpCKmGUje4tcA9yH9XKn58ucS8DBYXN4NjKvs9UbQKsZiiHK_fYFkv5BZD1Mfc9fm9L7TkFRSnT6H2HwTpfT1rnnyzoA_AqoXaQGe99GLMiNRxhi23rRGdV6g4iIKDgLTV4Yt6VjEJGA9575hOjYCPsfHoI6Fcu3NfeRg8yhOYNJ3ckZNGhkAPANGiRA5pyUlki-aGoHMlXB2UI59jKEx7HaU5Bad8QBkWkWrK17z1jj6ck60KkTISq4kMuJN1ja-Phlp_c1C09fC6rRMA6ZTTj5piax8FNhGNnI3eK3vIVCXHin_E8FQymNLk2o1H1KAqiLxMBF21a8TRazUBsFPH18btG8O4CFfA0oHyQgxaYPQniw_BJVfy5wj5UmnRq8vhebJwoPZXDLohDgunLb8UIhcHfuRk2mXJS5XGhblRxX7Cq68nz3SdhwQaC1yVZX4Dd4odvLSlngvQtRrunSUaxfYXHoc0dN5to7oB_WOgOoV0xntmKBpdmZj2V7Oy_gT_QoSZGKTqn-vqEl8i7ZdPlZftTaZ_DeP8SqkoLb7kc7-CUxL0wVesIJy3hT6TKlfhISz89Ap6cq9yhkT8PMkzq54t3NLET-57NbFWzvdG9Uh5T4xrU8weRdMElbzpWaYQFuQOqbfQXfaPHt98doTU__jtEcRebmYGWKNjp7FdRpad3qFT6Qlzq3TJOqZIgXbKOq1vGJsJHJEGWPPkmAfX0f67aSkMO2Cz-ui3RgediCjSR8l9s07FCUPp4K65XTD44D1pGabCBQOfMwyQuPIxT4qt_4RcGIxMT6Muxm9A3GMjp-9w7oe_tv700l-oq8yW5AAHYPCdHO1kiyUCRoQoQL7J8FcX7rmIsHyIMjlM5MWbw4sHnFH3RIITbn3Ei40erLExSDyApIU6_Dxl60duXRlNuODkLiewhppFBeAkCgWjPfm4ebqlYr8avnuMlZv_mlLvh1xGwZC9cRtEQv8u7jEC1Jebe9hatj-ObLv9t2gtYdJZIK4onFVV89x2GX8-VVg8Tia3I7DKwPoV_a-b32hlxYg20VzQKM2wt4KjaFQJqK5p6teWwKw88SlB2sedKoG8fhKNvlA5s2CpHHzv_86i61HRFjR4F7salBaZiOF5pnMz4kfHimOCdH7nhq0S-rElTFfMI6JHjNzj3nzGRk57yrx__gPjwkksSbzvh7jfze8KcQfL_rbJGu_qB2CApY3kgdQTfAo4U7AjGmxdDucOusNd4jIvgvQoT31gK_i7w7m00]--></g></svg>