<?xml version="1.0" encoding="us-ascii" standalone="no"?><svg xmlns="http://www.w3.org/2000/svg" xmlns:xlink="http://www.w3.org/1999/xlink" contentStyleType="text/css" height="641px" preserveAspectRatio="none" style="width:1222px;height:641px;background:#FFFFFF;" version="1.1" viewBox="0 0 1222 641" width="1222px" zoomAndPan="magnify"><defs/><g><text fill="#000000" font-family="sans-serif" font-size="14" font-weight="bold" lengthAdjust="spacing" textLength="322" x="443" y="24.5332">UUPS-VendingMachine V2 - Use Case Diagram</text><text fill="#000000" font-family="sans-serif" font-size="14" font-weight="bold" lengthAdjust="spacing" textLength="236" x="486" y="42.1426">Admin Management Interface (V2)</text><!--cluster Admin Interface V2--><g id="cluster_Admin Interface V2"><rect fill="none" height="244.5" rx="3.5" ry="3.5" style="stroke:#393939;stroke-width:1.0;" width="1105" x="111" y="218.2188"/><text fill="#000000" font-family="sans-serif" font-size="14" font-weight="bold" lengthAdjust="spacing" textLength="131" x="598" y="234.752">Admin Interface V2</text></g><!--cluster External--><g id="cluster_External"><rect fill="none" height="108" rx="3.5" ry="3.5" style="stroke:#393939;stroke-width:1.0;" width="347" x="7" y="516.7188"/><text fill="#000000" font-family="sans-serif" font-size="14" font-weight="bold" lengthAdjust="spacing" textLength="58" x="151.5" y="533.252">External</text></g><g id="elem_UC7"><ellipse cx="462.1926" cy="273.7573" fill="#F1F1F1" rx="85.6926" ry="19.5385" style="stroke:#181818;stroke-width:0.5;"/><text fill="#000000" font-family="sans-serif" font-size="14" lengthAdjust="spacing" textLength="128" x="398.1926" y="277.4858">Access Admin Panel</text></g><g id="elem_UC1"><ellipse cx="193.7537" cy="418.4695" fill="#F1F1F1" rx="66.7537" ry="15.7507" style="stroke:#181818;stroke-width:0.5;"/><text fill="#000000" font-family="sans-serif" font-size="14" lengthAdjust="spacing" textLength="78" x="151.7537" y="422.9861">Add Product</text></g><g id="elem_UC2"><ellipse cx="370.2427" cy="418.8673" fill="#F1F1F1" rx="73.7427" ry="17.1485" style="stroke:#181818;stroke-width:0.5;"/><text fill="#000000" font-family="sans-serif" font-size="14" lengthAdjust="spacing" textLength="98" x="318.2427" y="423.3839">Update Product</text></g><g id="elem_UC3"><ellipse cx="554.855" cy="418.8897" fill="#F1F1F1" rx="76.355" ry="17.671" style="stroke:#181818;stroke-width:0.5;"/><text fill="#000000" font-family="sans-serif" font-size="14" lengthAdjust="spacing" textLength="105" x="499.6233" y="423.3442">Remove Product</text></g><g id="elem_UC4"><ellipse cx="740.9178" cy="418.6222" fill="#F1F1F1" rx="74.4178" ry="27.9034" style="stroke:#181818;stroke-width:0.5;"/><text fill="#000000" font-family="sans-serif" font-size="14" lengthAdjust="spacing" textLength="89" x="696.4178" y="413.546">View Analytics</text><text fill="#000000" font-family="sans-serif" font-size="14" lengthAdjust="spacing" textLength="70" x="705.9178" y="431.1554">Dashboard</text></g><g id="elem_UC5"><ellipse cx="929.9775" cy="418.5143" fill="#F1F1F1" rx="79.4775" ry="18.2955" style="stroke:#181818;stroke-width:0.5;"/><text fill="#000000" font-family="sans-serif" font-size="14" lengthAdjust="spacing" textLength="113" x="872.256" y="422.5896">Export Sales Data</text></g><g id="elem_UC6"><ellipse cx="1122.0069" cy="418.6201" fill="#F1F1F1" rx="77.5069" ry="17.9014" style="stroke:#181818;stroke-width:0.5;"/><text fill="#000000" font-family="sans-serif" font-size="14" lengthAdjust="spacing" textLength="108" x="1065.8567" y="422.9348">Monitor Revenue</text></g><g id="elem_EXT1"><ellipse cx="273.0183" cy="580.6222" fill="#F1F1F1" rx="64.5183" ry="27.9034" style="stroke:#181818;stroke-width:0.5;"/><text fill="#000000" font-family="sans-serif" font-size="14" lengthAdjust="spacing" textLength="68" x="239.0183" y="575.546">Blockchain</text><text fill="#000000" font-family="sans-serif" font-size="14" lengthAdjust="spacing" textLength="75" x="235.5183" y="593.1554">Transaction</text></g><g id="elem_EXT2"><ellipse cx="98.1249" cy="580.6222" fill="#F1F1F1" rx="75.1249" ry="27.9034" style="stroke:#181818;stroke-width:0.5;"/><text fill="#000000" font-family="sans-serif" font-size="14" lengthAdjust="spacing" textLength="64" x="66.1249" y="575.546">MetaMask</text><text fill="#000000" font-family="sans-serif" font-size="14" lengthAdjust="spacing" textLength="90" x="53.1249" y="593.1554">Authentication</text></g><!--entity Customer--><g id="elem_Customer"><ellipse cx="64" cy="243.2188" fill="#191919" rx="8" ry="8" style="stroke:#191919;stroke-width:0.5;"/><path d="M64,251.2188 L64,278.2188 M51,259.2188 L77,259.2188 M64,278.2188 L51,293.2188 M64,278.2188 L77,293.2188 " fill="none" style="stroke:#191919;stroke-width:0.5;"/><text fill="#191919" font-family="sans-serif" font-size="14" lengthAdjust="spacing" textLength="61" x="33.5" y="309.252">Customer</text></g><!--entity Admin--><g id="elem_Admin"><ellipse cx="106" cy="77.7188" fill="#191919" rx="8" ry="8" style="stroke:#191919;stroke-width:0.5;"/><path d="M106,85.7188 L106,112.7188 M93,93.7188 L119,93.7188 M106,112.7188 L93,127.7188 M106,112.7188 L119,127.7188 " fill="none" style="stroke:#191919;stroke-width:0.5;"/><text fill="#191919" font-family="sans-serif" font-size="14" lengthAdjust="spacing" textLength="39" x="86.5" y="143.752">Admin</text></g><g id="elem_GMN27"><path d="M160.5,65.7188 L160.5,104.2188 L125.55,108.2188 L160.5,112.2188 L160.5,150.4766 A3.5,3.5 0 0 0 164,153.9766 L326,153.9766 A3.5,3.5 0 0 0 329.5,150.4766 L329.5,72.2188 L319.5,62.2188 L164,62.2188 A3.5,3.5 0 0 0 160.5,65.7188 " fill="#FFFACD" style="stroke:#DAA520;stroke-width:1.5;"/><path d="M319.5,62.2188 L319.5,70.4688 A1.75,1.75 0 0 0 321.25,72.2188 L329.5,72.2188 L319.5,62.2188 " fill="#FFFACD" style="stroke:#DAA520;stroke-width:1.5;"/><text fill="#191919" font-family="sans-serif" font-size="13" font-weight="bold" lengthAdjust="spacing" textLength="120" x="166.5" y="80.7139">Admin Capabilities</text><text fill="#191919" font-family="sans-serif" font-size="13" lengthAdjust="spacing" textLength="148" x="166.5" y="97.0654">&#8226; Manage product catalog</text><text fill="#191919" font-family="sans-serif" font-size="13" lengthAdjust="spacing" textLength="128" x="166.5" y="113.417">&#8226; View sales analytics</text><text fill="#191919" font-family="sans-serif" font-size="13" lengthAdjust="spacing" textLength="147" x="166.5" y="129.7686">&#8226; Export business reports</text><text fill="#191919" font-family="sans-serif" font-size="13" lengthAdjust="spacing" textLength="147" x="166.5" y="146.1201">&#8226; Monitor revenue metrics</text></g><g id="elem_GMN30"><path d="M656,530.2188 L656,631.3281 A3.5,3.5 0 0 0 659.5,634.8281 L822.5,634.8281 A3.5,3.5 0 0 0 826,631.3281 L826,536.7188 L816,526.7188 L745,526.7188 L741,446.8588 L737,526.7188 L659.5,526.7188 A3.5,3.5 0 0 0 656,530.2188 " fill="#FFFACD" style="stroke:#DAA520;stroke-width:1.5;"/><path d="M816,526.7188 L816,534.9688 A1.75,1.75 0 0 0 817.75,536.7188 L826,536.7188 L816,526.7188 " fill="#FFFACD" style="stroke:#DAA520;stroke-width:1.5;"/><text fill="#191919" font-family="sans-serif" font-size="13" font-weight="bold" lengthAdjust="spacing" textLength="149" x="662" y="545.2139">V2 Analytics Dashboard</text><text fill="#191919" font-family="sans-serif" font-size="13" lengthAdjust="spacing" textLength="106" x="662" y="561.5654">Real-time metrics:</text><text fill="#191919" font-family="sans-serif" font-size="13" lengthAdjust="spacing" textLength="108" x="662" y="577.917">&#8226; Total sales count</text><text fill="#191919" font-family="sans-serif" font-size="13" lengthAdjust="spacing" textLength="108" x="662" y="594.2686">&#8226; Revenue tracking</text><text fill="#191919" font-family="sans-serif" font-size="13" lengthAdjust="spacing" textLength="129" x="662" y="610.6201">&#8226; Product performance</text><text fill="#191919" font-family="sans-serif" font-size="13" lengthAdjust="spacing" textLength="85" x="662" y="626.9717">&#8226; Sales history</text></g><!--link Admin to Customer--><g id="link_Admin_Customer"><path d="M96.15,147.5487 C89.41,173.7888 84.9836,191.0035 78.2636,217.1935 " fill="none" id="Admin-to-Customer" style="stroke:#191919;stroke-width:1.0;"/><polygon fill="none" points="73.79,234.6288,84.0754,218.6848,72.4519,215.7023,73.79,234.6288" style="stroke:#191919;stroke-width:1.0;"/><text fill="#000000" font-family="sans-serif" font-size="13" lengthAdjust="spacing" textLength="42" x="88" y="198.7139">inherits</text></g><!--link Admin to UC7--><g id="link_Admin_UC7"><path d="M125.87,138.0587 C130.94,143.9788 136.74,149.7588 143,154.2188 C222.75,211.0487 327.1131,242.5793 394.9131,258.7193 " fill="none" id="Admin-to-UC7" style="stroke:#191919;stroke-width:1.0;"/><polygon fill="#191919" points="400.75,260.1088,392.921,254.1333,395.8859,258.9508,391.0683,261.9158,400.75,260.1088" style="stroke:#191919;stroke-width:1.0;"/><text fill="#000000" font-family="sans-serif" font-size="13" lengthAdjust="spacing" textLength="130" x="224" y="198.7139">accesses admin panel</text></g><!--link UC7 to UC1--><g id="link_UC7_UC1"><path d="M408.75,289.0588 C371.2,300.4788 320.57,318.5488 280,342.7188 C251.58,359.6588 227.8077,382.0925 211.8177,398.6525 " fill="none" id="UC7-to-UC1" style="stroke:#191919;stroke-width:1.0;"/><polygon fill="#191919" points="207.65,402.9688,216.7791,399.2728,211.1231,399.3719,211.024,393.7159,207.65,402.9688" style="stroke:#191919;stroke-width:1.0;"/><text fill="#000000" font-family="sans-serif" font-size="13" lengthAdjust="spacing" textLength="97" x="281" y="357.2139">creates products</text></g><!--link UC7 to UC2--><g id="link_UC7_UC2"><path d="M440.55,292.8088 C426.56,305.5588 408.77,323.6888 397,342.7188 C385.42,361.4288 379.3196,380.0218 375.2096,395.8318 " fill="none" id="UC7-to-UC2" style="stroke:#191919;stroke-width:1.0;"/><polygon fill="#191919" points="373.7,401.6387,379.8357,393.9347,374.958,396.7996,372.0931,391.9219,373.7,401.6387" style="stroke:#191919;stroke-width:1.0;"/><text fill="#000000" font-family="sans-serif" font-size="13" lengthAdjust="spacing" textLength="102" x="398" y="357.2139">modifies products</text></g><!--link UC7 to UC3--><g id="link_UC7_UC3"><path d="M473.97,293.1188 C492.22,321.1788 523.4485,369.2091 540.9585,396.1291 " fill="none" id="UC7-to-UC3" style="stroke:#191919;stroke-width:1.0;"/><polygon fill="#191919" points="544.23,401.1588,542.6758,391.4333,541.5037,396.9674,535.9696,395.7953,544.23,401.1588" style="stroke:#191919;stroke-width:1.0;"/><text fill="#000000" font-family="sans-serif" font-size="13" lengthAdjust="spacing" textLength="96" x="517" y="357.2139">deletes products</text></g><!--link UC7 to UC4--><g id="link_UC7_UC4"><path d="M504.63,290.6688 C537.36,303.4388 583.36,322.4988 622,342.7188 C651.43,358.1188 678.1803,374.9866 701.4803,390.5466 " fill="none" id="UC7-to-UC4" style="stroke:#191919;stroke-width:1.0;"/><polygon fill="#191919" points="706.47,393.8787,701.2069,385.5541,702.3119,391.102,696.7641,392.207,706.47,393.8787" style="stroke:#191919;stroke-width:1.0;"/><text fill="#000000" font-family="sans-serif" font-size="13" lengthAdjust="spacing" textLength="95" x="653" y="357.2139">views dashboard</text></g><!--link UC7 to UC5--><g id="link_UC7_UC5"><path d="M527.68,286.2888 C588.09,297.7688 679.74,317.2988 757,342.7188 C807.53,359.3388 858.2207,382.4619 892.4507,399.0519 " fill="none" id="UC7-to-UC5" style="stroke:#191919;stroke-width:1.0;"/><polygon fill="#191919" points="897.85,401.6688,891.4956,394.144,893.3506,399.4881,888.0065,401.343,897.85,401.6688" style="stroke:#191919;stroke-width:1.0;"/><text fill="#000000" font-family="sans-serif" font-size="13" lengthAdjust="spacing" textLength="87" x="806" y="357.2139">exports reports</text></g><!--link UC7 to UC6--><g id="link_UC7_UC6"><path d="M538.71,282.4488 C627.15,292.3088 776.46,311.8688 902,342.7188 C967.64,358.8488 1035.9781,383.8038 1079.2481,400.6338 " fill="none" id="UC7-to-UC6" style="stroke:#191919;stroke-width:1.0;"/><polygon fill="#191919" points="1084.84,402.8088,1077.9021,395.8183,1080.1801,400.9963,1075.0021,403.2742,1084.84,402.8088" style="stroke:#191919;stroke-width:1.0;"/><text fill="#000000" font-family="sans-serif" font-size="13" lengthAdjust="spacing" textLength="98" x="964" y="357.2139">monitors revenue</text></g><!--link UC7 to EXT2--><g id="link_UC7_EXT2"><path d="M390.69,284.5588 C284.7,300.8188 93.67,336.9188 53,390.7188 C16.09,439.5588 50.8829,509.1033 76.1629,548.3833 " fill="none" id="UC7-to-EXT2" style="stroke:#191919;stroke-width:1.0;stroke-dasharray:7.0,7.0;"/><polygon fill="#191919" points="79.41,553.4288,77.9029,543.6959,76.704,549.2242,71.1757,548.0254,79.41,553.4288" style="stroke:#191919;stroke-width:1.0;"/><text fill="#000000" font-family="sans-serif" font-size="13" lengthAdjust="spacing" textLength="55" x="54" y="424.2139">&#171;include&#187;</text></g><!--link UC1 to EXT1--><g id="link_UC1_EXT1"><path d="M201.14,434.8088 C208.53,450.3688 220.44,475.2988 231,496.7188 C240.36,515.6888 248.4161,531.6327 256.7061,547.9027 " fill="none" id="UC1-to-EXT1" style="stroke:#191919;stroke-width:1.0;stroke-dasharray:7.0,7.0;"/><polygon fill="#191919" points="259.43,553.2488,258.9081,543.4137,257.16,548.7937,251.7801,547.0457,259.43,553.2488" style="stroke:#191919;stroke-width:1.0;"/><text fill="#000000" font-family="sans-serif" font-size="13" lengthAdjust="spacing" textLength="55" x="232" y="493.2139">&#171;include&#187;</text></g><!--link UC2 to EXT1--><g id="link_UC2_EXT1"><path d="M360.34,435.6488 C343.67,463.1488 312.4208,514.6982 292.1208,548.1782 " fill="none" id="UC2-to-EXT1" style="stroke:#191919;stroke-width:1.0;stroke-dasharray:7.0,7.0;"/><polygon fill="#191919" points="289.01,553.3088,297.0966,547.6868,291.6024,549.0333,290.2559,543.539,289.01,553.3088" style="stroke:#191919;stroke-width:1.0;"/><text fill="#000000" font-family="sans-serif" font-size="13" lengthAdjust="spacing" textLength="55" x="334" y="493.2139">&#171;include&#187;</text></g><!--link UC3 to EXT1--><g id="link_UC3_EXT1"><path d="M527.7,435.2088 C477.25,463.8288 374.5088,522.1284 316.6688,554.9384 " fill="none" id="UC3-to-EXT1" style="stroke:#191919;stroke-width:1.0;stroke-dasharray:7.0,7.0;"/><polygon fill="#191919" points="311.45,557.8988,321.2518,556.9374,315.799,555.4318,317.3046,549.9789,311.45,557.8988" style="stroke:#191919;stroke-width:1.0;"/><text fill="#000000" font-family="sans-serif" font-size="13" lengthAdjust="spacing" textLength="55" x="448" y="493.2139">&#171;include&#187;</text></g><!--SRC=[TLJRJXin47tVhvYc3q2aeB9SAY4KAIGWyH090OdwmCl4EybQsRLNjZSGjPNwBVsqVad7Nc-oq2952VWSZsVcd9bFBgUIe4HZ4xkMgaA39InGh5T6roeRwq8RUCcbemwkj2FudW1SloD-lhsz7Oqd7j4c8nDF9wFHUVeb-PauwGg2sUp-SJ0dbKcrcgB8fIAOfp20cIKO8tzD9AxueMSroagfO8eALvodSd2d79ab2eB3UNgK90Sm4avpzkX_e3UkhTCbcHwWXVQV5WpH0XB-yhSVjzOHL-nhGBFb93Pad1HOG85RNRl4a72eLfntSx-JmZpjXJRmvw09oTa8iXOEdQwE-BYs97n1lNZUaEvHKH7oc8s_jlVlZSvguRh57fOoomew2enzg2nhoJ76IHUULHcoF6yPQPVnGANUl6USxkfGM6ov0nOcQFE5HfF1uK8xxkIRYkQINlRaPxLZnu1dNVBDQwMDWqSioCTr64ddNT9KA-brUg0DgPeYvO9zmqBTl7BN-RMecEtgqcAD6hjuruKMQv6ZLC_goQ2oR0Ef6mFSV7jwqxKfEPoYNRFbQfu9vItG9QTD5dSg9oFvNK59e-LWy6EuCnfSWcmODbWpMi87ibrhBGlzihi_z2xWcnWimlt105JU98c76ie9KuGXrjP2rKXdEt3ASAapkPGTd2NTCqwPaL517mGuOtZ3cbh8MYKxw3cZ54IqO2ZyTj2By7XGpyD1Fj-02LKyvgG49nNenyV3q4tcNrr99Oewe-4myTL5wEGVAFqOElq8IiAACdALEz3BEExzVjFoCLQua8Lqd5M_d_pvzJiENTiMOEsnqAi01P_RO5nitHw0wEb5RNc1sNrRGhnevTWBACaPVu-x4RPdJB0PAv-XdvT-dxVWVyQFStmWB0PEbhj8b-6P9yrvnkG4hp0NJkFyW3Eyddd7XiDslLIykxGfWuFzUJEIkMG3c-q-lxy0]--></g></svg>