<?xml version="1.0" encoding="us-ascii" standalone="no"?><svg xmlns="http://www.w3.org/2000/svg" xmlns:xlink="http://www.w3.org/1999/xlink" contentStyleType="text/css" height="2431px" preserveAspectRatio="none" style="width:1491px;height:2431px;background:#FFFFFF;" version="1.1" viewBox="0 0 1491 2431" width="1491px" zoomAndPan="magnify"><defs/><g><text fill="#000000" font-family="sans-serif" font-size="14" font-weight="bold" lengthAdjust="spacing" textLength="327" x="578" y="29.5332">UUPS-VendingMachine V2 - Sequence Diagram</text><text fill="#000000" font-family="sans-serif" font-size="14" font-weight="bold" lengthAdjust="spacing" textLength="181" x="651" y="47.1426">Upgrade Process V1 to V2</text><rect fill="#FFFFFF" height="1512.1172" style="stroke:#393939;stroke-width:1.0;" width="10" x="288.5" y="223.8828"/><rect fill="#FFFFFF" height="485.4609" style="stroke:#393939;stroke-width:1.0;" width="10" x="579.5" y="537.3984"/><rect fill="#FFFFFF" height="257.1641" style="stroke:#393939;stroke-width:1.0;" width="10" x="579.5" y="1105.9141"/><rect fill="#FFFFFF" height="91.0547" style="stroke:#393939;stroke-width:1.0;" width="10" x="579.5" y="1429.7813"/><rect fill="#FFFFFF" height="151.7578" style="stroke:#393939;stroke-width:1.0;" width="10" x="579.5" y="1863.4063"/><rect fill="#FFFFFF" height="151.7578" style="stroke:#393939;stroke-width:1.0;" width="10" x="579.5" y="2061.8672"/><rect fill="#FFFFFF" height="99.0547" style="stroke:#393939;stroke-width:1.0;" width="10" x="812.5" y="584.1016"/><rect fill="#FFFFFF" height="1295.6563" style="stroke:#393939;stroke-width:1.0;" width="10" x="983.5" y="440.3438"/><rect fill="#FFFFFF" height="196.4609" style="stroke:#393939;stroke-width:1.0;" width="10" x="988.5" y="1136.2656"/><rect fill="#FFFFFF" height="60.7031" style="stroke:#393939;stroke-width:1.0;" width="10" x="1361" y="409.9922"/><rect fill="none" height="155.5938" rx="3.5" ry="3.5" style="stroke:#393939;stroke-width:1.0;" width="890" x="10" y="642.4531"/><line style="stroke:#393939;stroke-width:0.5;stroke-dasharray:5.0,5.0;" x1="72" x2="72" y1="138.8281" y2="2349.7344"/><line style="stroke:#393939;stroke-width:0.5;stroke-dasharray:5.0,5.0;" x1="293.5" x2="293.5" y1="138.8281" y2="2349.7344"/><line style="stroke:#393939;stroke-width:0.5;stroke-dasharray:5.0,5.0;" x1="584" x2="584" y1="138.8281" y2="2349.7344"/><line style="stroke:#393939;stroke-width:0.5;stroke-dasharray:5.0,5.0;" x1="817" x2="817" y1="138.8281" y2="2349.7344"/><line style="stroke:#393939;stroke-width:0.5;stroke-dasharray:5.0,5.0;" x1="988" x2="988" y1="138.8281" y2="2349.7344"/><line style="stroke:#393939;stroke-width:0.5;stroke-dasharray:5.0,5.0;" x1="1234.5" x2="1234.5" y1="138.8281" y2="2349.7344"/><line style="stroke:#393939;stroke-width:0.5;stroke-dasharray:5.0,5.0;" x1="1365.5" x2="1365.5" y1="138.8281" y2="2349.7344"/><text fill="#191919" font-family="sans-serif" font-size="14" lengthAdjust="spacing" textLength="99" x="20" y="135.752">Contract Owner</text><ellipse cx="72.5" cy="69.7188" fill="#191919" rx="8" ry="8" style="stroke:#191919;stroke-width:0.5;"/><path d="M72.5,77.7188 L72.5,104.7188 M59.5,85.7188 L85.5,85.7188 M72.5,104.7188 L59.5,119.7188 M72.5,104.7188 L85.5,119.7188 " fill="none" style="stroke:#191919;stroke-width:0.5;"/><text fill="#191919" font-family="sans-serif" font-size="14" lengthAdjust="spacing" textLength="99" x="20" y="2363.2676">Contract Owner</text><ellipse cx="72.5" cy="2374.8438" fill="#191919" rx="8" ry="8" style="stroke:#191919;stroke-width:0.5;"/><path d="M72.5,2382.8438 L72.5,2409.8438 M59.5,2390.8438 L85.5,2390.8438 M72.5,2409.8438 L59.5,2424.8438 M72.5,2409.8438 L85.5,2424.8438 " fill="none" style="stroke:#191919;stroke-width:0.5;"/><rect fill="#E55756" height="49.2188" rx="3.5" ry="3.5" style="stroke:#191919;stroke-width:1.5;" width="104" x="241.5" y="88.6094"/><text fill="#F9F9F9" font-family="sans-serif" font-size="14" lengthAdjust="spacing" textLength="90" x="248.5" y="110.1426">Hardhat Script</text><text fill="#F9F9F9" font-family="sans-serif" font-size="14" lengthAdjust="spacing" textLength="86" x="250.5" y="127.752">(deploy-v2.js)</text><rect fill="#E55756" height="49.2188" rx="3.5" ry="3.5" style="stroke:#191919;stroke-width:1.5;" width="104" x="241.5" y="2348.7344"/><text fill="#F9F9F9" font-family="sans-serif" font-size="14" lengthAdjust="spacing" textLength="90" x="248.5" y="2370.2676">Hardhat Script</text><text fill="#F9F9F9" font-family="sans-serif" font-size="14" lengthAdjust="spacing" textLength="86" x="250.5" y="2387.877">(deploy-v2.js)</text><rect fill="#E55756" height="49.2188" rx="3.5" ry="3.5" style="stroke:#191919;stroke-width:1.5;" width="89" x="540" y="88.6094"/><text fill="#F9F9F9" font-family="sans-serif" font-size="14" lengthAdjust="spacing" textLength="75" x="547" y="110.1426">UUPS Proxy</text><text fill="#F9F9F9" font-family="sans-serif" font-size="14" lengthAdjust="spacing" textLength="71" x="549" y="127.752">(ERC1967)</text><rect fill="#E55756" height="49.2188" rx="3.5" ry="3.5" style="stroke:#191919;stroke-width:1.5;" width="89" x="540" y="2348.7344"/><text fill="#F9F9F9" font-family="sans-serif" font-size="14" lengthAdjust="spacing" textLength="75" x="547" y="2370.2676">UUPS Proxy</text><text fill="#F9F9F9" font-family="sans-serif" font-size="14" lengthAdjust="spacing" textLength="71" x="549" y="2387.877">(ERC1967)</text><rect fill="#E55756" height="49.2188" rx="3.5" ry="3.5" style="stroke:#191919;stroke-width:1.5;" width="145" x="745" y="88.6094"/><text fill="#F9F9F9" font-family="sans-serif" font-size="14" lengthAdjust="spacing" textLength="122" x="756.5" y="110.1426">VendingMachineV1</text><text fill="#F9F9F9" font-family="sans-serif" font-size="14" lengthAdjust="spacing" textLength="131" x="752" y="127.752">(Old Implementation)</text><rect fill="#E55756" height="49.2188" rx="3.5" ry="3.5" style="stroke:#191919;stroke-width:1.5;" width="145" x="745" y="2348.7344"/><text fill="#F9F9F9" font-family="sans-serif" font-size="14" lengthAdjust="spacing" textLength="122" x="756.5" y="2370.2676">VendingMachineV1</text><text fill="#F9F9F9" font-family="sans-serif" font-size="14" lengthAdjust="spacing" textLength="131" x="752" y="2387.877">(Old Implementation)</text><rect fill="#E55756" height="49.2188" rx="3.5" ry="3.5" style="stroke:#191919;stroke-width:1.5;" width="149" x="914" y="88.6094"/><text fill="#F9F9F9" font-family="sans-serif" font-size="14" lengthAdjust="spacing" textLength="122" x="927.5" y="110.1426">VendingMachineV2</text><text fill="#F9F9F9" font-family="sans-serif" font-size="14" lengthAdjust="spacing" textLength="135" x="921" y="127.752">(New Implementation)</text><rect fill="#E55756" height="49.2188" rx="3.5" ry="3.5" style="stroke:#191919;stroke-width:1.5;" width="149" x="914" y="2348.7344"/><text fill="#F9F9F9" font-family="sans-serif" font-size="14" lengthAdjust="spacing" textLength="122" x="927.5" y="2370.2676">VendingMachineV2</text><text fill="#F9F9F9" font-family="sans-serif" font-size="14" lengthAdjust="spacing" textLength="135" x="921" y="2387.877">(New Implementation)</text><text fill="#191919" font-family="sans-serif" font-size="14" lengthAdjust="spacing" textLength="108" x="1177.5" y="135.752">Contract Storage</text><path d="M1216.5,85.2188 C1216.5,75.2188 1234.5,75.2188 1234.5,75.2188 C1234.5,75.2188 1252.5,75.2188 1252.5,85.2188 L1252.5,111.2188 C1252.5,121.2188 1234.5,121.2188 1234.5,121.2188 C1234.5,121.2188 1216.5,121.2188 1216.5,111.2188 L1216.5,85.2188 " fill="#A4DBD8" style="stroke:#191919;stroke-width:1.5;"/><path d="M1216.5,85.2188 C1216.5,95.2188 1234.5,95.2188 1234.5,95.2188 C1234.5,95.2188 1252.5,95.2188 1252.5,85.2188 " fill="none" style="stroke:#191919;stroke-width:1.5;"/><text fill="#191919" font-family="sans-serif" font-size="14" lengthAdjust="spacing" textLength="108" x="1177.5" y="2363.2676">Contract Storage</text><path d="M1216.5,2376.3438 C1216.5,2366.3438 1234.5,2366.3438 1234.5,2366.3438 C1234.5,2366.3438 1252.5,2366.3438 1252.5,2376.3438 L1252.5,2402.3438 C1252.5,2412.3438 1234.5,2412.3438 1234.5,2412.3438 C1234.5,2412.3438 1216.5,2412.3438 1216.5,2402.3438 L1216.5,2376.3438 " fill="#A4DBD8" style="stroke:#191919;stroke-width:1.5;"/><path d="M1216.5,2376.3438 C1216.5,2386.3438 1234.5,2386.3438 1234.5,2386.3438 C1234.5,2386.3438 1252.5,2386.3438 1252.5,2376.3438 " fill="none" style="stroke:#191919;stroke-width:1.5;"/><rect fill="#E55756" height="31.6094" rx="3.5" ry="3.5" style="stroke:#191919;stroke-width:1.5;" width="129" x="1301.5" y="106.2188"/><text fill="#F9F9F9" font-family="sans-serif" font-size="14" lengthAdjust="spacing" textLength="115" x="1308.5" y="127.752">Ethereum Network</text><rect fill="#E55756" height="31.6094" rx="3.5" ry="3.5" style="stroke:#191919;stroke-width:1.5;" width="129" x="1301.5" y="2348.7344"/><text fill="#F9F9F9" font-family="sans-serif" font-size="14" lengthAdjust="spacing" textLength="115" x="1308.5" y="2370.2676">Ethereum Network</text><rect fill="#FFFFFF" height="1512.1172" style="stroke:#393939;stroke-width:1.0;" width="10" x="288.5" y="223.8828"/><rect fill="#FFFFFF" height="485.4609" style="stroke:#393939;stroke-width:1.0;" width="10" x="579.5" y="537.3984"/><rect fill="#FFFFFF" height="257.1641" style="stroke:#393939;stroke-width:1.0;" width="10" x="579.5" y="1105.9141"/><rect fill="#FFFFFF" height="91.0547" style="stroke:#393939;stroke-width:1.0;" width="10" x="579.5" y="1429.7813"/><rect fill="#FFFFFF" height="151.7578" style="stroke:#393939;stroke-width:1.0;" width="10" x="579.5" y="1863.4063"/><rect fill="#FFFFFF" height="151.7578" style="stroke:#393939;stroke-width:1.0;" width="10" x="579.5" y="2061.8672"/><rect fill="#FFFFFF" height="99.0547" style="stroke:#393939;stroke-width:1.0;" width="10" x="812.5" y="584.1016"/><rect fill="#FFFFFF" height="1295.6563" style="stroke:#393939;stroke-width:1.0;" width="10" x="983.5" y="440.3438"/><rect fill="#FFFFFF" height="196.4609" style="stroke:#393939;stroke-width:1.0;" width="10" x="988.5" y="1136.2656"/><rect fill="#FFFFFF" height="60.7031" style="stroke:#393939;stroke-width:1.0;" width="10" x="1361" y="409.9922"/><path d="M16,157.3281 L16,176.3281 A3.5,3.5 0 0 0 19.5,179.8281 L1417.5,179.8281 A3.5,3.5 0 0 0 1421,176.3281 L1421,163.8281 L1411,153.8281 L19.5,153.8281 A3.5,3.5 0 0 0 16,157.3281 " fill="#E5E5E5" style="stroke:#191919;stroke-width:1.5;"/><path d="M1411,153.8281 L1411,162.0781 A1.75,1.75 0 0 0 1412.75,163.8281 L1421,163.8281 L1411,153.8281 " fill="#E5E5E5" style="stroke:#191919;stroke-width:1.5;"/><text fill="#191919" font-family="sans-serif" font-size="13" font-weight="bold" lengthAdjust="spacing" textLength="184" x="622.25" y="172.3232">Pre-Upgrade State: V1 Active</text><polygon fill="#191919" points="276.5,219.8828,286.5,223.8828,276.5,227.8828,280.5,223.8828" style="stroke:#191919;stroke-width:1.0;"/><line style="stroke:#191919;stroke-width:1.0;" x1="72.5" x2="282.5" y1="223.8828" y2="223.8828"/><text fill="#000000" font-family="sans-serif" font-size="13" lengthAdjust="spacing" textLength="159" x="79.5" y="202.6748">Execute upgrade command</text><text fill="#000000" font-family="sans-serif" font-size="13" lengthAdjust="spacing" textLength="162" x="79.5" y="219.0264">npx hardhat run deploy-v2.js</text><line style="stroke:#191919;stroke-width:1.0;" x1="298.5" x2="340.5" y1="270.5859" y2="270.5859"/><line style="stroke:#191919;stroke-width:1.0;" x1="340.5" x2="340.5" y1="270.5859" y2="283.5859"/><line style="stroke:#191919;stroke-width:1.0;" x1="299.5" x2="340.5" y1="283.5859" y2="283.5859"/><polygon fill="#191919" points="309.5,279.5859,299.5,283.5859,309.5,287.5859,305.5,283.5859" style="stroke:#191919;stroke-width:1.0;"/><text fill="#000000" font-family="sans-serif" font-size="13" lengthAdjust="spacing" textLength="163" x="305.5" y="249.3779">Load existing proxy address</text><text fill="#000000" font-family="sans-serif" font-size="13" lengthAdjust="spacing" textLength="173" x="305.5" y="265.7295">from deployed-addresses.json</text><line style="stroke:#191919;stroke-width:1.0;" x1="298.5" x2="340.5" y1="330.2891" y2="330.2891"/><line style="stroke:#191919;stroke-width:1.0;" x1="340.5" x2="340.5" y1="330.2891" y2="343.2891"/><line style="stroke:#191919;stroke-width:1.0;" x1="299.5" x2="340.5" y1="343.2891" y2="343.2891"/><polygon fill="#191919" points="309.5,339.2891,299.5,343.2891,309.5,347.2891,305.5,343.2891" style="stroke:#191919;stroke-width:1.0;"/><text fill="#000000" font-family="sans-serif" font-size="13" lengthAdjust="spacing" textLength="159" x="305.5" y="309.0811">Compile V2 implementation</text><text fill="#000000" font-family="sans-serif" font-size="13" lengthAdjust="spacing" textLength="111" x="305.5" y="325.4326">solidity compilation</text><path d="M303,359.7891 L303,378.7891 A3.5,3.5 0 0 0 306.5,382.2891 L543.5,382.2891 A3.5,3.5 0 0 0 547,378.7891 L547,366.2891 L537,356.2891 L306.5,356.2891 A3.5,3.5 0 0 0 303,359.7891 " fill="#E5E5E5" style="stroke:#191919;stroke-width:1.5;"/><path d="M537,356.2891 L537,364.5391 A1.75,1.75 0 0 0 538.75,366.2891 L547,366.2891 L537,356.2891 " fill="#E5E5E5" style="stroke:#191919;stroke-width:1.5;"/><text fill="#191919" font-family="sans-serif" font-size="13" font-weight="bold" lengthAdjust="spacing" textLength="223" x="309" y="374.7842">Step 1: Prepare V2 Implementation</text><polygon fill="#191919" points="1349,405.9922,1359,409.9922,1349,413.9922,1353,409.9922" style="stroke:#191919;stroke-width:1.0;"/><line style="stroke:#191919;stroke-width:1.0;" x1="298.5" x2="1355" y1="409.9922" y2="409.9922"/><text fill="#000000" font-family="sans-serif" font-size="13" lengthAdjust="spacing" textLength="203" x="305.5" y="405.1357">Deploy V2 implementation contract</text><polygon fill="#191919" points="1004.5,436.3438,994.5,440.3438,1004.5,444.3438,1000.5,440.3438" style="stroke:#191919;stroke-width:1.0;"/><line style="stroke:#191919;stroke-width:1.0;" x1="998.5" x2="1360" y1="440.3438" y2="440.3438"/><text fill="#000000" font-family="sans-serif" font-size="13" lengthAdjust="spacing" textLength="169" x="1010.5" y="435.4873">Create new contract instance</text><polygon fill="#191919" points="309.5,466.6953,299.5,470.6953,309.5,474.6953,305.5,470.6953" style="stroke:#191919;stroke-width:1.0;"/><line style="stroke:#191919;stroke-width:1.0;stroke-dasharray:2.0,2.0;" x1="303.5" x2="1365" y1="470.6953" y2="470.6953"/><text fill="#000000" font-family="sans-serif" font-size="13" lengthAdjust="spacing" textLength="200" x="315.5" y="465.8389">Return V2 implementation address</text><path d="M232,487.1953 L232,506.1953 A3.5,3.5 0 0 0 235.5,509.6953 L1044.5,509.6953 A3.5,3.5 0 0 0 1048,506.1953 L1048,493.6953 L1038,483.6953 L235.5,483.6953 A3.5,3.5 0 0 0 232,487.1953 " fill="#E5E5E5" style="stroke:#191919;stroke-width:1.5;"/><path d="M1038,483.6953 L1038,491.9453 A1.75,1.75 0 0 0 1039.75,493.6953 L1048,493.6953 L1038,483.6953 " fill="#E5E5E5" style="stroke:#191919;stroke-width:1.5;"/><text fill="#191919" font-family="sans-serif" font-size="13" font-weight="bold" lengthAdjust="spacing" textLength="234" x="518.75" y="502.1904">Step 2: Upgrade Authorization Check</text><polygon fill="#191919" points="567.5,533.3984,577.5,537.3984,567.5,541.3984,571.5,537.3984" style="stroke:#191919;stroke-width:1.0;"/><line style="stroke:#191919;stroke-width:1.0;" x1="298.5" x2="573.5" y1="537.3984" y2="537.3984"/><text fill="#000000" font-family="sans-serif" font-size="13" lengthAdjust="spacing" textLength="262" x="305.5" y="532.542">Call upgradeProxy(proxyAddress, V2Factory)</text><polygon fill="#191919" points="800.5,580.1016,810.5,584.1016,800.5,588.1016,804.5,584.1016" style="stroke:#191919;stroke-width:1.0;"/><line style="stroke:#191919;stroke-width:1.0;" x1="589.5" x2="806.5" y1="584.1016" y2="584.1016"/><text fill="#000000" font-family="sans-serif" font-size="13" lengthAdjust="spacing" textLength="204" x="596.5" y="562.8936">Check _authorizeUpgrade(newImpl)</text><text fill="#000000" font-family="sans-serif" font-size="13" lengthAdjust="spacing" textLength="96" x="596.5" y="579.2451">[via delegatecall]</text><line style="stroke:#191919;stroke-width:1.0;" x1="822.5" x2="864.5" y1="614.4531" y2="614.4531"/><line style="stroke:#191919;stroke-width:1.0;" x1="864.5" x2="864.5" y1="614.4531" y2="627.4531"/><line style="stroke:#191919;stroke-width:1.0;" x1="823.5" x2="864.5" y1="627.4531" y2="627.4531"/><polygon fill="#191919" points="833.5,623.4531,823.5,627.4531,833.5,631.4531,829.5,627.4531" style="stroke:#191919;stroke-width:1.0;"/><text fill="#000000" font-family="sans-serif" font-size="13" lengthAdjust="spacing" textLength="147" x="829.5" y="609.5967">Verify onlyOwner modifier</text><path d="M13.5,642.4531 L71,642.4531 L71,650.8047 L61,660.8047 L10,660.8047 L10,645.9531 A3.5,3.5 0 0 1 13.5,642.4531 " fill="#EEEEEE" style="stroke:#393939;stroke-width:1.5;"/><rect fill="none" height="155.5938" rx="3.5" ry="3.5" style="stroke:#393939;stroke-width:1.0;" width="890" x="10" y="642.4531"/><text fill="#191919" font-family="sans-serif" font-size="13" font-weight="bold" lengthAdjust="spacing" textLength="16" x="25" y="656.9482">alt</text><text fill="#393939" font-family="sans-serif" font-size="11" font-weight="bold" lengthAdjust="spacing" textLength="107" x="86" y="655.8721">[Owner authorized]</text><polygon fill="#191919" points="600.5,679.1563,590.5,683.1563,600.5,687.1563,596.5,683.1563" style="stroke:#191919;stroke-width:1.0;"/><line style="stroke:#191919;stroke-width:1.0;stroke-dasharray:2.0,2.0;" x1="594.5" x2="816.5" y1="683.1563" y2="683.1563"/><text fill="#000000" font-family="sans-serif" font-size="13" lengthAdjust="spacing" textLength="123" x="606.5" y="678.2998">Authorization granted</text><line style="stroke:#393939;stroke-width:1.0;stroke-dasharray:2.0,2.0;" x1="10" x2="900" y1="692.1563" y2="692.1563"/><text fill="#393939" font-family="sans-serif" font-size="11" font-weight="bold" lengthAdjust="spacing" textLength="88" x="15" y="703.5752">[Not authorized]</text><polygon fill="#191919" points="600.5,725.3438,590.5,729.3438,600.5,733.3438,596.5,729.3438" style="stroke:#191919;stroke-width:1.0;"/><line style="stroke:#191919;stroke-width:1.0;stroke-dasharray:2.0,2.0;" x1="594.5" x2="816.5" y1="729.3438" y2="729.3438"/><text fill="#000000" font-family="sans-serif" font-size="13" lengthAdjust="spacing" textLength="203" x="606.5" y="724.4873">Revert: "Ownable: caller not owner"</text><polygon fill="#191919" points="309.5,755.6953,299.5,759.6953,309.5,763.6953,305.5,759.6953" style="stroke:#191919;stroke-width:1.0;"/><line style="stroke:#191919;stroke-width:1.0;stroke-dasharray:2.0,2.0;" x1="303.5" x2="578.5" y1="759.6953" y2="759.6953"/><text fill="#000000" font-family="sans-serif" font-size="13" lengthAdjust="spacing" textLength="116" x="315.5" y="754.8389">Transaction reverted</text><polygon fill="#191919" points="83.5,786.0469,73.5,790.0469,83.5,794.0469,79.5,790.0469" style="stroke:#191919;stroke-width:1.0;"/><line style="stroke:#191919;stroke-width:1.0;stroke-dasharray:2.0,2.0;" x1="77.5" x2="287.5" y1="790.0469" y2="790.0469"/><text fill="#000000" font-family="sans-serif" font-size="13" lengthAdjust="spacing" textLength="82" x="89.5" y="785.1904">Upgrade failed</text><path d="M536,813.5469 L536,832.5469 A3.5,3.5 0 0 0 539.5,836.0469 L1278.5,836.0469 A3.5,3.5 0 0 0 1282,832.5469 L1282,820.0469 L1272,810.0469 L539.5,810.0469 A3.5,3.5 0 0 0 536,813.5469 " fill="#E5E5E5" style="stroke:#191919;stroke-width:1.5;"/><path d="M1272,810.0469 L1272,818.2969 A1.75,1.75 0 0 0 1273.75,820.0469 L1282,820.0469 L1272,810.0469 " fill="#E5E5E5" style="stroke:#191919;stroke-width:1.5;"/><text fill="#191919" font-family="sans-serif" font-size="13" font-weight="bold" lengthAdjust="spacing" textLength="195" x="807.25" y="828.542">Step 3: Implementation Switch</text><line style="stroke:#191919;stroke-width:1.0;" x1="589.5" x2="631.5" y1="880.1016" y2="880.1016"/><line style="stroke:#191919;stroke-width:1.0;" x1="631.5" x2="631.5" y1="880.1016" y2="893.1016"/><line style="stroke:#191919;stroke-width:1.0;" x1="590.5" x2="631.5" y1="893.1016" y2="893.1016"/><polygon fill="#191919" points="600.5,889.1016,590.5,893.1016,600.5,897.1016,596.5,893.1016" style="stroke:#191919;stroke-width:1.0;"/><text fill="#000000" font-family="sans-serif" font-size="13" lengthAdjust="spacing" textLength="205" x="596.5" y="858.8936">Update _IMPLEMENTATION_SLOT</text><text fill="#000000" font-family="sans-serif" font-size="13" lengthAdjust="spacing" textLength="81" x="596.5" y="875.2451">to V2 address</text><polygon fill="#191919" points="1222.5,935.8047,1232.5,939.8047,1222.5,943.8047,1226.5,939.8047" style="stroke:#191919;stroke-width:1.0;"/><line style="stroke:#191919;stroke-width:1.0;" x1="589.5" x2="1228.5" y1="939.8047" y2="939.8047"/><text fill="#000000" font-family="sans-serif" font-size="13" lengthAdjust="spacing" textLength="145" x="596.5" y="918.5967">Preserve all existing data</text><text fill="#000000" font-family="sans-serif" font-size="13" lengthAdjust="spacing" textLength="148" x="596.5" y="934.9482">(products, balances, etc.)</text><path d="M1239,956.3047 L1239,991.3047 A3.5,3.5 0 0 0 1242.5,994.8047 L1475.5,994.8047 A3.5,3.5 0 0 0 1479,991.3047 L1479,962.8047 L1469,952.8047 L1242.5,952.8047 A3.5,3.5 0 0 0 1239,956.3047 " fill="#E5E5E5" style="stroke:#191919;stroke-width:1.5;"/><path d="M1469,952.8047 L1469,961.0547 A1.75,1.75 0 0 0 1470.75,962.8047 L1479,962.8047 L1469,952.8047 " fill="#E5E5E5" style="stroke:#191919;stroke-width:1.5;"/><text fill="#191919" font-family="sans-serif" font-size="13" font-weight="bold" lengthAdjust="spacing" textLength="219" x="1245" y="971.2998">Critical: No data migration needed</text><text fill="#191919" font-family="sans-serif" font-size="13" lengthAdjust="spacing" textLength="143" x="1245" y="987.6514">Storage layout preserved</text><polygon fill="#191919" points="309.5,1018.8594,299.5,1022.8594,309.5,1026.8594,305.5,1022.8594" style="stroke:#191919;stroke-width:1.0;"/><line style="stroke:#191919;stroke-width:1.0;stroke-dasharray:2.0,2.0;" x1="303.5" x2="583.5" y1="1022.8594" y2="1022.8594"/><text fill="#000000" font-family="sans-serif" font-size="13" lengthAdjust="spacing" textLength="182" x="315.5" y="1018.0029">Upgrade transaction successful</text><path d="M232,1039.3594 L232,1058.3594 A3.5,3.5 0 0 0 235.5,1061.8594 L1044.5,1061.8594 A3.5,3.5 0 0 0 1048,1058.3594 L1048,1045.8594 L1038,1035.8594 L235.5,1035.8594 A3.5,3.5 0 0 0 232,1039.3594 " fill="#E5E5E5" style="stroke:#191919;stroke-width:1.5;"/><path d="M1038,1035.8594 L1038,1044.1094 A1.75,1.75 0 0 0 1039.75,1045.8594 L1048,1045.8594 L1038,1035.8594 " fill="#E5E5E5" style="stroke:#191919;stroke-width:1.5;"/><text fill="#191919" font-family="sans-serif" font-size="13" font-weight="bold" lengthAdjust="spacing" textLength="147" x="562.25" y="1054.3545">Step 4: V2 Initialization</text><polygon fill="#191919" points="567.5,1101.9141,577.5,1105.9141,567.5,1109.9141,571.5,1105.9141" style="stroke:#191919;stroke-width:1.0;"/><line style="stroke:#191919;stroke-width:1.0;" x1="298.5" x2="573.5" y1="1105.9141" y2="1105.9141"/><text fill="#000000" font-family="sans-serif" font-size="13" lengthAdjust="spacing" textLength="97" x="305.5" y="1084.7061">Call initializeV2()</text><text fill="#000000" font-family="sans-serif" font-size="13" lengthAdjust="spacing" textLength="99" x="305.5" y="1101.0576">[delegated to V2]</text><polygon fill="#191919" points="976.5,1132.2656,986.5,1136.2656,976.5,1140.2656,980.5,1136.2656" style="stroke:#191919;stroke-width:1.0;"/><line style="stroke:#191919;stroke-width:1.0;" x1="589.5" x2="982.5" y1="1136.2656" y2="1136.2656"/><text fill="#000000" font-family="sans-serif" font-size="13" lengthAdjust="spacing" textLength="163" x="596.5" y="1131.4092">initializeV2() via delegatecall</text><line style="stroke:#191919;stroke-width:1.0;" x1="998.5" x2="1040.5" y1="1166.6172" y2="1166.6172"/><line style="stroke:#191919;stroke-width:1.0;" x1="1040.5" x2="1040.5" y1="1166.6172" y2="1179.6172"/><line style="stroke:#191919;stroke-width:1.0;" x1="999.5" x2="1040.5" y1="1179.6172" y2="1179.6172"/><polygon fill="#191919" points="1009.5,1175.6172,999.5,1179.6172,1009.5,1183.6172,1005.5,1179.6172" style="stroke:#191919;stroke-width:1.0;"/><text fill="#000000" font-family="sans-serif" font-size="13" lengthAdjust="spacing" textLength="167" x="1005.5" y="1161.7607">Check reinitializer(2) modifier</text><polygon fill="#191919" points="1222.5,1255.0234,1232.5,1259.0234,1222.5,1263.0234,1226.5,1259.0234" style="stroke:#191919;stroke-width:1.0;"/><line style="stroke:#191919;stroke-width:1.0;" x1="998.5" x2="1228.5" y1="1259.0234" y2="1259.0234"/><text fill="#000000" font-family="sans-serif" font-size="13" lengthAdjust="spacing" textLength="152" x="1005.5" y="1205.1123">Initialize new V2 variables:</text><text fill="#000000" font-family="sans-serif" font-size="13" lengthAdjust="spacing" textLength="139" x="1005.5" y="1221.4639">- deploymentTimestamp</text><text fill="#000000" font-family="sans-serif" font-size="13" lengthAdjust="spacing" textLength="212" x="1005.5" y="1237.8154">- totalEthCollected = current balance</text><text fill="#000000" font-family="sans-serif" font-size="13" lengthAdjust="spacing" textLength="165" x="1005.5" y="1254.167">- salesHistory = empty array</text><line style="stroke:#191919;stroke-width:1.0;" x1="998.5" x2="1040.5" y1="1289.375" y2="1289.375"/><line style="stroke:#191919;stroke-width:1.0;" x1="1040.5" x2="1040.5" y1="1289.375" y2="1302.375"/><line style="stroke:#191919;stroke-width:1.0;" x1="999.5" x2="1040.5" y1="1302.375" y2="1302.375"/><polygon fill="#191919" points="1009.5,1298.375,999.5,1302.375,1009.5,1306.375,1005.5,1302.375" style="stroke:#191919;stroke-width:1.0;"/><text fill="#000000" font-family="sans-serif" font-size="13" lengthAdjust="spacing" textLength="147" x="1005.5" y="1284.5186">Emit V2InitializationEvent</text><polygon fill="#191919" points="600.5,1328.7266,590.5,1332.7266,600.5,1336.7266,596.5,1332.7266" style="stroke:#191919;stroke-width:1.0;"/><line style="stroke:#191919;stroke-width:1.0;stroke-dasharray:2.0,2.0;" x1="594.5" x2="982.5" y1="1332.7266" y2="1332.7266"/><text fill="#000000" font-family="sans-serif" font-size="13" lengthAdjust="spacing" textLength="125" x="606.5" y="1327.8701">Initialization complete</text><polygon fill="#191919" points="309.5,1359.0781,299.5,1363.0781,309.5,1367.0781,305.5,1363.0781" style="stroke:#191919;stroke-width:1.0;"/><line style="stroke:#191919;stroke-width:1.0;stroke-dasharray:2.0,2.0;" x1="303.5" x2="583.5" y1="1363.0781" y2="1363.0781"/><text fill="#000000" font-family="sans-serif" font-size="13" lengthAdjust="spacing" textLength="137" x="315.5" y="1358.2217">initializeV2() successful</text><path d="M237,1379.5781 L237,1398.5781 A3.5,3.5 0 0 0 240.5,1402.0781 L1417.5,1402.0781 A3.5,3.5 0 0 0 1421,1398.5781 L1421,1386.0781 L1411,1376.0781 L240.5,1376.0781 A3.5,3.5 0 0 0 237,1379.5781 " fill="#E5E5E5" style="stroke:#191919;stroke-width:1.5;"/><path d="M1411,1376.0781 L1411,1384.3281 A1.75,1.75 0 0 0 1412.75,1386.0781 L1421,1386.0781 L1411,1376.0781 " fill="#E5E5E5" style="stroke:#191919;stroke-width:1.5;"/><text fill="#191919" font-family="sans-serif" font-size="13" font-weight="bold" lengthAdjust="spacing" textLength="213" x="718" y="1394.5732">Step 5: Verification &amp; Finalization</text><polygon fill="#191919" points="567.5,1425.7813,577.5,1429.7813,567.5,1433.7813,571.5,1429.7813" style="stroke:#191919;stroke-width:1.0;"/><line style="stroke:#191919;stroke-width:1.0;" x1="298.5" x2="573.5" y1="1429.7813" y2="1429.7813"/><text fill="#000000" font-family="sans-serif" font-size="13" lengthAdjust="spacing" textLength="172" x="305.5" y="1424.9248">Call version() to verify upgrade</text><polygon fill="#191919" points="971.5,1456.1328,981.5,1460.1328,971.5,1464.1328,975.5,1460.1328" style="stroke:#191919;stroke-width:1.0;"/><line style="stroke:#191919;stroke-width:1.0;" x1="589.5" x2="977.5" y1="1460.1328" y2="1460.1328"/><text fill="#000000" font-family="sans-serif" font-size="13" lengthAdjust="spacing" textLength="140" x="596.5" y="1455.2764">version() via delegatecall</text><polygon fill="#191919" points="600.5,1486.4844,590.5,1490.4844,600.5,1494.4844,596.5,1490.4844" style="stroke:#191919;stroke-width:1.0;"/><line style="stroke:#191919;stroke-width:1.0;stroke-dasharray:2.0,2.0;" x1="594.5" x2="982.5" y1="1490.4844" y2="1490.4844"/><text fill="#000000" font-family="sans-serif" font-size="13" lengthAdjust="spacing" textLength="81" x="606.5" y="1485.6279">Return "2.0.0"</text><polygon fill="#191919" points="309.5,1516.8359,299.5,1520.8359,309.5,1524.8359,305.5,1520.8359" style="stroke:#191919;stroke-width:1.0;"/><line style="stroke:#191919;stroke-width:1.0;stroke-dasharray:2.0,2.0;" x1="303.5" x2="583.5" y1="1520.8359" y2="1520.8359"/><text fill="#000000" font-family="sans-serif" font-size="13" lengthAdjust="spacing" textLength="104" x="315.5" y="1515.9795">Version confirmed</text><line style="stroke:#191919;stroke-width:1.0;" x1="298.5" x2="340.5" y1="1600.2422" y2="1600.2422"/><line style="stroke:#191919;stroke-width:1.0;" x1="340.5" x2="340.5" y1="1600.2422" y2="1613.2422"/><line style="stroke:#191919;stroke-width:1.0;" x1="299.5" x2="340.5" y1="1613.2422" y2="1613.2422"/><polygon fill="#191919" points="309.5,1609.2422,299.5,1613.2422,309.5,1617.2422,305.5,1613.2422" style="stroke:#191919;stroke-width:1.0;"/><text fill="#000000" font-family="sans-serif" font-size="13" lengthAdjust="spacing" textLength="193" x="305.5" y="1546.3311">Update deployed-addresses.json:</text><text fill="#000000" font-family="sans-serif" font-size="13" lengthAdjust="spacing" textLength="95" x="305.5" y="1562.6826">- version: "2.0.0"</text><text fill="#000000" font-family="sans-serif" font-size="13" lengthAdjust="spacing" textLength="143" x="305.5" y="1579.0342">- upgradedAt: timestamp</text><text fill="#000000" font-family="sans-serif" font-size="13" lengthAdjust="spacing" textLength="162" x="305.5" y="1595.3857">- v2Implementation: address</text><line style="stroke:#191919;stroke-width:1.0;" x1="298.5" x2="340.5" y1="1643.5938" y2="1643.5938"/><line style="stroke:#191919;stroke-width:1.0;" x1="340.5" x2="340.5" y1="1643.5938" y2="1656.5938"/><line style="stroke:#191919;stroke-width:1.0;" x1="299.5" x2="340.5" y1="1656.5938" y2="1656.5938"/><polygon fill="#191919" points="309.5,1652.5938,299.5,1656.5938,309.5,1660.5938,305.5,1656.5938" style="stroke:#191919;stroke-width:1.0;"/><text fill="#000000" font-family="sans-serif" font-size="13" lengthAdjust="spacing" textLength="201" x="305.5" y="1638.7373">Copy addresses to frontend/public/</text><polygon fill="#191919" points="83.5,1732,73.5,1736,83.5,1740,79.5,1736" style="stroke:#191919;stroke-width:1.0;"/><line style="stroke:#191919;stroke-width:1.0;stroke-dasharray:2.0,2.0;" x1="77.5" x2="292.5" y1="1736" y2="1736"/><text fill="#000000" font-family="sans-serif" font-size="13" lengthAdjust="spacing" textLength="192" x="89.5" y="1682.0889">Upgrade completed successfully:</text><text fill="#000000" font-family="sans-serif" font-size="13" lengthAdjust="spacing" textLength="162" x="89.5" y="1698.4404">&#9989; V2 implementation active</text><text fill="#000000" font-family="sans-serif" font-size="13" lengthAdjust="spacing" textLength="140" x="89.5" y="1714.792">&#9989; All V1 data preserved</text><text fill="#000000" font-family="sans-serif" font-size="13" lengthAdjust="spacing" textLength="165" x="89.5" y="1731.1436">&#9989; New V2 features available</text><path d="M16,1752.5 L16,1771.5 A3.5,3.5 0 0 0 19.5,1775 L1417.5,1775 A3.5,3.5 0 0 0 1421,1771.5 L1421,1759 L1411,1749 L19.5,1749 A3.5,3.5 0 0 0 16,1752.5 " fill="#E5E5E5" style="stroke:#191919;stroke-width:1.5;"/><path d="M1411,1749 L1411,1757.25 A1.75,1.75 0 0 0 1412.75,1759 L1421,1759 L1411,1749 " fill="#E5E5E5" style="stroke:#191919;stroke-width:1.5;"/><text fill="#191919" font-family="sans-serif" font-size="13" font-weight="bold" lengthAdjust="spacing" textLength="189" x="619.75" y="1767.4951">Post-Upgrade State: V2 Active</text><rect fill="#EEEEEE" height="3" rx="3.5" ry="3.5" style="stroke:#EEEEEE;stroke-width:1.0;" width="1484" x="0" y="1801.5273"/><line style="stroke:#191919;stroke-width:0.5;" x1="0" x2="1484" y1="1801.5273" y2="1801.5273"/><line style="stroke:#191919;stroke-width:0.5;" x1="0" x2="1484" y1="1804.5273" y2="1804.5273"/><rect fill="#EEEEEE" height="24.3516" rx="3.5" ry="3.5" style="stroke:#191919;stroke-width:1.0;" width="220" x="632" y="1790.3516"/><text fill="#191919" font-family="sans-serif" font-size="13" font-weight="bold" lengthAdjust="spacing" textLength="202" x="638" y="1807.8467">Verification of Upgrade Success</text><polygon fill="#191919" points="567.5,1859.4063,577.5,1863.4063,567.5,1867.4063,571.5,1863.4063" style="stroke:#191919;stroke-width:1.0;"/><line style="stroke:#191919;stroke-width:1.0;" x1="72.5" x2="573.5" y1="1863.4063" y2="1863.4063"/><text fill="#000000" font-family="sans-serif" font-size="13" lengthAdjust="spacing" textLength="126" x="79.5" y="1842.1982">Test V1 compatibility:</text><text fill="#000000" font-family="sans-serif" font-size="13" lengthAdjust="spacing" textLength="78" x="79.5" y="1858.5498">getProducts()</text><polygon fill="#191919" points="976.5,1889.7578,986.5,1893.7578,976.5,1897.7578,980.5,1893.7578" style="stroke:#191919;stroke-width:1.0;"/><line style="stroke:#191919;stroke-width:1.0;" x1="589.5" x2="982.5" y1="1893.7578" y2="1893.7578"/><text fill="#000000" font-family="sans-serif" font-size="13" lengthAdjust="spacing" textLength="170" x="596.5" y="1888.9014">getProducts() via delegatecall</text><polygon fill="#191919" points="1222.5,1920.1094,1232.5,1924.1094,1222.5,1928.1094,1226.5,1924.1094" style="stroke:#191919;stroke-width:1.0;"/><line style="stroke:#191919;stroke-width:1.0;" x1="988.5" x2="1228.5" y1="1924.1094" y2="1924.1094"/><text fill="#000000" font-family="sans-serif" font-size="13" lengthAdjust="spacing" textLength="133" x="995.5" y="1919.2529">Read existing products</text><polygon fill="#191919" points="999.5,1950.4609,989.5,1954.4609,999.5,1958.4609,995.5,1954.4609" style="stroke:#191919;stroke-width:1.0;"/><line style="stroke:#191919;stroke-width:1.0;stroke-dasharray:2.0,2.0;" x1="993.5" x2="1233.5" y1="1954.4609" y2="1954.4609"/><text fill="#000000" font-family="sans-serif" font-size="13" lengthAdjust="spacing" textLength="118" x="1005.5" y="1949.6045">Return product array</text><polygon fill="#191919" points="600.5,1980.8125,590.5,1984.8125,600.5,1988.8125,596.5,1984.8125" style="stroke:#191919;stroke-width:1.0;"/><line style="stroke:#191919;stroke-width:1.0;stroke-dasharray:2.0,2.0;" x1="594.5" x2="987.5" y1="1984.8125" y2="1984.8125"/><text fill="#000000" font-family="sans-serif" font-size="13" lengthAdjust="spacing" textLength="81" x="606.5" y="1979.9561">Products data</text><polygon fill="#191919" points="83.5,2011.1641,73.5,2015.1641,83.5,2019.1641,79.5,2015.1641" style="stroke:#191919;stroke-width:1.0;"/><line style="stroke:#191919;stroke-width:1.0;stroke-dasharray:2.0,2.0;" x1="77.5" x2="583.5" y1="2015.1641" y2="2015.1641"/><text fill="#000000" font-family="sans-serif" font-size="13" lengthAdjust="spacing" textLength="120" x="89.5" y="2010.3076">&#9989; V1 functions work</text><polygon fill="#191919" points="567.5,2057.8672,577.5,2061.8672,567.5,2065.8672,571.5,2061.8672" style="stroke:#191919;stroke-width:1.0;"/><line style="stroke:#191919;stroke-width:1.0;" x1="72.5" x2="573.5" y1="2061.8672" y2="2061.8672"/><text fill="#000000" font-family="sans-serif" font-size="13" lengthAdjust="spacing" textLength="126" x="79.5" y="2040.6592">Test V2 new features:</text><text fill="#000000" font-family="sans-serif" font-size="13" lengthAdjust="spacing" textLength="136" x="79.5" y="2057.0107">getAnalyticsSummary()</text><polygon fill="#191919" points="976.5,2088.2188,986.5,2092.2188,976.5,2096.2188,980.5,2092.2188" style="stroke:#191919;stroke-width:1.0;"/><line style="stroke:#191919;stroke-width:1.0;" x1="589.5" x2="982.5" y1="2092.2188" y2="2092.2188"/><text fill="#000000" font-family="sans-serif" font-size="13" lengthAdjust="spacing" textLength="228" x="596.5" y="2087.3623">getAnalyticsSummary() via delegatecall</text><polygon fill="#191919" points="1222.5,2118.5703,1232.5,2122.5703,1222.5,2126.5703,1226.5,2122.5703" style="stroke:#191919;stroke-width:1.0;"/><line style="stroke:#191919;stroke-width:1.0;" x1="988.5" x2="1228.5" y1="2122.5703" y2="2122.5703"/><text fill="#000000" font-family="sans-serif" font-size="13" lengthAdjust="spacing" textLength="115" x="995.5" y="2117.7139">Read analytics data</text><polygon fill="#191919" points="999.5,2148.9219,989.5,2152.9219,999.5,2156.9219,995.5,2152.9219" style="stroke:#191919;stroke-width:1.0;"/><line style="stroke:#191919;stroke-width:1.0;stroke-dasharray:2.0,2.0;" x1="993.5" x2="1233.5" y1="2152.9219" y2="2152.9219"/><text fill="#000000" font-family="sans-serif" font-size="13" lengthAdjust="spacing" textLength="112" x="1005.5" y="2148.0654">Analytics summary</text><polygon fill="#191919" points="600.5,2179.2734,590.5,2183.2734,600.5,2187.2734,596.5,2183.2734" style="stroke:#191919;stroke-width:1.0;"/><line style="stroke:#191919;stroke-width:1.0;stroke-dasharray:2.0,2.0;" x1="594.5" x2="987.5" y1="2183.2734" y2="2183.2734"/><text fill="#000000" font-family="sans-serif" font-size="13" lengthAdjust="spacing" textLength="83" x="606.5" y="2178.417">Analytics data</text><polygon fill="#191919" points="83.5,2209.625,73.5,2213.625,83.5,2217.625,79.5,2213.625" style="stroke:#191919;stroke-width:1.0;"/><line style="stroke:#191919;stroke-width:1.0;stroke-dasharray:2.0,2.0;" x1="77.5" x2="583.5" y1="2213.625" y2="2213.625"/><text fill="#000000" font-family="sans-serif" font-size="13" lengthAdjust="spacing" textLength="136" x="89.5" y="2208.7686">&#9989; V2 features available</text><path d="M16,2230.125 L16,2331.125 A3.5,3.5 0 0 0 19.5,2334.625 L1417.5,2334.625 A3.5,3.5 0 0 0 1421,2331.125 L1421,2236.625 L1411,2226.625 L19.5,2226.625 A3.5,3.5 0 0 0 16,2230.125 " fill="#E5E5E5" style="stroke:#191919;stroke-width:1.5;"/><path d="M1411,2226.625 L1411,2234.875 A1.75,1.75 0 0 0 1412.75,2236.625 L1421,2236.625 L1411,2226.625 " fill="#E5E5E5" style="stroke:#191919;stroke-width:1.5;"/><text fill="#191919" font-family="sans-serif" font-size="13" font-weight="bold" lengthAdjust="spacing" textLength="191" x="612.75" y="2245.1201">Upgrade Success Criteria Met:</text><text fill="#191919" font-family="sans-serif" font-size="13" lengthAdjust="spacing" textLength="196" x="612.75" y="2261.4717">&#8226; Same proxy address maintained</text><text fill="#191919" font-family="sans-serif" font-size="13" lengthAdjust="spacing" textLength="139" x="612.75" y="2277.8232">&#8226; All V1 data accessible</text><text fill="#191919" font-family="sans-serif" font-size="13" lengthAdjust="spacing" textLength="134" x="612.75" y="2294.1748">&#8226; V2 features functional</text><text fill="#191919" font-family="sans-serif" font-size="13" lengthAdjust="spacing" textLength="147" x="612.75" y="2310.5264">&#8226; Zero downtime achieved</text><text fill="#191919" font-family="sans-serif" font-size="13" lengthAdjust="spacing" textLength="203" x="612.75" y="2326.8779">&#8226; Backward compatibility confirmed</text><!--SRC=[bLVDRXit4BxlKx0-5BOGEP7wXmfm0TLHa03n3onRXrP1G2z74cikkULoPQkdNleMFVNHyYGT_krohRMJd2plpWndlldcu-mtPWC5a8BgAglkk2offWMvfVdTMgjQibCbb2Rt6suWopB3ZG1oStCv7ov0CYxNPpJVS0baCIP3CeS_Qv0vaDUShZ7EKjwK-9S1kTGgXweYYn4n2espZEO60n-SAcaq_YONznBq0Q6L_vLX8eRdlAJIa8EtLBCDDMIUQrwQfJnaK0gr6sx7ntzKHyxBl-gwsKJjqGyxT9bTdOv-_l4dR-qUTesx1Ir6w78X67bNb08HaeOQhgJtNepiqsVTn-X-3lVzxcFdpgYXjxI218GvOaBNu0lolxkdpB1T6kg2d8EvL_hEMORVMIQL0QAse3s6B-8RCY63mQM6OMp77DE1YUt6D3Ty2uD1bZaNClmb88a-imV8QunO1wzS5GMLR2bb-K0seIMwbYJjXcqitsBus94in4iZlrUK4NZWbK78I6cRGIXZ6Ycob2kjYX0Is30yXWfZAzaNx5GL9HUEWho3zb9MId36pSwcZZRkQO19y_N64BLgumm6SmCb6KsG7O2ekuZT_bcSsWnQT5-xRFSpm7DzPrjKOhEYCyRnVB2LQB0c4daJ7GcNbQ4uKss4G9ycG8h55PXQovv40emPWxrC4jhuE2_QZ08cumc9r9dMPgCq_yk7FTr0VjT5nOsMBOOA4QdZdXswFazz8lQCDqu3TaTjQNuiCn_28ZEAoDXpo4SQ3eUGpI52PIsEblBtBQV86W5h39JZsHyInFoyPY5S6dW1cgzsH4cnymDGACPN70M8YY1Af3cLPIHw3fDAkv1WOj8uqmJha0487FTpPJuRyWgm7MP23Z03UYjmLcr9c0lsYYWdbUWOS4e9S8sdL_POp4Ix8Ew8s1uqzJMr3LrH71wMeNobJ72XNqGHQfdmtUJHI93vFJVvndAWQLkiugPajlYFxyukty_EPkVNq-jt5-SVv-ylhfVItGCDBnlVzaISmWhq5eWbKYCMLZLHMv5BhCuDykYM2ZiV-0jCVdoqDzv91QUQevHICS4Uk42au0Y2AqC2C623mL963q5tgZQeJZuDrXIOuXrHD0dkLPtRosvLYtJS0hS_FspVJvpmICoLYi2gPqQCHqEyT0xj8CGXOFwg_V3CUCMJkp78ur7QqvuiU7R4ouseXZQMFXmVjVFKkhGjQOhqeeTbRwdcbl3LP2c7uHQmNBlc1Q0G5gLzR9IX0gz2N4u4vBRI4vBNMgDTf8CrgoZ6UOkyGP512oXAl0cerdJNMy2iuCR-rm5-jiMWZNM2VTVCNJ02S4bAXpw0rKERHu1_9MFIQzrHveSWP4Xkbystv0sNNq8UZ5gX1QQ0NDbwBGoQ_PWs-wnfdVS8qmDOk9eEniUlZbyTz86oyF7itRVYki29smUZv_uFAlF4nk1u53ATnDFjir0ccwBCcfHTst5NuIQDIFLl7sMpkq1bOSJz1Iy0oLwMzQtW-SlMhKTz8szOmW6nmwG__VjFtpNkrZN_TehzmmtEwLWZKlxLkH-c5QuJDRuXT8iYRySgIo4D2reFOvzV95LbzZR9SR99dfnqsOWgt9Zx8id9IR9mHePSOmziHHOJzBpb0bStX68DvZB8_U7HvsdPCN-QcgaENS6ZVTHvPz5Wc8OFF0v6GKzw-1vpS0rAw1uPu1ey8gjQkbkZ8cuPssVy4p2DdMB63dkKfZZpExpXgdcDcxhUVI5Q-svVWHgDphxENiYQ0v3axeG-lARTG4y0ralgvpIpI-1iC7XCHRiK85ifEGCpGVf- -li_CgVuJTpvBC4lP8v3Y9zsp5camqTT86upiQ_I76DtgN2lVWEDYmVkRrPmYFrKX6q8-2j-Sj_ZDrMN_OaMegBOxG-o_m40]--></g></svg>