<?xml version="1.0" encoding="us-ascii" standalone="no"?><svg xmlns="http://www.w3.org/2000/svg" xmlns:xlink="http://www.w3.org/1999/xlink" contentStyleType="text/css" height="1196px" preserveAspectRatio="none" style="width:951px;height:1196px;background:#F9F9F9;" version="1.1" viewBox="0 0 951 1196" width="951px" zoomAndPan="magnify"><defs/><g><rect fill="#F9F9F9" height="1196" style="stroke:none;stroke-width:1.0;" width="951" x="0" y="0"/><text fill="#000000" font-family="sans-serif" font-size="14" font-weight="bold" lengthAdjust="spacing" textLength="307" x="320.5" y="34.5332">UUPS-VendingMachine V2 - Activity Diagram</text><text fill="#000000" font-family="sans-serif" font-size="14" font-weight="bold" lengthAdjust="spacing" textLength="322" x="313" y="52.1426">Admin Management Workflows (Light Version)</text><ellipse cx="470.5" cy="76.2188" fill="#222222" rx="10" ry="10" style="stroke:#222222;stroke-width:1.0;"/><rect fill="#F1F1F1" height="35.0938" rx="3.5" ry="3.5" style="stroke:#181818;stroke-width:0.5;" width="143" x="399" y="106.2188"/><text fill="#000000" font-family="sans-serif" font-size="12" lengthAdjust="spacing" textLength="123" x="409" y="128.6758">Admin connects wallet</text><polygon fill="#F1F1F1" points="425,161.3125,516,161.3125,528,173.3125,516,185.3125,425,185.3125,413,173.3125,425,161.3125" style="stroke:#181818;stroke-width:0.5;"/><text fill="#000000" font-family="sans-serif" font-size="11" lengthAdjust="spacing" textLength="91" x="425" y="177.8135">isAdmin() verified?</text><text fill="#000000" font-family="sans-serif" font-size="11" lengthAdjust="spacing" textLength="18" x="395" y="170.8955">yes</text><text fill="#000000" font-family="sans-serif" font-size="11" lengthAdjust="spacing" textLength="12" x="528" y="170.8955">no</text><rect fill="#F1F1F1" height="35.0938" rx="3.5" ry="3.5" style="stroke:#181818;stroke-width:0.5;" width="154" x="306.5" y="195.3125"/><text fill="#000000" font-family="sans-serif" font-size="12" lengthAdjust="spacing" textLength="134" x="316.5" y="217.7695">Show Admin Dashboard</text><rect fill="#F1F1F1" height="35.0938" rx="3.5" ry="3.5" style="stroke:#181818;stroke-width:0.5;" width="154" x="480.5" y="195.3125"/><text fill="#000000" font-family="sans-serif" font-size="12" lengthAdjust="spacing" textLength="134" x="490.5" y="217.7695">Show user interface only</text><ellipse cx="557.5" cy="261.4063" fill="none" rx="11" ry="11" style="stroke:#222222;stroke-width:1.0;"/><ellipse cx="557.5" cy="261.4063" fill="#222222" rx="6" ry="6" style="stroke:#222222;stroke-width:1.0;"/><rect fill="#F1F1F1" height="35.0938" rx="3.5" ry="3.5" style="stroke:#181818;stroke-width:0.5;" width="134" x="403.5" y="292.4063"/><text fill="#000000" font-family="sans-serif" font-size="12" lengthAdjust="spacing" textLength="114" x="413.5" y="314.8633">Admin selects action</text><polygon fill="#F1F1F1" points="438.5,347.5,502.5,347.5,514.5,359.5,502.5,371.5,438.5,371.5,426.5,359.5,438.5,347.5" style="stroke:#181818;stroke-width:0.5;"/><text fill="#000000" font-family="sans-serif" font-size="11" lengthAdjust="spacing" textLength="64" x="438.5" y="364.001">Action Type?</text><rect fill="#F1F1F1" height="35.0938" rx="3.5" ry="3.5" style="stroke:#181818;stroke-width:0.5;" width="158" x="139.5" y="409.1719"/><text fill="#000000" font-family="sans-serif" font-size="12" lengthAdjust="spacing" textLength="138" x="149.5" y="431.6289">Choose CRUD operation</text><polygon fill="#F1F1F1" points="192,464.2656,245,464.2656,257,476.2656,245,488.2656,192,488.2656,180,476.2656,192,464.2656" style="stroke:#181818;stroke-width:0.5;"/><text fill="#000000" font-family="sans-serif" font-size="11" lengthAdjust="spacing" textLength="53" x="192" y="480.7666">Operation?</text><rect fill="#F1F1F1" height="35.0938" rx="3.5" ry="3.5" style="stroke:#181818;stroke-width:0.5;" width="108" x="15" y="525.9375"/><text fill="#000000" font-family="sans-serif" font-size="12" lengthAdjust="spacing" textLength="88" x="25" y="548.3945">Fill product form</text><rect fill="#F1F1F1" height="35.0938" rx="3.5" ry="3.5" style="stroke:#181818;stroke-width:0.5;" width="101" x="18.5" y="596.0313"/><text fill="#000000" font-family="sans-serif" font-size="12" lengthAdjust="spacing" textLength="81" x="28.5" y="618.4883">Validate inputs</text><rect fill="#F1F1F1" height="35.0938" rx="3.5" ry="3.5" style="stroke:#181818;stroke-width:0.5;" width="116" x="11" y="651.125"/><text fill="#000000" font-family="sans-serif" font-size="12" lengthAdjust="spacing" textLength="96" x="21" y="673.582">Call addProduct()</text><rect fill="#F1F1F1" height="35.0938" rx="3.5" ry="3.5" style="stroke:#181818;stroke-width:0.5;" width="103" x="17.5" y="706.2188"/><text fill="#000000" font-family="sans-serif" font-size="12" lengthAdjust="spacing" textLength="83" x="27.5" y="728.6758">Update catalog</text><rect fill="#F1F1F1" height="35.0938" rx="3.5" ry="3.5" style="stroke:#181818;stroke-width:0.5;" width="143" x="137" y="525.9375"/><text fill="#000000" font-family="sans-serif" font-size="12" lengthAdjust="spacing" textLength="123" x="147" y="548.3945">Select existing product</text><rect fill="#F1F1F1" height="35.0938" rx="3.5" ry="3.5" style="stroke:#181818;stroke-width:0.5;" width="87" x="165" y="596.0313"/><text fill="#000000" font-family="sans-serif" font-size="12" lengthAdjust="spacing" textLength="67" x="175" y="618.4883">Modify fields</text><rect fill="#F1F1F1" height="35.0938" rx="3.5" ry="3.5" style="stroke:#181818;stroke-width:0.5;" width="133" x="142" y="651.125"/><text fill="#000000" font-family="sans-serif" font-size="12" lengthAdjust="spacing" textLength="113" x="152" y="673.582">Call updateProduct()</text><rect fill="#F1F1F1" height="35.0938" rx="3.5" ry="3.5" style="stroke:#181818;stroke-width:0.5;" width="106" x="155.5" y="706.2188"/><text fill="#000000" font-family="sans-serif" font-size="12" lengthAdjust="spacing" textLength="86" x="165.5" y="728.6758">Refresh display</text><rect fill="#F1F1F1" height="35.0938" rx="3.5" ry="3.5" style="stroke:#181818;stroke-width:0.5;" width="111" x="312.5" y="525.9375"/><text fill="#000000" font-family="sans-serif" font-size="12" lengthAdjust="spacing" textLength="91" x="322.5" y="548.3945">Confirm deletion</text><rect fill="#F1F1F1" height="35.0938" rx="3.5" ry="3.5" style="stroke:#181818;stroke-width:0.5;" width="136" x="300" y="596.0313"/><text fill="#000000" font-family="sans-serif" font-size="12" lengthAdjust="spacing" textLength="116" x="310" y="618.4883">Call removeProduct()</text><rect fill="#F1F1F1" height="35.0938" rx="3.5" ry="3.5" style="stroke:#181818;stroke-width:0.5;" width="113" x="311.5" y="651.125"/><text fill="#000000" font-family="sans-serif" font-size="12" lengthAdjust="spacing" textLength="93" x="321.5" y="673.582">Remove from list</text><polygon fill="#F1F1F1" points="218.5,795.3125,218.5,795.3125,230.5,807.3125,218.5,819.3125,218.5,819.3125,206.5,807.3125,218.5,795.3125" style="stroke:#181818;stroke-width:0.5;"/><rect fill="#F1F1F1" height="35.0938" rx="3.5" ry="3.5" style="stroke:#181818;stroke-width:0.5;" width="126" x="470" y="409.1719"/><text fill="#000000" font-family="sans-serif" font-size="12" lengthAdjust="spacing" textLength="106" x="480" y="431.6289">Load analytics data</text><rect fill="#F1F1F1" height="80.375" rx="3.5" ry="3.5" style="stroke:#181818;stroke-width:0.5;" width="143" x="461.5" y="464.2656"/><text fill="#000000" font-family="sans-serif" font-size="12" lengthAdjust="spacing" textLength="88" x="471.5" y="486.7227">Display metrics:</text><text fill="#000000" font-family="sans-serif" font-size="12" lengthAdjust="spacing" textLength="69" x="471.5" y="501.8164">&#8226; Total sales</text><text fill="#000000" font-family="sans-serif" font-size="12" lengthAdjust="spacing" textLength="57" x="471.5" y="516.9102">&#8226; Revenue</text><text fill="#000000" font-family="sans-serif" font-size="12" lengthAdjust="spacing" textLength="123" x="471.5" y="532.0039">&#8226; Product performance</text><rect fill="#F1F1F1" height="35.0938" rx="3.5" ry="3.5" style="stroke:#181818;stroke-width:0.5;" width="154" x="456" y="579.6406"/><text fill="#000000" font-family="sans-serif" font-size="12" lengthAdjust="spacing" textLength="134" x="466" y="602.0977">Show sales history table</text><rect fill="#F1F1F1" height="35.0938" rx="3.5" ry="3.5" style="stroke:#181818;stroke-width:0.5;" width="143" x="713.5" y="409.1719"/><text fill="#000000" font-family="sans-serif" font-size="12" lengthAdjust="spacing" textLength="123" x="723.5" y="431.6289">Choose system action</text><polygon fill="#F1F1F1" points="747,464.2656,823,464.2656,835,476.2656,823,488.2656,747,488.2656,735,476.2656,747,464.2656" style="stroke:#181818;stroke-width:0.5;"/><text fill="#000000" font-family="sans-serif" font-size="11" lengthAdjust="spacing" textLength="76" x="747" y="480.7666">System Action?</text><rect fill="#F1F1F1" height="35.0938" rx="3.5" ry="3.5" style="stroke:#181818;stroke-width:0.5;" width="98" x="652.5" y="525.9375"/><text fill="#000000" font-family="sans-serif" font-size="12" lengthAdjust="spacing" textLength="78" x="662.5" y="548.3945">Show balance</text><rect fill="#F1F1F1" height="35.0938" rx="3.5" ry="3.5" style="stroke:#181818;stroke-width:0.5;" width="126" x="638.5" y="596.0313"/><text fill="#000000" font-family="sans-serif" font-size="12" lengthAdjust="spacing" textLength="106" x="648.5" y="618.4883">Confirm withdrawal</text><rect fill="#F1F1F1" height="35.0938" rx="3.5" ry="3.5" style="stroke:#181818;stroke-width:0.5;" width="143" x="630" y="651.125"/><text fill="#000000" font-family="sans-serif" font-size="12" lengthAdjust="spacing" textLength="123" x="640" y="673.582">Transfer ETH to owner</text><rect fill="#F1F1F1" height="35.0938" rx="3.5" ry="3.5" style="stroke:#181818;stroke-width:0.5;" width="147" x="793" y="525.9375"/><text fill="#000000" font-family="sans-serif" font-size="12" lengthAdjust="spacing" textLength="127" x="803" y="548.3945">Display contract details</text><polygon fill="#F1F1F1" points="785,751.3125,785,751.3125,797,763.3125,785,775.3125,785,775.3125,773,763.3125,785,751.3125" style="stroke:#181818;stroke-width:0.5;"/><polygon fill="#F1F1F1" points="470.5,829.3125,470.5,829.3125,482.5,841.3125,470.5,853.3125,470.5,853.3125,458.5,841.3125,470.5,829.3125" style="stroke:#181818;stroke-width:0.5;"/><polygon fill="#F1F1F1" points="410.5,873.3125,530.5,873.3125,542.5,885.3125,530.5,897.3125,410.5,897.3125,398.5,885.3125,410.5,873.3125" style="stroke:#181818;stroke-width:0.5;"/><text fill="#000000" font-family="sans-serif" font-size="11" lengthAdjust="spacing" textLength="120" x="410.5" y="889.8135">Transaction successful?</text><text fill="#000000" font-family="sans-serif" font-size="11" lengthAdjust="spacing" textLength="18" x="380.5" y="882.8955">yes</text><text fill="#000000" font-family="sans-serif" font-size="11" lengthAdjust="spacing" textLength="12" x="542.5" y="882.8955">no</text><rect fill="#F1F1F1" height="35.0938" rx="3.5" ry="3.5" style="stroke:#181818;stroke-width:0.5;" width="154" x="308.5" y="907.3125"/><text fill="#000000" font-family="sans-serif" font-size="12" lengthAdjust="spacing" textLength="134" x="318.5" y="929.7695">Show success feedback</text><rect fill="#F1F1F1" height="35.0938" rx="3.5" ry="3.5" style="stroke:#181818;stroke-width:0.5;" width="105" x="333" y="962.4063"/><text fill="#000000" font-family="sans-serif" font-size="12" lengthAdjust="spacing" textLength="85" x="343" y="984.8633">Update UI state</text><rect fill="#F1F1F1" height="35.0938" rx="3.5" ry="3.5" style="stroke:#181818;stroke-width:0.5;" width="146" x="482.5" y="907.3125"/><text fill="#000000" font-family="sans-serif" font-size="12" lengthAdjust="spacing" textLength="126" x="492.5" y="929.7695">Display error message</text><rect fill="#F1F1F1" height="35.0938" rx="3.5" ry="3.5" style="stroke:#181818;stroke-width:0.5;" width="75" x="518" y="962.4063"/><text fill="#000000" font-family="sans-serif" font-size="12" lengthAdjust="spacing" textLength="55" x="528" y="984.8633">Allow retry</text><polygon fill="#F1F1F1" points="470.5,1003.5,482.5,1015.5,470.5,1027.5,458.5,1015.5,470.5,1003.5" style="stroke:#181818;stroke-width:0.5;"/><rect fill="#F1F1F1" height="35.0938" rx="3.5" ry="3.5" style="stroke:#181818;stroke-width:0.5;" width="133" x="404" y="1047.5"/><text fill="#000000" font-family="sans-serif" font-size="12" lengthAdjust="spacing" textLength="113" x="414" y="1069.957">Return to dashboard</text><path d="M501.5,1092.5938 L501.5,1134.4727 L481.5,1138.4727 L501.5,1142.4727 L501.5,1184.3516 A0,0 0 0 0 501.5,1184.3516 L680.5,1184.3516 A0,0 0 0 0 680.5,1184.3516 L680.5,1102.5938 L670.5,1092.5938 L501.5,1092.5938 A0,0 0 0 0 501.5,1092.5938 " fill="#E5E5E5" style="stroke:#191919;stroke-width:1.5;"/><path d="M670.5,1092.5938 L670.5,1102.5938 L680.5,1102.5938 L670.5,1092.5938 " fill="#E5E5E5" style="stroke:#191919;stroke-width:1.5;"/><text fill="#191919" font-family="sans-serif" font-size="13" font-weight="bold" lengthAdjust="spacing" textLength="140" x="507.5" y="1111.0889">V2 Admin Capabilities</text><text fill="#191919" font-family="sans-serif" font-size="13" lengthAdjust="spacing" textLength="158" x="507.5" y="1127.4404">&#8226; Product CRUD operations</text><text fill="#191919" font-family="sans-serif" font-size="13" lengthAdjust="spacing" textLength="120" x="507.5" y="1143.792">&#8226; Real-time analytics</text><text fill="#191919" font-family="sans-serif" font-size="13" lengthAdjust="spacing" textLength="137" x="507.5" y="1160.1436">&#8226; Revenue management</text><text fill="#191919" font-family="sans-serif" font-size="13" lengthAdjust="spacing" textLength="139" x="507.5" y="1176.4951">&#8226; Secure access control</text><ellipse cx="470.5" cy="1138.4727" fill="none" rx="11" ry="11" style="stroke:#222222;stroke-width:1.0;"/><ellipse cx="470.5" cy="1138.4727" fill="#222222" rx="6" ry="6" style="stroke:#222222;stroke-width:1.0;"/><line style="stroke:#191919;stroke-width:1.0;" x1="470.5" x2="470.5" y1="86.2188" y2="106.2188"/><polygon fill="#191919" points="466.5,96.2188,470.5,106.2188,474.5,96.2188,470.5,100.2188" style="stroke:#191919;stroke-width:1.0;"/><line style="stroke:#191919;stroke-width:1.0;" x1="557.5" x2="557.5" y1="230.4063" y2="250.4063"/><polygon fill="#191919" points="553.5,240.4063,557.5,250.4063,561.5,240.4063,557.5,244.4063" style="stroke:#191919;stroke-width:1.0;"/><line style="stroke:#191919;stroke-width:1.0;" x1="413" x2="383.5" y1="173.3125" y2="173.3125"/><line style="stroke:#191919;stroke-width:1.0;" x1="383.5" x2="383.5" y1="173.3125" y2="195.3125"/><polygon fill="#191919" points="379.5,185.3125,383.5,195.3125,387.5,185.3125,383.5,189.3125" style="stroke:#191919;stroke-width:1.0;"/><line style="stroke:#191919;stroke-width:1.0;" x1="528" x2="557.5" y1="173.3125" y2="173.3125"/><line style="stroke:#191919;stroke-width:1.0;" x1="557.5" x2="557.5" y1="173.3125" y2="195.3125"/><polygon fill="#191919" points="553.5,185.3125,557.5,195.3125,561.5,185.3125,557.5,189.3125" style="stroke:#191919;stroke-width:1.0;"/><line style="stroke:#191919;stroke-width:1.0;" x1="383.5" x2="383.5" y1="230.4063" y2="277.4063"/><line style="stroke:#191919;stroke-width:1.0;" x1="383.5" x2="470.5" y1="277.4063" y2="277.4063"/><line style="stroke:#191919;stroke-width:1.0;" x1="470.5" x2="470.5" y1="277.4063" y2="292.4063"/><polygon fill="#191919" points="466.5,282.4063,470.5,292.4063,474.5,282.4063,470.5,286.4063" style="stroke:#191919;stroke-width:1.0;"/><line style="stroke:#191919;stroke-width:1.0;" x1="470.5" x2="470.5" y1="141.3125" y2="161.3125"/><polygon fill="#191919" points="466.5,151.3125,470.5,161.3125,474.5,151.3125,470.5,155.3125" style="stroke:#191919;stroke-width:1.0;"/><line style="stroke:#191919;stroke-width:1.0;" x1="69" x2="69" y1="561.0313" y2="596.0313"/><polygon fill="#191919" points="65,586.0313,69,596.0313,73,586.0313,69,590.0313" style="stroke:#191919;stroke-width:1.0;"/><line style="stroke:#191919;stroke-width:1.0;" x1="69" x2="69" y1="631.125" y2="651.125"/><polygon fill="#191919" points="65,641.125,69,651.125,73,641.125,69,645.125" style="stroke:#191919;stroke-width:1.0;"/><line style="stroke:#191919;stroke-width:1.0;" x1="69" x2="69" y1="686.2188" y2="706.2188"/><polygon fill="#191919" points="65,696.2188,69,706.2188,73,696.2188,69,700.2188" style="stroke:#191919;stroke-width:1.0;"/><line style="stroke:#191919;stroke-width:1.0;" x1="208.5" x2="208.5" y1="561.0313" y2="596.0313"/><polygon fill="#191919" points="204.5,586.0313,208.5,596.0313,212.5,586.0313,208.5,590.0313" style="stroke:#191919;stroke-width:1.0;"/><line style="stroke:#191919;stroke-width:1.0;" x1="208.5" x2="208.5" y1="631.125" y2="651.125"/><polygon fill="#191919" points="204.5,641.125,208.5,651.125,212.5,641.125,208.5,645.125" style="stroke:#191919;stroke-width:1.0;"/><line style="stroke:#191919;stroke-width:1.0;" x1="208.5" x2="208.5" y1="686.2188" y2="706.2188"/><polygon fill="#191919" points="204.5,696.2188,208.5,706.2188,212.5,696.2188,208.5,700.2188" style="stroke:#191919;stroke-width:1.0;"/><line style="stroke:#191919;stroke-width:1.0;" x1="368" x2="368" y1="561.0313" y2="596.0313"/><polygon fill="#191919" points="364,586.0313,368,596.0313,372,586.0313,368,590.0313" style="stroke:#191919;stroke-width:1.0;"/><line style="stroke:#191919;stroke-width:1.0;" x1="368" x2="368" y1="631.125" y2="651.125"/><polygon fill="#191919" points="364,641.125,368,651.125,372,641.125,368,645.125" style="stroke:#191919;stroke-width:1.0;"/><line style="stroke:#191919;stroke-width:1.0;" x1="180" x2="69" y1="476.2656" y2="476.2656"/><line style="stroke:#191919;stroke-width:1.0;" x1="69" x2="69" y1="476.2656" y2="525.9375"/><polygon fill="#191919" points="65,515.9375,69,525.9375,73,515.9375,69,519.9375" style="stroke:#191919;stroke-width:1.0;"/><text fill="#000000" font-family="sans-serif" font-size="11" lengthAdjust="spacing" textLength="20" x="69" y="505.6025">Add</text><line style="stroke:#191919;stroke-width:1.0;" x1="257" x2="368" y1="476.2656" y2="476.2656"/><line style="stroke:#191919;stroke-width:1.0;" x1="368" x2="368" y1="476.2656" y2="525.9375"/><polygon fill="#191919" points="364,515.9375,368,525.9375,372,515.9375,368,519.9375" style="stroke:#191919;stroke-width:1.0;"/><text fill="#000000" font-family="sans-serif" font-size="11" lengthAdjust="spacing" textLength="30" x="368" y="505.6025">Delete</text><line style="stroke:#191919;stroke-width:1.0;" x1="218.5" x2="218.5" y1="488.2656" y2="500.8229"/><line style="stroke:#191919;stroke-width:1.0;" x1="218.5" x2="208.5" y1="500.8229" y2="500.8229"/><line style="stroke:#191919;stroke-width:1.0;" x1="208.5" x2="208.5" y1="500.8229" y2="525.9375"/><polygon fill="#191919" points="204.5,515.9375,208.5,525.9375,212.5,515.9375,208.5,519.9375" style="stroke:#191919;stroke-width:1.0;"/><text fill="#000000" font-family="sans-serif" font-size="11" lengthAdjust="spacing" textLength="34" x="208.5" y="506.6025">Update</text><line style="stroke:#191919;stroke-width:1.0;" x1="69" x2="69" y1="741.3125" y2="807.3125"/><line style="stroke:#191919;stroke-width:1.0;" x1="69" x2="206.5" y1="807.3125" y2="807.3125"/><polygon fill="#191919" points="196.5,803.3125,206.5,807.3125,196.5,811.3125,200.5,807.3125" style="stroke:#191919;stroke-width:1.0;"/><line style="stroke:#191919;stroke-width:1.0;" x1="368" x2="368" y1="686.2188" y2="807.3125"/><line style="stroke:#191919;stroke-width:1.0;" x1="368" x2="230.5" y1="807.3125" y2="807.3125"/><polygon fill="#191919" points="240.5,803.3125,230.5,807.3125,240.5,811.3125,236.5,807.3125" style="stroke:#191919;stroke-width:1.0;"/><line style="stroke:#191919;stroke-width:1.0;" x1="208.5" x2="208.5" y1="741.3125" y2="766.4063"/><line style="stroke:#191919;stroke-width:1.0;" x1="208.5" x2="218.5" y1="766.4063" y2="766.4063"/><line style="stroke:#191919;stroke-width:1.0;" x1="218.5" x2="218.5" y1="766.4063" y2="795.3125"/><polygon fill="#191919" points="214.5,785.3125,218.5,795.3125,222.5,785.3125,218.5,789.3125" style="stroke:#191919;stroke-width:1.0;"/><line style="stroke:#191919;stroke-width:1.0;" x1="218.5" x2="218.5" y1="444.2656" y2="464.2656"/><polygon fill="#191919" points="214.5,454.2656,218.5,464.2656,222.5,454.2656,218.5,458.2656" style="stroke:#191919;stroke-width:1.0;"/><line style="stroke:#191919;stroke-width:1.0;" x1="533" x2="533" y1="444.2656" y2="464.2656"/><polygon fill="#191919" points="529,454.2656,533,464.2656,537,454.2656,533,458.2656" style="stroke:#191919;stroke-width:1.0;"/><line style="stroke:#191919;stroke-width:1.0;" x1="533" x2="533" y1="544.6406" y2="579.6406"/><polygon fill="#191919" points="529,569.6406,533,579.6406,537,569.6406,533,573.6406" style="stroke:#191919;stroke-width:1.0;"/><line style="stroke:#191919;stroke-width:1.0;" x1="701.5" x2="701.5" y1="561.0313" y2="596.0313"/><polygon fill="#191919" points="697.5,586.0313,701.5,596.0313,705.5,586.0313,701.5,590.0313" style="stroke:#191919;stroke-width:1.0;"/><line style="stroke:#191919;stroke-width:1.0;" x1="701.5" x2="701.5" y1="631.125" y2="651.125"/><polygon fill="#191919" points="697.5,641.125,701.5,651.125,705.5,641.125,701.5,645.125" style="stroke:#191919;stroke-width:1.0;"/><line style="stroke:#191919;stroke-width:1.0;" x1="735" x2="701.5" y1="476.2656" y2="476.2656"/><line style="stroke:#191919;stroke-width:1.0;" x1="701.5" x2="701.5" y1="476.2656" y2="525.9375"/><polygon fill="#191919" points="697.5,515.9375,701.5,525.9375,705.5,515.9375,701.5,519.9375" style="stroke:#191919;stroke-width:1.0;"/><text fill="#000000" font-family="sans-serif" font-size="11" lengthAdjust="spacing" textLength="47" x="701.5" y="505.6025">Withdraw</text><line style="stroke:#191919;stroke-width:1.0;" x1="835" x2="866.5" y1="476.2656" y2="476.2656"/><line style="stroke:#191919;stroke-width:1.0;" x1="866.5" x2="866.5" y1="476.2656" y2="525.9375"/><polygon fill="#191919" points="862.5,515.9375,866.5,525.9375,870.5,515.9375,866.5,519.9375" style="stroke:#191919;stroke-width:1.0;"/><text fill="#000000" font-family="sans-serif" font-size="11" lengthAdjust="spacing" textLength="62" x="866.5" y="505.6025">Contract Info</text><line style="stroke:#191919;stroke-width:1.0;" x1="701.5" x2="701.5" y1="686.2188" y2="763.3125"/><line style="stroke:#191919;stroke-width:1.0;" x1="701.5" x2="773" y1="763.3125" y2="763.3125"/><polygon fill="#191919" points="763,759.3125,773,763.3125,763,767.3125,767,763.3125" style="stroke:#191919;stroke-width:1.0;"/><line style="stroke:#191919;stroke-width:1.0;" x1="866.5" x2="866.5" y1="561.0313" y2="763.3125"/><line style="stroke:#191919;stroke-width:1.0;" x1="866.5" x2="797" y1="763.3125" y2="763.3125"/><polygon fill="#191919" points="807,759.3125,797,763.3125,807,767.3125,803,763.3125" style="stroke:#191919;stroke-width:1.0;"/><line style="stroke:#191919;stroke-width:1.0;" x1="785" x2="785" y1="444.2656" y2="464.2656"/><polygon fill="#191919" points="781,454.2656,785,464.2656,789,454.2656,785,458.2656" style="stroke:#191919;stroke-width:1.0;"/><line style="stroke:#191919;stroke-width:1.0;" x1="426.5" x2="218.5" y1="359.5" y2="359.5"/><line style="stroke:#191919;stroke-width:1.0;" x1="218.5" x2="218.5" y1="359.5" y2="409.1719"/><polygon fill="#191919" points="214.5,399.1719,218.5,409.1719,222.5,399.1719,218.5,403.1719" style="stroke:#191919;stroke-width:1.0;"/><text fill="#000000" font-family="sans-serif" font-size="11" lengthAdjust="spacing" textLength="101" x="218.5" y="388.8369">Product Management</text><line style="stroke:#191919;stroke-width:1.0;" x1="514.5" x2="785" y1="359.5" y2="359.5"/><line style="stroke:#191919;stroke-width:1.0;" x1="785" x2="785" y1="359.5" y2="409.1719"/><polygon fill="#191919" points="781,399.1719,785,409.1719,789,399.1719,785,403.1719" style="stroke:#191919;stroke-width:1.0;"/><text fill="#000000" font-family="sans-serif" font-size="11" lengthAdjust="spacing" textLength="69" x="785" y="388.8369">System Admin</text><line style="stroke:#191919;stroke-width:1.0;" x1="533" x2="533" y1="359.5" y2="409.1719"/><polygon fill="#191919" points="529,399.1719,533,409.1719,537,399.1719,533,403.1719" style="stroke:#191919;stroke-width:1.0;"/><text fill="#000000" font-family="sans-serif" font-size="11" lengthAdjust="spacing" textLength="45" x="533" y="383.8369">Analytics</text><line style="stroke:#191919;stroke-width:1.0;" x1="218.5" x2="218.5" y1="819.3125" y2="841.3125"/><line style="stroke:#191919;stroke-width:1.0;" x1="218.5" x2="458.5" y1="841.3125" y2="841.3125"/><polygon fill="#191919" points="448.5,837.3125,458.5,841.3125,448.5,845.3125,452.5,841.3125" style="stroke:#191919;stroke-width:1.0;"/><line style="stroke:#191919;stroke-width:1.0;" x1="785" x2="785" y1="775.3125" y2="841.3125"/><line style="stroke:#191919;stroke-width:1.0;" x1="785" x2="482.5" y1="841.3125" y2="841.3125"/><polygon fill="#191919" points="492.5,837.3125,482.5,841.3125,492.5,845.3125,488.5,841.3125" style="stroke:#191919;stroke-width:1.0;"/><line style="stroke:#191919;stroke-width:1.0;" x1="533" x2="533" y1="614.7344" y2="841.3125"/><polygon fill="#191919" points="529,831.3125,533,841.3125,537,831.3125,533,835.3125" style="stroke:#191919;stroke-width:1.0;"/><line style="stroke:#191919;stroke-width:1.0;" x1="470.5" x2="470.5" y1="327.5" y2="347.5"/><polygon fill="#191919" points="466.5,337.5,470.5,347.5,474.5,337.5,470.5,341.5" style="stroke:#191919;stroke-width:1.0;"/><line style="stroke:#191919;stroke-width:1.0;" x1="385.5" x2="385.5" y1="942.4063" y2="962.4063"/><polygon fill="#191919" points="381.5,952.4063,385.5,962.4063,389.5,952.4063,385.5,956.4063" style="stroke:#191919;stroke-width:1.0;"/><line style="stroke:#191919;stroke-width:1.0;" x1="555.5" x2="555.5" y1="942.4063" y2="962.4063"/><polygon fill="#191919" points="551.5,952.4063,555.5,962.4063,559.5,952.4063,555.5,956.4063" style="stroke:#191919;stroke-width:1.0;"/><line style="stroke:#191919;stroke-width:1.0;" x1="398.5" x2="385.5" y1="885.3125" y2="885.3125"/><line style="stroke:#191919;stroke-width:1.0;" x1="385.5" x2="385.5" y1="885.3125" y2="907.3125"/><polygon fill="#191919" points="381.5,897.3125,385.5,907.3125,389.5,897.3125,385.5,901.3125" style="stroke:#191919;stroke-width:1.0;"/><line style="stroke:#191919;stroke-width:1.0;" x1="542.5" x2="555.5" y1="885.3125" y2="885.3125"/><line style="stroke:#191919;stroke-width:1.0;" x1="555.5" x2="555.5" y1="885.3125" y2="907.3125"/><polygon fill="#191919" points="551.5,897.3125,555.5,907.3125,559.5,897.3125,555.5,901.3125" style="stroke:#191919;stroke-width:1.0;"/><line style="stroke:#191919;stroke-width:1.0;" x1="385.5" x2="385.5" y1="997.5" y2="1015.5"/><line style="stroke:#191919;stroke-width:1.0;" x1="385.5" x2="458.5" y1="1015.5" y2="1015.5"/><polygon fill="#191919" points="448.5,1011.5,458.5,1015.5,448.5,1019.5,452.5,1015.5" style="stroke:#191919;stroke-width:1.0;"/><line style="stroke:#191919;stroke-width:1.0;" x1="555.5" x2="555.5" y1="997.5" y2="1015.5"/><line style="stroke:#191919;stroke-width:1.0;" x1="555.5" x2="482.5" y1="1015.5" y2="1015.5"/><polygon fill="#191919" points="492.5,1011.5,482.5,1015.5,492.5,1019.5,488.5,1015.5" style="stroke:#191919;stroke-width:1.0;"/><line style="stroke:#191919;stroke-width:1.0;" x1="470.5" x2="470.5" y1="853.3125" y2="873.3125"/><polygon fill="#191919" points="466.5,863.3125,470.5,873.3125,474.5,863.3125,470.5,867.3125" style="stroke:#191919;stroke-width:1.0;"/><line style="stroke:#191919;stroke-width:1.0;" x1="470.5" x2="470.5" y1="1027.5" y2="1047.5"/><polygon fill="#191919" points="466.5,1037.5,470.5,1047.5,474.5,1037.5,470.5,1041.5" style="stroke:#191919;stroke-width:1.0;"/><line style="stroke:#191919;stroke-width:1.0;" x1="470.5" x2="470.5" y1="1082.5938" y2="1127.4727"/><polygon fill="#191919" points="466.5,1117.4727,470.5,1127.4727,474.5,1117.4727,470.5,1121.4727" style="stroke:#191919;stroke-width:1.0;"/><!--SRC=[RLJDRjim3BxhARXR4g2N7PD34IGRLg35YlpriWiZqR5GMJ8aEPblUvOzsfvaj2GtQT6RJOhyFf8V-INMr10qw8CGKKT3iDy_R-yEP9MsfoUKjRO4Xwzm1qiPzLd77jOQJnwRNtQf6ctX2IsUE8kDyEByQsNS9S3aKP_g20VoGJix5I94z57CSuXqrfAC0Ive3CM5q1LCT4ZEoHJEv7MbITrFWVbPcFGKfW9WlgtT1NAADORwwD2hXI0J22RMNPzqWJne6ybNA0cSDVs2dI6wLWoLLM9a4iWa8iZ5ERiGuQAZh66oJF-mwrkwdmg90yApTwgJyQRWXBYgdMFtQhDVWsl9Oyx4S2NNpz5uFxpFkPPA3JyS_bqR0sr9NJdVBBBzW4OhZCHrj5qCnRhYXW4gLRXCfiM-RzDRYH6DEotUSB9z2ldLDbKBz5k7oECTOKkE9yUTwO4xRzGxl2ub-GYveSfJg47fq1hihvXhHc7Cai3PIli6r60iZHdpUchS-PEyWnKgxnemJ7Gmyz1oDqMPnTAYwQEMMHUF3XNWQ09cYqFKV9sfGKFHisFEjdz__iBESPSWeA5GB1iwa-se_8s3vhaD0q4hQV6chHG6DHDpleU8HvESXTUs3v6QhD5RTOHi7sLs5SSO83y8v4N7Mdcyb3Ocw2EQaSjDPo_b9PhYs7cqeU8D-BRx0T61krZor_5mNFHC11vivKhwiL5oz2cAg4rut_kRAGmBct1oHH0wAIc4gZEVBstnGqMaZYXVKp-BQFSFl9dyyM6JHqxalVCymX1uwrBSql2DOVL4pweRztb3iVDsg5TTJqFQU64Te_ZX88dPZ6zPNlqLjdZKHaTDOJOJjuD_lyj1P8cWkOkQh-MRqCIDTFY6ZbSXcRSaEyzlSzcfhyuCP65W8_u3]--></g></svg>