<?xml version="1.0" encoding="us-ascii" standalone="no"?><svg xmlns="http://www.w3.org/2000/svg" xmlns:xlink="http://www.w3.org/1999/xlink" contentStyleType="text/css" height="1738px" preserveAspectRatio="none" style="width:1845px;height:1738px;background:#FFFFFF;" version="1.1" viewBox="0 0 1845 1738" width="1845px" zoomAndPan="magnify"><defs/><g><text fill="#000000" font-family="sans-serif" font-size="14" font-weight="bold" lengthAdjust="spacing" textLength="292" x="769.5" y="24.5332">UUPS-VendingMachine V2 - State Diagram</text><text fill="#000000" font-family="sans-serif" font-size="14" font-weight="bold" lengthAdjust="spacing" textLength="206" x="812.5" y="42.1426">MetaMask Transaction States</text><ellipse cx="496" cy="273.7188" fill="#222222" rx="10" ry="10" style="stroke:#222222;stroke-width:1.0;"/><g id="WalletDisconnected"><rect fill="#E0E0E0" height="82.8906" rx="3.5" ry="3.5" style="stroke:#181818;stroke-width:0.5;" width="209" x="148.5" y="393.2188"/><line style="stroke:#181818;stroke-width:0.5;" x1="148.5" x2="357.5" y1="420.8281" y2="420.8281"/><text fill="#000000" font-family="sans-serif" font-size="14" lengthAdjust="spacing" textLength="125" x="190.5" y="412.752">WalletDisconnected</text><text fill="#000000" font-family="sans-serif" font-size="12" lengthAdjust="spacing" textLength="142" x="153.5" y="438.2852">User wallet not connected</text><text fill="#000000" font-family="sans-serif" font-size="12" lengthAdjust="spacing" textLength="185" x="153.5" y="453.3789">DApp shows "Connect MetaMask"</text><text fill="#000000" font-family="sans-serif" font-size="12" lengthAdjust="spacing" textLength="189" x="153.5" y="468.4727">No blockchain interaction possible</text></g><g id="Connecting"><rect fill="#E0E0E0" height="82.8906" rx="3.5" ry="3.5" style="stroke:#181818;stroke-width:0.5;" width="179" x="294.5" y="576.7188"/><line style="stroke:#181818;stroke-width:0.5;" x1="294.5" x2="473.5" y1="604.3281" y2="604.3281"/><text fill="#000000" font-family="sans-serif" font-size="14" lengthAdjust="spacing" textLength="72" x="348" y="596.252">Connecting</text><text fill="#000000" font-family="sans-serif" font-size="12" lengthAdjust="spacing" textLength="159" x="299.5" y="621.7852">MetaMask extension opening</text><text fill="#000000" font-family="sans-serif" font-size="12" lengthAdjust="spacing" textLength="153" x="299.5" y="636.8789">Requesting account access</text><text fill="#000000" font-family="sans-serif" font-size="12" lengthAdjust="spacing" textLength="148" x="299.5" y="651.9727">User authorization pending</text></g><g id="WalletConnected"><rect fill="#90EE90" height="82.8906" rx="3.5" ry="3.5" style="stroke:#181818;stroke-width:0.5;" width="155" x="525.5" y="66.7188"/><line style="stroke:#181818;stroke-width:0.5;" x1="525.5" x2="680.5" y1="94.3281" y2="94.3281"/><text fill="#000000" font-family="sans-serif" font-size="14" lengthAdjust="spacing" textLength="108" x="549" y="86.252">WalletConnected</text><text fill="#000000" font-family="sans-serif" font-size="12" lengthAdjust="spacing" textLength="135" x="530.5" y="111.7852">Wallet address available</text><text fill="#000000" font-family="sans-serif" font-size="12" lengthAdjust="spacing" textLength="119" x="530.5" y="126.8789">DApp loads user data</text><text fill="#000000" font-family="sans-serif" font-size="12" lengthAdjust="spacing" textLength="123" x="530.5" y="141.9727">Ready for transactions</text></g><g id="TransactionInitiated"><rect fill="#F1F1F1" height="82.8906" rx="3.5" ry="3.5" style="stroke:#181818;stroke-width:0.5;" width="172" x="616" y="393.2188"/><line style="stroke:#181818;stroke-width:0.5;" x1="616" x2="788" y1="420.8281" y2="420.8281"/><text fill="#000000" font-family="sans-serif" font-size="14" lengthAdjust="spacing" textLength="124" x="640" y="412.752">TransactionInitiated</text><text fill="#000000" font-family="sans-serif" font-size="12" lengthAdjust="spacing" textLength="147" x="621" y="438.2852">DApp prepares transaction</text><text fill="#000000" font-family="sans-serif" font-size="12" lengthAdjust="spacing" textLength="150" x="621" y="453.3789">Gas estimation in progress</text><text fill="#000000" font-family="sans-serif" font-size="12" lengthAdjust="spacing" textLength="152" x="621" y="468.4727">Transaction parameters set</text></g><g id="WaitingSignature"><rect fill="#FFD700" height="128.1719" rx="3.5" ry="3.5" style="stroke:#181818;stroke-width:0.5;" width="169" x="835.5" y="554.2188"/><line style="stroke:#181818;stroke-width:0.5;" x1="835.5" x2="1004.5" y1="581.8281" y2="581.8281"/><text fill="#000000" font-family="sans-serif" font-size="14" lengthAdjust="spacing" textLength="108" x="866" y="573.752">WaitingSignature</text><text fill="#000000" font-family="sans-serif" font-size="12" lengthAdjust="spacing" textLength="149" x="840.5" y="599.2852">MetaMask popup displayed</text><text fill="#000000" font-family="sans-serif" font-size="12" lengthAdjust="spacing" textLength="145" x="840.5" y="614.3789">Transaction details shown</text><text fill="#000000" font-family="sans-serif" font-size="12" lengthAdjust="spacing" textLength="125" x="840.5" y="629.4727">User decision pending</text><text fill="#000000" font-family="sans-serif" font-size="12" lengthAdjust="spacing" textLength="89" x="840.5" y="644.5664">- Amount: X ETH</text><text fill="#000000" font-family="sans-serif" font-size="12" lengthAdjust="spacing" textLength="92" x="840.5" y="659.6602">- Gas: Estimated</text><text fill="#000000" font-family="sans-serif" font-size="12" lengthAdjust="spacing" textLength="122" x="840.5" y="674.7539">- To: Contract address</text></g><g id="TransactionFailed"><rect fill="#FFB6C1" height="143.2656" rx="3.5" ry="3.5" style="stroke:#181818;stroke-width:0.5;" width="159" x="578.5" y="1419.2188"/><line style="stroke:#181818;stroke-width:0.5;" x1="578.5" x2="737.5" y1="1446.8281" y2="1446.8281"/><text fill="#000000" font-family="sans-serif" font-size="14" lengthAdjust="spacing" textLength="114" x="601" y="1438.752">TransactionFailed</text><text fill="#000000" font-family="sans-serif" font-size="12" lengthAdjust="spacing" textLength="98" x="583.5" y="1464.2852">Transaction failed</text><text fill="#000000" font-family="sans-serif" font-size="12" lengthAdjust="spacing" textLength="139" x="583.5" y="1479.3789">Error message displayed</text><text fill="#000000" font-family="sans-serif" font-size="12" lengthAdjust="spacing" textLength="96" x="583.5" y="1494.4727">Possible causes:</text><text fill="#000000" font-family="sans-serif" font-size="12" lengthAdjust="spacing" textLength="90" x="583.5" y="1509.5664">- Insufficient gas</text><text fill="#000000" font-family="sans-serif" font-size="12" lengthAdjust="spacing" textLength="86" x="583.5" y="1524.6602">- Contract revert</text><text fill="#000000" font-family="sans-serif" font-size="12" lengthAdjust="spacing" textLength="81" x="583.5" y="1539.7539">- Network error</text><text fill="#000000" font-family="sans-serif" font-size="12" lengthAdjust="spacing" textLength="100" x="583.5" y="1554.8477">- Insufficient funds</text></g><g id="TransactionSigned"><rect fill="#F1F1F1" height="82.8906" rx="3.5" ry="3.5" style="stroke:#181818;stroke-width:0.5;" width="211" x="814.5" y="760.2188"/><line style="stroke:#181818;stroke-width:0.5;" x1="814.5" x2="1025.5" y1="787.8281" y2="787.8281"/><text fill="#000000" font-family="sans-serif" font-size="14" lengthAdjust="spacing" textLength="119" x="860.5" y="779.752">TransactionSigned</text><text fill="#000000" font-family="sans-serif" font-size="12" lengthAdjust="spacing" textLength="191" x="819.5" y="805.2852">Transaction signed with private key</text><text fill="#000000" font-family="sans-serif" font-size="12" lengthAdjust="spacing" textLength="129" x="819.5" y="820.3789">Preparing for broadcast</text><text fill="#000000" font-family="sans-serif" font-size="12" lengthAdjust="spacing" textLength="91" x="819.5" y="835.4727">Nonce assigned</text></g><g id="TransactionRejected"><rect fill="#FFB6C1" height="82.8906" rx="3.5" ry="3.5" style="stroke:#181818;stroke-width:0.5;" width="185" x="1127.5" y="760.2188"/><line style="stroke:#181818;stroke-width:0.5;" x1="1127.5" x2="1312.5" y1="787.8281" y2="787.8281"/><text fill="#000000" font-family="sans-serif" font-size="14" lengthAdjust="spacing" textLength="131" x="1154.5" y="779.752">TransactionRejected</text><text fill="#000000" font-family="sans-serif" font-size="12" lengthAdjust="spacing" textLength="147" x="1132.5" y="805.2852">User cancelled transaction</text><text fill="#000000" font-family="sans-serif" font-size="12" lengthAdjust="spacing" textLength="138" x="1132.5" y="820.3789">No blockchain interaction</text><text fill="#000000" font-family="sans-serif" font-size="12" lengthAdjust="spacing" textLength="165" x="1132.5" y="835.4727">DApp returns to previous state</text></g><g id="Broadcasting"><rect fill="#FFD700" height="82.8906" rx="3.5" ry="3.5" style="stroke:#181818;stroke-width:0.5;" width="181" x="829.5" y="921.2188"/><line style="stroke:#181818;stroke-width:0.5;" x1="829.5" x2="1010.5" y1="948.8281" y2="948.8281"/><text fill="#000000" font-family="sans-serif" font-size="14" lengthAdjust="spacing" textLength="83" x="878.5" y="940.752">Broadcasting</text><text fill="#000000" font-family="sans-serif" font-size="12" lengthAdjust="spacing" textLength="161" x="834.5" y="966.2852">Transaction sent to mempool</text><text fill="#000000" font-family="sans-serif" font-size="12" lengthAdjust="spacing" textLength="132" x="834.5" y="981.3789">Waiting for miner pickup</text><text fill="#000000" font-family="sans-serif" font-size="12" lengthAdjust="spacing" textLength="114" x="834.5" y="996.4727">Network propagation</text></g><g id="Pending"><rect fill="#FFD700" height="97.9844" rx="3.5" ry="3.5" style="stroke:#181818;stroke-width:0.5;" width="223" x="871.5" y="1082.2188"/><line style="stroke:#181818;stroke-width:0.5;" x1="871.5" x2="1094.5" y1="1109.8281" y2="1109.8281"/><text fill="#000000" font-family="sans-serif" font-size="14" lengthAdjust="spacing" textLength="52" x="957" y="1101.752">Pending</text><text fill="#000000" font-family="sans-serif" font-size="12" lengthAdjust="spacing" textLength="185" x="876.5" y="1127.2852">Transaction awaiting confirmation</text><text fill="#000000" font-family="sans-serif" font-size="12" lengthAdjust="spacing" textLength="149" x="876.5" y="1142.3789">Included in block candidate</text><text fill="#000000" font-family="sans-serif" font-size="12" lengthAdjust="spacing" textLength="102" x="876.5" y="1157.4727">Mining in progress</text><text fill="#000000" font-family="sans-serif" font-size="12" lengthAdjust="spacing" textLength="203" x="876.5" y="1172.5664">DApp shows "Transaction pending..."</text></g><g id="Confirmed"><rect fill="#90EE90" height="113.0781" rx="3.5" ry="3.5" style="stroke:#181818;stroke-width:0.5;" width="170" x="1396" y="1434.2188"/><line style="stroke:#181818;stroke-width:0.5;" x1="1396" x2="1566" y1="1461.8281" y2="1461.8281"/><text fill="#000000" font-family="sans-serif" font-size="14" lengthAdjust="spacing" textLength="65" x="1448.5" y="1453.752">Confirmed</text><text fill="#000000" font-family="sans-serif" font-size="12" lengthAdjust="spacing" textLength="128" x="1401" y="1479.2852">Transaction successful</text><text fill="#000000" font-family="sans-serif" font-size="12" lengthAdjust="spacing" textLength="150" x="1401" y="1494.3789">Block confirmation received</text><text fill="#000000" font-family="sans-serif" font-size="12" lengthAdjust="spacing" textLength="131" x="1401" y="1509.4727">Smart contract executed</text><text fill="#000000" font-family="sans-serif" font-size="12" lengthAdjust="spacing" textLength="81" x="1401" y="1524.5664">Events emitted</text><text fill="#000000" font-family="sans-serif" font-size="12" lengthAdjust="spacing" textLength="108" x="1401" y="1539.6602">DApp state updated</text></g><g id="Stuck"><rect fill="#FFA500" height="82.8906" rx="3.5" ry="3.5" style="stroke:#181818;stroke-width:0.5;" width="168" x="899" y="1258.2188"/><line style="stroke:#181818;stroke-width:0.5;" x1="899" x2="1067" y1="1285.8281" y2="1285.8281"/><text fill="#000000" font-family="sans-serif" font-size="14" lengthAdjust="spacing" textLength="35" x="965.5" y="1277.752">Stuck</text><text fill="#000000" font-family="sans-serif" font-size="12" lengthAdjust="spacing" textLength="148" x="904" y="1303.2852">Transaction taking too long</text><text fill="#000000" font-family="sans-serif" font-size="12" lengthAdjust="spacing" textLength="128" x="904" y="1318.3789">Low gas price possible</text><text fill="#000000" font-family="sans-serif" font-size="12" lengthAdjust="spacing" textLength="109" x="904" y="1333.4727">Network congestion</text></g><g id="Replaced"><rect fill="#F1F1F1" height="82.8906" rx="3.5" ry="3.5" style="stroke:#181818;stroke-width:0.5;" width="183" x="1020.5" y="1449.2188"/><line style="stroke:#181818;stroke-width:0.5;" x1="1020.5" x2="1203.5" y1="1476.8281" y2="1476.8281"/><text fill="#000000" font-family="sans-serif" font-size="14" lengthAdjust="spacing" textLength="60" x="1082" y="1468.752">Replaced</text><text fill="#000000" font-family="sans-serif" font-size="12" lengthAdjust="spacing" textLength="152" x="1025.5" y="1494.2852">Higher gas transaction sent</text><text fill="#000000" font-family="sans-serif" font-size="12" lengthAdjust="spacing" textLength="163" x="1025.5" y="1509.3789">Original transaction cancelled</text><text fill="#000000" font-family="sans-serif" font-size="12" lengthAdjust="spacing" textLength="154" x="1025.5" y="1524.4727">New transaction processing</text></g><g id="NetworkError"><rect fill="#FFB6C1" height="82.8906" rx="3.5" ry="3.5" style="stroke:#181818;stroke-width:0.5;" width="182" x="269" y="232.2188"/><line style="stroke:#181818;stroke-width:0.5;" x1="269" x2="451" y1="259.8281" y2="259.8281"/><text fill="#000000" font-family="sans-serif" font-size="14" lengthAdjust="spacing" textLength="82" x="319" y="251.752">NetworkError</text><text fill="#000000" font-family="sans-serif" font-size="12" lengthAdjust="spacing" textLength="122" x="274" y="277.2852">RPC connection failed</text><text fill="#000000" font-family="sans-serif" font-size="12" lengthAdjust="spacing" textLength="149" x="274" y="292.3789">Alchemy node unreachable</text><text fill="#000000" font-family="sans-serif" font-size="12" lengthAdjust="spacing" textLength="162" x="274" y="307.4727">DApp shows connection error</text></g><g id="AdminVerification"><rect fill="#E0E0E0" height="67.7969" rx="3.5" ry="3.5" style="stroke:#181818;stroke-width:0.5;" width="174" x="877" y="239.7188"/><line style="stroke:#181818;stroke-width:0.5;" x1="877" x2="1051" y1="267.3281" y2="267.3281"/><text fill="#000000" font-family="sans-serif" font-size="14" lengthAdjust="spacing" textLength="109" x="909.5" y="259.252">AdminVerification</text><text fill="#000000" font-family="sans-serif" font-size="12" lengthAdjust="spacing" textLength="154" x="882" y="284.7852">Checking isAdmin(address)</text><text fill="#000000" font-family="sans-serif" font-size="12" lengthAdjust="spacing" textLength="129" x="882" y="299.8789">Contract call verification</text></g><g id="AdminTransactionInitiated"><rect fill="#90EE90" height="82.8906" rx="3.5" ry="3.5" style="stroke:#181818;stroke-width:0.5;" width="183" x="826.5" y="393.2188"/><line style="stroke:#181818;stroke-width:0.5;" x1="826.5" x2="1009.5" y1="420.8281" y2="420.8281"/><text fill="#000000" font-family="sans-serif" font-size="14" lengthAdjust="spacing" textLength="163" x="836.5" y="412.752">AdminTransactionInitiated</text><text fill="#000000" font-family="sans-serif" font-size="12" lengthAdjust="spacing" textLength="134" x="831.5" y="438.2852">Admin function prepared</text><text fill="#000000" font-family="sans-serif" font-size="12" lengthAdjust="spacing" textLength="107" x="831.5" y="453.3789">Higher gas limit set</text><text fill="#000000" font-family="sans-serif" font-size="12" lengthAdjust="spacing" textLength="96" x="831.5" y="468.4727">Special validation</text></g><g id="AccessDenied"><rect fill="#FFB6C1" height="82.8906" rx="3.5" ry="3.5" style="stroke:#181818;stroke-width:0.5;" width="147" x="1046.5" y="393.2188"/><line style="stroke:#181818;stroke-width:0.5;" x1="1046.5" x2="1193.5" y1="420.8281" y2="420.8281"/><text fill="#000000" font-family="sans-serif" font-size="14" lengthAdjust="spacing" textLength="90" x="1075" y="412.752">AccessDenied</text><text fill="#000000" font-family="sans-serif" font-size="12" lengthAdjust="spacing" textLength="127" x="1051.5" y="438.2852">Admin access required</text><text fill="#000000" font-family="sans-serif" font-size="12" lengthAdjust="spacing" textLength="119" x="1051.5" y="453.3789">Function not available</text><text fill="#000000" font-family="sans-serif" font-size="12" lengthAdjust="spacing" textLength="126" x="1051.5" y="468.4727">Show permission error</text></g><g id="elem_GMN51"><path d="M716,65.7188 L716,104.2188 L680.68,108.2188 L716,112.2188 L716,150.4766 A3.5,3.5 0 0 0 719.5,153.9766 L896.5,153.9766 A3.5,3.5 0 0 0 900,150.4766 L900,72.2188 L890,62.2188 L719.5,62.2188 A3.5,3.5 0 0 0 716,65.7188 " fill="#FFFACD" style="stroke:#DAA520;stroke-width:1.5;"/><path d="M890,62.2188 L890,70.4688 A1.75,1.75 0 0 0 891.75,72.2188 L900,72.2188 L890,62.2188 " fill="#FFFACD" style="stroke:#DAA520;stroke-width:1.5;"/><text fill="#191919" font-family="sans-serif" font-size="13" font-weight="bold" lengthAdjust="spacing" textLength="142" x="722" y="80.7139">V2 Enhanced Features</text><text fill="#191919" font-family="sans-serif" font-size="13" lengthAdjust="spacing" textLength="135" x="722" y="97.0654">&#8226; Admin role verification</text><text fill="#191919" font-family="sans-serif" font-size="13" lengthAdjust="spacing" textLength="137" x="722" y="113.417">&#8226; Analytics data loading</text><text fill="#191919" font-family="sans-serif" font-size="13" lengthAdjust="spacing" textLength="163" x="722" y="129.7686">&#8226; Real-time balance updates</text><text fill="#191919" font-family="sans-serif" font-size="13" lengthAdjust="spacing" textLength="159" x="722" y="146.1201">&#8226; Event listening for UI sync</text></g><g id="elem_GMN54"><path d="M1381,1626.7188 L1381,1727.8281 A3.5,3.5 0 0 0 1384.5,1731.3281 L1577.5,1731.3281 A3.5,3.5 0 0 0 1581,1727.8281 L1581,1633.2188 L1571,1623.2188 L1485,1623.2188 L1481,1547.3288 L1477,1623.2188 L1384.5,1623.2188 A3.5,3.5 0 0 0 1381,1626.7188 " fill="#FFFACD" style="stroke:#DAA520;stroke-width:1.5;"/><path d="M1571,1623.2188 L1571,1631.4688 A1.75,1.75 0 0 0 1572.75,1633.2188 L1581,1633.2188 L1571,1623.2188 " fill="#FFFACD" style="stroke:#DAA520;stroke-width:1.5;"/><text fill="#191919" font-family="sans-serif" font-size="13" font-weight="bold" lengthAdjust="spacing" textLength="179" x="1387" y="1641.7139">Transaction Success Actions</text><text fill="#191919" font-family="sans-serif" font-size="13" lengthAdjust="spacing" textLength="143" x="1387" y="1658.0654">&#8226; Update product catalog</text><text fill="#191919" font-family="sans-serif" font-size="13" lengthAdjust="spacing" textLength="131" x="1387" y="1674.417">&#8226; Refresh user balance</text><text fill="#191919" font-family="sans-serif" font-size="13" lengthAdjust="spacing" textLength="150" x="1387" y="1690.7686">&#8226; Record purchase history</text><text fill="#191919" font-family="sans-serif" font-size="13" lengthAdjust="spacing" textLength="160" x="1387" y="1707.1201">&#8226; Show success notification</text><text fill="#191919" font-family="sans-serif" font-size="13" lengthAdjust="spacing" textLength="161" x="1387" y="1723.4717">&#8226; Emit analytics events (V2)</text></g><g id="elem_GMN57"><path d="M384.5,1440.2188 L384.5,1541.3281 A3.5,3.5 0 0 0 388,1544.8281 L540,1544.8281 A3.5,3.5 0 0 0 543.5,1541.3281 L543.5,1494.7188 L578.44,1490.7188 L543.5,1486.7188 L543.5,1446.7188 L533.5,1436.7188 L388,1436.7188 A3.5,3.5 0 0 0 384.5,1440.2188 " fill="#FFFACD" style="stroke:#DAA520;stroke-width:1.5;"/><path d="M533.5,1436.7188 L533.5,1444.9688 A1.75,1.75 0 0 0 535.25,1446.7188 L543.5,1446.7188 L533.5,1436.7188 " fill="#FFFACD" style="stroke:#DAA520;stroke-width:1.5;"/><text fill="#191919" font-family="sans-serif" font-size="13" font-weight="bold" lengthAdjust="spacing" textLength="94" x="390.5" y="1455.2139">Error Recovery</text><text fill="#191919" font-family="sans-serif" font-size="13" lengthAdjust="spacing" textLength="130" x="390.5" y="1471.5654">&#8226; Parse error message</text><text fill="#191919" font-family="sans-serif" font-size="13" lengthAdjust="spacing" textLength="132" x="390.5" y="1487.917">&#8226; Suggest user actions</text><text fill="#191919" font-family="sans-serif" font-size="13" lengthAdjust="spacing" textLength="111" x="390.5" y="1504.2686">&#8226; Log for debugging</text><text fill="#191919" font-family="sans-serif" font-size="13" lengthAdjust="spacing" textLength="138" x="390.5" y="1520.6201">&#8226; Allow transaction retry</text><text fill="#191919" font-family="sans-serif" font-size="13" lengthAdjust="spacing" textLength="132" x="390.5" y="1536.9717">&#8226; Check wallet balance</text></g><!--link *start* to WalletDisconnected--><g id="link_*start*_WalletDisconnected"><path d="M491.55,282.7687 C486.53,291.3888 477.79,305.1888 468,315.2188 C436.14,347.8488 398.7289,371.2403 359.7189,390.5203 " fill="none" id="*start*-to-WalletDisconnected" style="stroke:#191919;stroke-width:1.0;"/><polygon fill="#191919" points="354.34,393.1788,364.1807,392.777,358.8224,390.9634,360.6361,385.6052,354.34,393.1788" style="stroke:#191919;stroke-width:1.0;"/><text fill="#000000" font-family="sans-serif" font-size="13" lengthAdjust="spacing" textLength="63" x="434" y="359.7139">Initial state</text></g><!--link WalletDisconnected to Connecting--><g id="link_WalletDisconnected_Connecting"><path d="M162.05,476.3788 C144.44,489.9788 134.78,506.2887 147,524.2188 C179.93,572.5188 236.2217,594.4787 288.6117,605.6387 " fill="none" id="WalletDisconnected-to-Connecting" style="stroke:#191919;stroke-width:1.0;"/><polygon fill="#191919" points="294.48,606.8888,286.5109,601.1014,289.5897,605.847,284.8441,608.9259,294.48,606.8888" style="stroke:#191919;stroke-width:1.0;"/><text fill="#000000" font-family="sans-serif" font-size="13" lengthAdjust="spacing" textLength="192" x="148" y="520.7139">User clicks "Connect MetaMask"</text></g><!--link Connecting to WalletDisconnected--><g id="link_Connecting_WalletDisconnected"><path d="M375.73,576.5387 C369.79,554.2688 360.11,527.0487 345,506.2188 C337.09,495.3087 331.6043,489.1378 321.0443,480.2678 " fill="none" id="Connecting-to-WalletDisconnected" style="stroke:#191919;stroke-width:1.0;"/><polygon fill="#191919" points="316.45,476.4088,320.7688,485.2602,320.2786,479.6246,325.9142,479.1344,316.45,476.4088" style="stroke:#191919;stroke-width:1.0;"/><text fill="#000000" font-family="sans-serif" font-size="13" lengthAdjust="spacing" textLength="137" x="357" y="520.7139">User rejects connection</text></g><!--link Connecting to WalletConnected--><g id="link_Connecting_WalletConnected"><path d="M452.65,576.6588 C471.6,562.3387 490.4,544.6388 503,524.2188 C545.62,455.1588 520.37,424.1988 539,345.2188 C555.28,276.2188 575.8871,202.5737 589.4071,155.7037 " fill="none" id="Connecting-to-WalletConnected" style="stroke:#191919;stroke-width:1.0;"/><polygon fill="#191919" points="591.07,149.9388,584.7323,157.4775,589.6842,154.7429,592.4189,159.6948,591.07,149.9388" style="stroke:#191919;stroke-width:1.0;"/><text fill="#000000" font-family="sans-serif" font-size="13" lengthAdjust="spacing" textLength="149" x="540" y="359.7139">User approves connection</text></g><!--link WalletConnected to TransactionInitiated--><g id="link_WalletConnected_TransactionInitiated"><path d="M615.15,149.7487 C628.47,192.0687 651.64,259.8588 679,315.2188 C685.99,329.3688 693.26,330.1688 698,345.2188 C702.76,360.3287 704.2553,371.6092 704.4453,386.8592 " fill="none" id="WalletConnected-to-TransactionInitiated" style="stroke:#191919;stroke-width:1.0;"/><polygon fill="#191919" points="704.52,392.8588,708.4076,383.8096,704.4577,387.8591,700.4082,383.9093,704.52,392.8588" style="stroke:#191919;stroke-width:1.0;"/><text fill="#000000" font-family="sans-serif" font-size="13" lengthAdjust="spacing" textLength="142" x="698" y="271.2139">User triggers transaction</text><text fill="#000000" font-family="sans-serif" font-size="13" lengthAdjust="spacing" textLength="178" x="680" y="287.5654">(buyProduct, addProduct, etc.)</text></g><!--link WalletConnected to WalletDisconnected--><g id="link_WalletConnected_WalletDisconnected"><path d="M525.49,116.4188 C399.08,130.0387 157.83,164.4488 111,232.2188 C90.03,262.5687 95.36,281.8087 111,315.2188 C125.9,347.0687 149.1691,369.8453 176.4891,389.4953 " fill="none" id="WalletConnected-to-WalletDisconnected" style="stroke:#191919;stroke-width:1.0;"/><polygon fill="#191919" points="181.36,392.9988,176.3892,384.4963,177.3009,390.0792,171.718,390.9909,181.36,392.9988" style="stroke:#191919;stroke-width:1.0;"/><text fill="#000000" font-family="sans-serif" font-size="13" lengthAdjust="spacing" textLength="138" x="112" y="279.2139">User disconnects wallet</text></g><!--link TransactionInitiated to WaitingSignature--><g id="link_TransactionInitiated_WaitingSignature"><path d="M709.31,476.5887 C713.89,492.8988 721.26,510.9188 733,524.2188 C759.99,554.7987 793.821,574.1866 829.491,588.8566 " fill="none" id="TransactionInitiated-to-WaitingSignature" style="stroke:#191919;stroke-width:1.0;"/><polygon fill="#191919" points="835.04,591.1388,828.2379,584.0162,830.4158,589.237,825.195,591.4149,835.04,591.1388" style="stroke:#191919;stroke-width:1.0;"/><text fill="#000000" font-family="sans-serif" font-size="13" lengthAdjust="spacing" textLength="176" x="734" y="520.7139">Transaction sent to MetaMask</text></g><!--link TransactionInitiated to TransactionFailed--><g id="link_TransactionInitiated_TransactionFailed"><path d="M657.54,476.2388 C625.18,510.3287 587,562.1988 587,617.2188 C587,617.2188 587,617.2188 587,1300.7188 C587,1341.5488 599.1742,1378.9163 615.2042,1413.4563 " fill="none" id="TransactionInitiated-to-TransactionFailed" style="stroke:#191919;stroke-width:1.0;"/><polygon fill="#191919" points="617.73,1418.8988,617.5695,1409.0512,615.6251,1414.3634,610.313,1412.419,617.73,1418.8988" style="stroke:#191919;stroke-width:1.0;"/><text fill="#000000" font-family="sans-serif" font-size="13" lengthAdjust="spacing" textLength="115" x="588" y="968.2139">Gas estimation fails</text></g><!--link WaitingSignature to TransactionSigned--><g id="link_WaitingSignature_TransactionSigned"><path d="M920,682.4488 C920,708.2288 920,731.2788 920,754.1388 " fill="none" id="WaitingSignature-to-TransactionSigned" style="stroke:#191919;stroke-width:1.0;"/><polygon fill="#191919" points="920,760.1388,924,751.1388,920,755.1388,916,751.1388,920,760.1388" style="stroke:#191919;stroke-width:1.0;"/><text fill="#000000" font-family="sans-serif" font-size="13" lengthAdjust="spacing" textLength="150" x="921" y="726.7139">User approves transaction</text></g><!--link WaitingSignature to TransactionRejected--><g id="link_WaitingSignature_TransactionRejected"><path d="M1004.63,667.6288 C1029.06,681.8087 1055.69,697.4788 1080,712.2188 C1105.32,727.5788 1127.8664,741.6801 1151.8264,756.9101 " fill="none" id="WaitingSignature-to-TransactionRejected" style="stroke:#191919;stroke-width:1.0;"/><polygon fill="#191919" points="1156.89,760.1288,1151.4403,751.925,1152.6703,757.4465,1147.1488,758.6765,1156.89,760.1288" style="stroke:#191919;stroke-width:1.0;"/><text fill="#000000" font-family="sans-serif" font-size="13" lengthAdjust="spacing" textLength="138" x="1108" y="726.7139">User rejects transaction</text></g><!--link TransactionSigned to Broadcasting--><g id="link_TransactionSigned_Broadcasting"><path d="M920,843.2488 C920,867.0788 920,891.1188 920,914.9788 " fill="none" id="TransactionSigned-to-Broadcasting" style="stroke:#191919;stroke-width:1.0;"/><polygon fill="#191919" points="920,920.9788,924,911.9788,920,915.9788,916,911.9788,920,920.9788" style="stroke:#191919;stroke-width:1.0;"/><text fill="#000000" font-family="sans-serif" font-size="13" lengthAdjust="spacing" textLength="111" x="921" y="887.7139">Sending to network</text></g><!--link Broadcasting to Pending--><g id="link_Broadcasting_Pending"><path d="M935.41,1004.4488 C944.26,1027.8388 953.3052,1051.7476 962.6052,1076.3076 " fill="none" id="Broadcasting-to-Pending" style="stroke:#191919;stroke-width:1.0;"/><polygon fill="#191919" points="964.73,1081.9188,965.2837,1072.0855,962.9594,1077.2428,957.8021,1074.9185,964.73,1081.9188" style="stroke:#191919;stroke-width:1.0;"/><text fill="#000000" font-family="sans-serif" font-size="13" lengthAdjust="spacing" textLength="138" x="955" y="1048.7139">Transaction in mempool</text></g><!--link Broadcasting to TransactionFailed--><g id="link_Broadcasting_TransactionFailed"><path d="M850.66,1004.4188 C786.3,1046.6388 694.64,1119.1988 655,1210.2188 C626.08,1276.6188 630.9007,1354.6826 640.7807,1413.1726 " fill="none" id="Broadcasting-to-TransactionFailed" style="stroke:#191919;stroke-width:1.0;"/><polygon fill="#191919" points="641.78,1419.0888,644.2251,1409.5482,640.9472,1414.1586,636.3368,1410.8807,641.78,1419.0888" style="stroke:#191919;stroke-width:1.0;"/><text fill="#000000" font-family="sans-serif" font-size="13" lengthAdjust="spacing" textLength="145" x="656" y="1224.7139">Network error or rejection</text></g><!--link Pending to Confirmed--><g id="link_Pending_Confirmed"><path d="M1094.62,1148.8488 C1215.04,1169.1188 1395.8,1207.0988 1442,1258.2188 C1484.91,1305.6888 1490.1489,1376.0162 1487.5589,1427.9362 " fill="none" id="Pending-to-Confirmed" style="stroke:#191919;stroke-width:1.0;"/><polygon fill="#191919" points="1487.26,1433.9288,1491.7034,1425.1392,1487.5091,1428.935,1483.7134,1424.7406,1487.26,1433.9288" style="stroke:#191919;stroke-width:1.0;"/><text fill="#000000" font-family="sans-serif" font-size="13" lengthAdjust="spacing" textLength="148" x="1481" y="1305.2139">Block mined successfully</text></g><!--link Pending to TransactionFailed--><g id="link_Pending_TransactionFailed"><path d="M892.99,1180.3587 C836.81,1210.9888 773.26,1246.9488 763,1258.2188 C721.2,1304.1588 695.5005,1363.871 679.1405,1413.441 " fill="none" id="Pending-to-TransactionFailed" style="stroke:#191919;stroke-width:1.0;"/><polygon fill="#191919" points="677.26,1419.1388,683.8792,1411.8458,678.8271,1414.3907,676.2822,1409.3385,677.26,1419.1388" style="stroke:#191919;stroke-width:1.0;"/><text fill="#000000" font-family="sans-serif" font-size="13" lengthAdjust="spacing" textLength="116" x="764" y="1305.2139">Transaction reverted</text></g><!--link Pending to Stuck--><g id="link_Pending_Stuck"><path d="M983,1180.3787 C983,1204.9688 983,1228.5488 983,1251.9888 " fill="none" id="Pending-to-Stuck" style="stroke:#191919;stroke-width:1.0;"/><polygon fill="#191919" points="983,1257.9888,987,1248.9888,983,1252.9888,979,1248.9888,983,1257.9888" style="stroke:#191919;stroke-width:1.0;"/><text fill="#000000" font-family="sans-serif" font-size="13" lengthAdjust="spacing" textLength="131" x="984" y="1224.7139">Long confirmation time</text></g><!--link Stuck to Confirmed--><g id="link_Stuck_Confirmed"><path d="M1067.2,1332.6688 C1158.58,1367.3587 1298.1204,1420.3099 1389.9804,1455.1699 " fill="none" id="Stuck-to-Confirmed" style="stroke:#191919;stroke-width:1.0;"/><polygon fill="#191919" points="1395.59,1457.2988,1388.5947,1450.3658,1390.9153,1455.5247,1385.7563,1457.8453,1395.59,1457.2988" style="stroke:#191919;stroke-width:1.0;"/><text fill="#000000" font-family="sans-serif" font-size="13" lengthAdjust="spacing" textLength="119" x="1203" y="1385.7139">Eventually confirmed</text></g><!--link Stuck to TransactionFailed--><g id="link_Stuck_TransactionFailed"><path d="M898.83,1331.2988 C861.42,1345.4588 822.01,1361.2988 805,1371.2188 C781.64,1384.8388 762.7428,1398.2376 741.5328,1415.2276 " fill="none" id="Stuck-to-TransactionFailed" style="stroke:#191919;stroke-width:1.0;"/><polygon fill="#191919" points="736.85,1418.9788,746.375,1416.4739,740.7524,1415.8528,741.3735,1410.2302,736.85,1418.9788" style="stroke:#191919;stroke-width:1.0;"/><text fill="#000000" font-family="sans-serif" font-size="13" lengthAdjust="spacing" textLength="134" x="806" y="1385.7139">Dropped from mempool</text></g><!--link Stuck to Replaced--><g id="link_Stuck_Replaced"><path d="M955.22,1341.6388 C948.28,1357.0688 944.86,1374.4388 953,1389.2188 C967.97,1416.3888 988.5498,1434.2113 1015.0198,1449.6813 " fill="none" id="Stuck-to-Replaced" style="stroke:#191919;stroke-width:1.0;"/><polygon fill="#191919" points="1020.2,1452.7088,1014.448,1444.7141,1015.8832,1450.1858,1010.4114,1451.621,1020.2,1452.7088" style="stroke:#191919;stroke-width:1.0;"/><text fill="#000000" font-family="sans-serif" font-size="13" lengthAdjust="spacing" textLength="209" x="954" y="1385.7139">User sends replacement transaction</text></g><!--link Replaced to Pending--><g id="link_Replaced_Pending"><path d="M1203.73,1476.0588 C1275.4,1460.7188 1358.32,1429.8688 1329,1371.2188 C1319.06,1351.3388 1306.59,1354.7988 1289,1341.2188 C1214.87,1284.0088 1201.9,1262.1688 1124,1210.2188 C1108.64,1199.9788 1097.0406,1192.8035 1080.5406,1183.3835 " fill="none" id="Replaced-to-Pending" style="stroke:#191919;stroke-width:1.0;"/><polygon fill="#191919" points="1075.33,1180.4088,1081.1627,1188.3447,1079.6722,1182.8877,1085.1291,1181.3972,1075.33,1180.4088" style="stroke:#191919;stroke-width:1.0;"/><text fill="#000000" font-family="sans-serif" font-size="13" lengthAdjust="spacing" textLength="147" x="1290" y="1305.2139">Replacement in mempool</text></g><!--link Confirmed to WalletConnected--><g id="link_Confirmed_WalletConnected"><path d="M1566.21,1451.1688 C1621.76,1419.5888 1684,1368.9788 1684,1300.7188 C1684,272.7188 1684,272.7188 1684,272.7188 C1684,162.3788 804.88,181.6588 698,154.2188 C692.26,152.7487 692.0918,152.9331 686.3118,150.8731 " fill="none" id="Confirmed-to-WalletConnected" style="stroke:#191919;stroke-width:1.0;"/><polygon fill="#191919" points="680.66,148.8588,687.7948,155.6481,685.3698,150.5373,690.4805,148.1124,680.66,148.8588" style="stroke:#191919;stroke-width:1.0;"/><text fill="#000000" font-family="sans-serif" font-size="13" lengthAdjust="spacing" textLength="152" x="1685" y="807.2139">Ready for next transaction</text></g><!--link TransactionFailed to WalletConnected--><g id="link_TransactionFailed_WalletConnected"><path d="M578.3,1427.9988 C572.59,1424.7788 566.8,1421.8088 561,1419.2188 C445.82,1367.8587 6,1426.8288 6,1300.7188 C6,272.7188 6,272.7188 6,272.7188 C6,166.2587 357.5978,127.1201 519.2778,114.6501 " fill="none" id="TransactionFailed-to-WalletConnected" style="stroke:#191919;stroke-width:1.0;"/><polygon fill="#191919" points="525.26,114.1888,515.9791,110.8927,520.2748,114.5732,516.5942,118.869,525.26,114.1888" style="stroke:#191919;stroke-width:1.0;"/><text fill="#000000" font-family="sans-serif" font-size="13" lengthAdjust="spacing" textLength="143" x="7" y="807.2139">User acknowledges error</text></g><!--link TransactionRejected to WalletConnected--><g id="link_TransactionRejected_WalletConnected"><path d="M1245.11,760.2088 C1264.83,724.4788 1289,670.2887 1289,619.2188 C1289,272.7188 1289,272.7188 1289,272.7188 C1289,138.7687 827.32,189.1188 698,154.2188 C692.27,152.6688 692.105,152.8594 686.335,150.7494 " fill="none" id="TransactionRejected-to-WalletConnected" style="stroke:#191919;stroke-width:1.0;"/><polygon fill="#191919" points="680.7,148.6888,687.7788,155.5364,685.3959,150.406,690.5263,148.023,680.7,148.6888" style="stroke:#191919;stroke-width:1.0;"/><text fill="#000000" font-family="sans-serif" font-size="13" lengthAdjust="spacing" textLength="126" x="1290" y="440.2139">Transaction cancelled</text></g><!--link WalletConnected to NetworkError--><g id="link_WalletConnected_NetworkError"><path d="M525.31,114.6888 C432.56,123.0187 285.7,142.5587 252,184.2188 C237.44,202.2188 243.8699,215.6462 263.8099,229.7362 " fill="none" id="WalletConnected-to-NetworkError" style="stroke:#191919;stroke-width:1.0;"/><polygon fill="#191919" points="268.71,233.1988,263.6682,224.7382,264.6266,230.3133,259.0515,231.2717,268.71,233.1988" style="stroke:#191919;stroke-width:1.0;"/><text fill="#000000" font-family="sans-serif" font-size="13" lengthAdjust="spacing" textLength="139" x="253" y="198.7139">Network connection lost</text></g><!--link NetworkError to WalletConnected--><g id="link_NetworkError_WalletConnected"><path d="M387.11,232.1088 C399.6,215.6488 415.54,197.4488 433,184.2188 C460.51,163.3788 489.1579,149.0839 519.6579,136.9039 " fill="none" id="NetworkError-to-WalletConnected" style="stroke:#191919;stroke-width:1.0;"/><polygon fill="#191919" points="525.23,134.6788,515.3884,134.3018,520.5866,136.5331,518.3553,141.7313,525.23,134.6788" style="stroke:#191919;stroke-width:1.0;"/><text fill="#000000" font-family="sans-serif" font-size="13" lengthAdjust="spacing" textLength="98" x="434" y="198.7139">Network restored</text></g><!--link NetworkError to WalletDisconnected--><g id="link_NetworkError_WalletDisconnected"><path d="M275.71,315.2887 C265.41,323.7488 256.31,333.6788 250,345.2188 C242.18,359.5187 240.7024,371.1838 242.4124,386.9338 " fill="none" id="NetworkError-to-WalletDisconnected" style="stroke:#191919;stroke-width:1.0;"/><polygon fill="#191919" points="243.06,392.8988,246.0652,383.5196,242.5203,387.928,238.1119,384.3831,243.06,392.8988" style="stroke:#191919;stroke-width:1.0;"/><text fill="#000000" font-family="sans-serif" font-size="13" lengthAdjust="spacing" textLength="146" x="251" y="359.7139">Extended network issues</text></g><!--link WalletConnected to AdminVerification--><g id="link_WalletConnected_AdminVerification"><path d="M680.7,146.1988 C686.55,148.9288 692.36,151.6288 698,154.2188 C761.97,183.6088 829.5595,213.6692 882.9095,237.1792 " fill="none" id="WalletConnected-to-AdminVerification" style="stroke:#191919;stroke-width:1.0;"/><polygon fill="#191919" points="888.4,239.5988,881.7772,232.3091,883.8246,237.5825,878.5512,239.6298,888.4,239.5988" style="stroke:#191919;stroke-width:1.0;"/><text fill="#000000" font-family="sans-serif" font-size="13" lengthAdjust="spacing" textLength="147" x="802" y="198.7139">Admin function requested</text></g><!--link AdminVerification to AdminTransactionInitiated--><g id="link_AdminVerification_AdminTransactionInitiated"><path d="M932.98,307.7288 C924.49,318.8087 916.42,331.7787 912,345.2188 C907.04,360.2887 906.3587,371.5987 908.1287,386.8587 " fill="none" id="AdminVerification-to-AdminTransactionInitiated" style="stroke:#191919;stroke-width:1.0;"/><polygon fill="#191919" points="908.82,392.8187,911.7564,383.4178,908.2439,387.852,903.8097,384.3396,908.82,392.8187" style="stroke:#191919;stroke-width:1.0;"/><text fill="#000000" font-family="sans-serif" font-size="13" lengthAdjust="spacing" textLength="80" x="913" y="359.7139">Admin verified</text></g><!--link AdminVerification to AccessDenied--><g id="link_AdminVerification_AccessDenied"><path d="M987.69,308.0687 C1000.57,325.2787 1017.25,346.1688 1034,363.2188 C1044.01,373.4088 1050.8171,379.7499 1061.9871,389.0899 " fill="none" id="AdminVerification-to-AccessDenied" style="stroke:#191919;stroke-width:1.0;"/><polygon fill="#191919" points="1066.59,392.9388,1062.2515,384.0969,1062.7542,389.7314,1057.1198,390.2341,1066.59,392.9388" style="stroke:#191919;stroke-width:1.0;"/><text fill="#000000" font-family="sans-serif" font-size="13" lengthAdjust="spacing" textLength="59" x="1035" y="359.7139">Not admin</text></g><!--link AccessDenied to WalletConnected--><g id="link_AccessDenied_WalletConnected"><path d="M1120,392.9388 C1117.87,348.4288 1107.98,277.4688 1069,232.2188 C959.03,104.5587 860,200.5587 698,154.2188 C692.3,152.5887 692.13,152.7501 686.38,150.6001 " fill="none" id="AccessDenied-to-WalletConnected" style="stroke:#191919;stroke-width:1.0;"/><polygon fill="#191919" points="680.76,148.4987,687.789,155.3975,685.4433,150.2499,690.5909,147.9042,680.76,148.4987" style="stroke:#191919;stroke-width:1.0;"/><text fill="#000000" font-family="sans-serif" font-size="13" lengthAdjust="spacing" textLength="113" x="1109" y="279.2139">User acknowledges</text></g><!--link AdminTransactionInitiated to WaitingSignature--><g id="link_AdminTransactionInitiated_WaitingSignature"><path d="M918.45,476.4488 C918.7,499.3387 918.9525,522.3991 919.2425,548.1691 " fill="none" id="AdminTransactionInitiated-to-WaitingSignature" style="stroke:#191919;stroke-width:1.0;"/><polygon fill="#191919" points="919.31,554.1688,923.2085,545.1243,919.2537,549.1691,915.209,545.2143,919.31,554.1688" style="stroke:#191919;stroke-width:1.0;"/><text fill="#000000" font-family="sans-serif" font-size="13" lengthAdjust="spacing" textLength="163" x="920" y="520.7139">Admin tx ready for signature</text></g><!--SRC=[bLZRRXit47tNLx3nGnEZCjG0QH4_591rQGB4hk5R2pHze7OfYTMAt99SsMeHeD_IJ-kNT8QN5RdYnYdyO7ldp73kC-HNPissZ6ofqWEzuQAcYcx9WXQRbPADA2UoaeeyhhbX4Lr8myXV0q8kEi2J-Nm-daoH8bN9bFyw7O_Vl1uDFWq6XfkAaVlxwzlX0nCb5wjBMgovOEJXDHcIMqD1yfJJ5HppKLmoGo-ftf0xHOMcXU5IE8mU37uz_OqCXp-GdsbLCJFbkf12iCAmafoJzu8RJYkY4JmOs5yv91gH5N2l6TXjAMWkQMbz3DDnNHEzbe-Ql9YuxoJe_wAFwKgIHIMBJR6cN10k35FUobfgpHSLGwTbMD5mVmhuCEXRLBpOPC_t7eXOqF94GkjizcIOqAY4h9a0OXTvm_vecBR_qAA0w1lypRJk0grIj35hgVYVrDdbeevcHT1372VT6D2wLdB7T8W02CbpvWAesE_mVyARvC8aamYn1kuBeMMfm3n2TvHN5AEI0ziCg2GjDMdmy98QcWNUC5hkoH8gmnpoMXyYFKd27EM-o-h8FgFuQiMKZWLz52yNpVvQoR8fp3UeU_itCyNPg-mX_Iuiss_QrqDmOLOnz6EFnjO_jMBGGrYYSJ_BZrGJpBIjInwe4KY6bNAfriCJzmhRhfX13sbG73oSPN8Uu9XGjtmbg6aKwqZI3BBSoBPA-WL5X3caIywE9NpNXqpi7EnIyKYRjZvhMJSrngMkwDutfC_gNW8d76YxayZ3NQXPmNLSf5dea8otMFFdv1SoktlN1mAJpydCsTodv93SoNDi6GRRNYWpLmWTSCUpICZqY3YfdXDnOtl3SQ-8PHndkZ-ua-QjEadAk8-FtAmXRVaE9MtOleVpsXO6jZHi30i5VQIWslIWhwGe6A7QdT59R8z2Uo-27DUGRrrWCP45CuzIROA92T2EzfGpLmjRjgsbh8x1tlNMaYqCTqLg64nDVOoySbfWMTTqPQi3ZKbGQCUrLpnL1Ff1qE688rU6uJIc56WcGyoZI8Tpq0FvC-cZDmwwuf8hLz49-hqeggQ40q4zEzr9GO5MuYOIuouv3jTEKpkGuuKYwMaESNPszW9T5HZyHe0gMLilxCde_PBenexdPLDL-uGXvwJuBCLsJ67vnaotfW79v-I3x7Y1GB6tovP3eHy3FXPiwCRbeOI9QJlDGUeZMK6xX8g136_Ne0CW115ENc5FTHdZg5qdp7QGgWrChNrG56mvG7FcJo4JQ_XhgUIspQu3oms3hbiSkWRK0inxvRvkRM4Szu-M2TqHINZ7LskGWUQQJdsbm9zWpdC1-smCWwmg60paCiLUiSS41ic5mVTBLmjCg-ecCY2ggiFQw5tgjyRMmKbRQBEi0tAfc6IAOWNZEwjwZBo5YuZTjTr0O4-iQCmHoaOL1kgMcsEYAnkhTbENTlQuNTCZyglcOIKJiFu-CmDyhdHcGBQ0blPZ3t1csz0MV4PNB1deEVIrBmM8EwoN-hm7DeJ-evlbaXSSWmcvrGji1wyhyrvSqZQ_xDWbN0brPonvxETs_M8Zv2E0eB3zQSVUR-Tsn__TUTwMH_-g6R7qtiHwEMoYAGQhXT0u3M6ptN7PQ7_dJ6rl-VBMtsNBUl1rSFrGiSekcCuRrY3kRWsvRTvpkVnAEgQ_1K7JXTKYWUKL2wmmdOnKe5CFJ-VcCCCh98v0lsKGhdN3sfKt4O9Xx2XySps9bMsBg0CRLyMQRVTmFo-Xs8LY5ABdXaK76StIIAxBi4_evziQTb_ehm-loRY4eHbU6NBUjO07fZWak-jcvvu9iZxCJNj3nXWwYuzvqEoSfCcQ5NOsSct9B_rM_AeF7ugu05N9BYAYPSSShGKzroTdYPC3-lS8i9r-oWJtnOFBEm1RSsEwjJHbS8UuHmFhBAviW3kmUV0dli34b-yExXOY2tkHsaAQ9O5DS5_OU9AGzTvndtTXcmp-obi-mnKj0nM7qMPlh9zd2LcxenMkbt7C_yyzr-bhdY0IOGhgGBR5mRPK65xuvpdxgAVj_50AdvckAo3VNtuWUYyCVN82BBHqBtcwvz7bvEreDdixEjeo_7T2dWr5aD0xf4_cyull9j_c6azAIb8b9UNwU41qxWtmUVhzQDHtjK_9oPqb9Rc54xwDtun6cTUxaza8V_eVDbF0SHK7-i2-vS9wkJP4BhiH6foUGaUSYJNEf9BCcJL3dvuE_ltx7vytIi9EalGTIuDjTGyve-qpc7qMmmqKIR1hLKEyAf05hL2mNzIqfThb3Ye0kgS8TyZxzvXQnG2SRD-UlTOBQGmiwQ1scpgWSF9Mx5PI2AuTbbxlUtiSBiRuB0QDqz1A1jsMOD_QFU05zOWd5LALf6uKJ1dDo9hZIDnRccr0Vlz53LDVpB2QQUiGvjRNbm-lNtKjgjZIXk4eZy4kbxIe1JXxxqsvfWfKOV4YwHHgLdWvSdQ41qOaV93EfILR02I4P5nLChqrm6BZRRC3AJo5UvSSzFuF]--></g></svg>