<?xml version="1.0" encoding="us-ascii" standalone="no"?><svg xmlns="http://www.w3.org/2000/svg" xmlns:xlink="http://www.w3.org/1999/xlink" contentStyleType="text/css" height="859.1667px" preserveAspectRatio="none" style="width:645px;height:859px;background:#FFFFFF;" version="1.1" viewBox="0 0 645 859" width="645.8333px" zoomAndPan="magnify"><defs/><g><rect fill="none" height="57.1777" id="_title" rx="3.3333" ry="3.3333" style="stroke:#EEEEEE;stroke-width:0.8333333333333334;" width="440.8333" x="96.8167" y="4.1667"/><text fill="#EC7211" font-family="Verdana" font-size="16.6667" font-weight="bold" lengthAdjust="spacing" textLength="424.1667" x="105.15" y="29.2562">UUPS-VendingMachine V2 - Package Diagram</text><text fill="#EC7211" font-family="Verdana" font-size="16.6667" font-weight="bold" lengthAdjust="spacing" textLength="265" x="184.7333" y="49.5117">Code Organization Structure</text><!--cluster contracts--><g id="cluster_contracts"><rect fill="none" height="155.8333" rx="3.3333" ry="3.3333" style="stroke:#4E5D6C;stroke-width:1.6666666666666667;" width="279.1667" x="346.1333" y="636.3444"/><text fill="#4E5D6C" font-family="Verdana" font-size="10" font-weight="bold" lengthAdjust="spacing" textLength="50.8333" x="460.3" y="652.2314">contracts</text></g><!--cluster scripts--><g id="cluster_scripts"><rect fill="none" height="135.8333" rx="3.3333" ry="3.3333" style="stroke:#4E5D6C;stroke-width:1.6666666666666667;" width="124.1667" x="195.3" y="550.5111"/><text fill="#4E5D6C" font-family="Verdana" font-size="10" font-weight="bold" lengthAdjust="spacing" textLength="36.6667" x="239.05" y="566.3981">scripts</text></g><!--cluster test--><g id="cluster_test"><rect fill="none" height="135.8333" rx="3.3333" ry="3.3333" style="stroke:#4E5D6C;stroke-width:1.6666666666666667;" width="110" x="202.3833" y="706.3444"/><text fill="#4E5D6C" font-family="Verdana" font-size="10" font-weight="bold" lengthAdjust="spacing" textLength="20.8333" x="246.9667" y="722.2314">test</text></g><!--cluster frontend--><g id="cluster_frontend"><rect fill="none" height="109.1667" rx="3.3333" ry="3.3333" style="stroke:#4E5D6C;stroke-width:1.6666666666666667;" width="430.8333" x="30.3" y="392.1777"/><text fill="#4E5D6C" font-family="Verdana" font-size="10" font-weight="bold" lengthAdjust="spacing" textLength="46.6667" x="222.3833" y="408.0648">frontend</text></g><!--cluster config--><g id="cluster_config"><rect fill="none" height="135.8333" rx="3.3333" ry="3.3333" style="stroke:#4E5D6C;stroke-width:1.6666666666666667;" width="148.3333" x="26.9667" y="181.3444"/><text fill="#4E5D6C" font-family="Verdana" font-size="10" font-weight="bold" lengthAdjust="spacing" textLength="33.3333" x="84.4667" y="197.2314">config</text></g><!--cluster data--><g id="cluster_data"><rect fill="none" height="89.1667" rx="3.3333" ry="3.3333" style="stroke:#4E5D6C;stroke-width:1.6666666666666667;" width="125.8333" x="38.2167" y="72.1777"/><text fill="#4E5D6C" font-family="Verdana" font-size="10" font-weight="bold" lengthAdjust="spacing" textLength="24.1667" x="89.05" y="88.0648">data</text></g><!--cluster deps--><g id="cluster_deps"><rect fill="none" height="155.8333" rx="3.3333" ry="3.3333" style="stroke:#4E5D6C;stroke-width:1.6666666666666667;" width="146.6667" x="494.4667" y="447.1777"/><text fill="#4E5D6C" font-family="Verdana" font-size="10" font-weight="bold" lengthAdjust="spacing" textLength="75" x="530.3" y="463.0648">dependencies</text></g><!--entity V1--><g id="elem_V1"><rect fill="#4E5D6C" height="39.6533" rx="3.3333" ry="3.3333" style="stroke:#3E4A56;stroke-width:0.8333333333333334;" width="75" x="366.1333" y="678.8444"/><polygon fill="#4E5D6C" points="426.9667,683.0111,426.9667,694.6777,436.9667,694.6777,436.9667,688.0111,431.9667,683.0111,426.9667,683.0111" style="stroke:#3E4A56;stroke-width:0.8333333333333334;"/><line style="stroke:#3E4A56;stroke-width:0.8333333333333334;" x1="431.9667" x2="431.9667" y1="683.0111" y2="688.0111"/><line style="stroke:#3E4A56;stroke-width:0.8333333333333334;" x1="436.9667" x2="431.9667" y1="688.0111" y2="688.0111"/><text fill="#ABB6C2" font-family="Verdana" font-size="10" lengthAdjust="spacing" textLength="31.6667" x="378.6333" y="703.8981">V1.sol</text></g><!--entity V2--><g id="elem_V2"><rect fill="#4E5D6C" height="39.6533" rx="3.3333" ry="3.3333" style="stroke:#3E4A56;stroke-width:0.8333333333333334;" width="75" x="366.1333" y="725.5111"/><polygon fill="#4E5D6C" points="426.9667,729.6777,426.9667,741.3444,436.9667,741.3444,436.9667,734.6777,431.9667,729.6777,426.9667,729.6777" style="stroke:#3E4A56;stroke-width:0.8333333333333334;"/><line style="stroke:#3E4A56;stroke-width:0.8333333333333334;" x1="431.9667" x2="431.9667" y1="729.6777" y2="734.6777"/><line style="stroke:#3E4A56;stroke-width:0.8333333333333334;" x1="436.9667" x2="431.9667" y1="734.6777" y2="734.6777"/><text fill="#ABB6C2" font-family="Verdana" font-size="10" lengthAdjust="spacing" textLength="31.6667" x="378.6333" y="750.5648">V2.sol</text></g><!--entity Lib--><g id="elem_Lib"><rect fill="#4E5D6C" height="39.6533" rx="3.3333" ry="3.3333" style="stroke:#3E4A56;stroke-width:0.8333333333333334;" width="75" x="530.3" y="725.5111"/><polygon fill="#4E5D6C" points="591.1333,729.6777,591.1333,741.3444,601.1333,741.3444,601.1333,734.6777,596.1333,729.6777,591.1333,729.6777" style="stroke:#3E4A56;stroke-width:0.8333333333333334;"/><line style="stroke:#3E4A56;stroke-width:0.8333333333333334;" x1="596.1333" x2="596.1333" y1="729.6777" y2="734.6777"/><line style="stroke:#3E4A56;stroke-width:0.8333333333333334;" x1="601.1333" x2="596.1333" y1="734.6777" y2="734.6777"/><text fill="#ABB6C2" font-family="Verdana" font-size="10" lengthAdjust="spacing" textLength="33.3333" x="542.8" y="750.5648">Lib.sol</text></g><!--entity Deploy--><g id="elem_Deploy"><rect fill="#4E5D6C" height="39.6533" rx="3.3333" ry="3.3333" style="stroke:#3E4A56;stroke-width:0.8333333333333334;" width="80.8333" x="216.9667" y="586.3444"/><polygon fill="#4E5D6C" points="283.6333,590.5111,283.6333,602.1777,293.6333,602.1777,293.6333,595.5111,288.6333,590.5111,283.6333,590.5111" style="stroke:#3E4A56;stroke-width:0.8333333333333334;"/><line style="stroke:#3E4A56;stroke-width:0.8333333333333334;" x1="288.6333" x2="288.6333" y1="590.5111" y2="595.5111"/><line style="stroke:#3E4A56;stroke-width:0.8333333333333334;" x1="293.6333" x2="288.6333" y1="595.5111" y2="595.5111"/><text fill="#ABB6C2" font-family="Verdana" font-size="10" lengthAdjust="spacing" textLength="47.5" x="229.4667" y="611.3981">deploy.js</text></g><!--entity DeployV2--><g id="elem_DeployV2"><rect fill="#4E5D6C" height="39.6533" rx="3.3333" ry="3.3333" style="stroke:#3E4A56;stroke-width:0.8333333333333334;" width="97.5" x="208.6333" y="633.0111"/><polygon fill="#4E5D6C" points="291.9667,637.1777,291.9667,648.8444,301.9667,648.8444,301.9667,642.1777,296.9667,637.1777,291.9667,637.1777" style="stroke:#3E4A56;stroke-width:0.8333333333333334;"/><line style="stroke:#3E4A56;stroke-width:0.8333333333333334;" x1="296.9667" x2="296.9667" y1="637.1777" y2="642.1777"/><line style="stroke:#3E4A56;stroke-width:0.8333333333333334;" x1="301.9667" x2="296.9667" y1="642.1777" y2="642.1777"/><text fill="#ABB6C2" font-family="Verdana" font-size="10" lengthAdjust="spacing" textLength="64.1667" x="221.1333" y="658.0648">deploy-v2.js</text></g><!--entity TestV1--><g id="elem_TestV1"><rect fill="#4E5D6C" height="39.6533" rx="3.3333" ry="3.3333" style="stroke:#3E4A56;stroke-width:0.8333333333333334;" width="83.3333" x="215.7167" y="742.1777"/><polygon fill="#4E5D6C" points="284.8833,746.3444,284.8833,758.0111,294.8833,758.0111,294.8833,751.3444,289.8833,746.3444,284.8833,746.3444" style="stroke:#3E4A56;stroke-width:0.8333333333333334;"/><line style="stroke:#3E4A56;stroke-width:0.8333333333333334;" x1="289.8833" x2="289.8833" y1="746.3444" y2="751.3444"/><line style="stroke:#3E4A56;stroke-width:0.8333333333333334;" x1="294.8833" x2="289.8833" y1="751.3444" y2="751.3444"/><text fill="#ABB6C2" font-family="Verdana" font-size="10" lengthAdjust="spacing" textLength="50" x="228.2167" y="767.2314">V1.test.js</text></g><!--entity TestV2--><g id="elem_TestV2"><rect fill="#4E5D6C" height="39.6533" rx="3.3333" ry="3.3333" style="stroke:#3E4A56;stroke-width:0.8333333333333334;" width="83.3333" x="215.7167" y="788.8444"/><polygon fill="#4E5D6C" points="284.8833,793.0111,284.8833,804.6777,294.8833,804.6777,294.8833,798.0111,289.8833,793.0111,284.8833,793.0111" style="stroke:#3E4A56;stroke-width:0.8333333333333334;"/><line style="stroke:#3E4A56;stroke-width:0.8333333333333334;" x1="289.8833" x2="289.8833" y1="793.0111" y2="798.0111"/><line style="stroke:#3E4A56;stroke-width:0.8333333333333334;" x1="294.8833" x2="289.8833" y1="798.0111" y2="798.0111"/><text fill="#ABB6C2" font-family="Verdana" font-size="10" lengthAdjust="spacing" textLength="50" x="228.2167" y="813.8981">V2.test.js</text></g><!--entity Components--><g id="elem_Components"><rect fill="#4E5D6C" height="39.6533" rx="3.3333" ry="3.3333" style="stroke:#3E4A56;stroke-width:0.8333333333333334;" width="101.6667" x="50.3" y="434.6777"/><polygon fill="#4E5D6C" points="137.8,438.8444,137.8,450.5111,147.8,450.5111,147.8,443.8444,142.8,438.8444,137.8,438.8444" style="stroke:#3E4A56;stroke-width:0.8333333333333334;"/><line style="stroke:#3E4A56;stroke-width:0.8333333333333334;" x1="142.8" x2="142.8" y1="438.8444" y2="443.8444"/><line style="stroke:#3E4A56;stroke-width:0.8333333333333334;" x1="147.8" x2="142.8" y1="443.8444" y2="443.8444"/><text fill="#ABB6C2" font-family="Verdana" font-size="10" lengthAdjust="spacing" textLength="68.3333" x="62.8" y="459.7314">components/</text></g><!--entity Hooks--><g id="elem_Hooks"><rect fill="#4E5D6C" height="39.6533" rx="3.3333" ry="3.3333" style="stroke:#3E4A56;stroke-width:0.8333333333333334;" width="75" x="219.8833" y="434.6777"/><polygon fill="#4E5D6C" points="280.7167,438.8444,280.7167,450.5111,290.7167,450.5111,290.7167,443.8444,285.7167,438.8444,280.7167,438.8444" style="stroke:#3E4A56;stroke-width:0.8333333333333334;"/><line style="stroke:#3E4A56;stroke-width:0.8333333333333334;" x1="285.7167" x2="285.7167" y1="438.8444" y2="443.8444"/><line style="stroke:#3E4A56;stroke-width:0.8333333333333334;" x1="290.7167" x2="285.7167" y1="443.8444" y2="443.8444"/><text fill="#ABB6C2" font-family="Verdana" font-size="10" lengthAdjust="spacing" textLength="35.8333" x="232.3833" y="459.7314">hooks/</text></g><!--entity Utils--><g id="elem_Utils"><rect fill="#4E5D6C" height="39.6533" rx="3.3333" ry="3.3333" style="stroke:#3E4A56;stroke-width:0.8333333333333334;" width="75" x="366.1333" y="434.6777"/><polygon fill="#4E5D6C" points="426.9667,438.8444,426.9667,450.5111,436.9667,450.5111,436.9667,443.8444,431.9667,438.8444,426.9667,438.8444" style="stroke:#3E4A56;stroke-width:0.8333333333333334;"/><line style="stroke:#3E4A56;stroke-width:0.8333333333333334;" x1="431.9667" x2="431.9667" y1="438.8444" y2="443.8444"/><line style="stroke:#3E4A56;stroke-width:0.8333333333333334;" x1="436.9667" x2="431.9667" y1="443.8444" y2="443.8444"/><text fill="#ABB6C2" font-family="Verdana" font-size="10" lengthAdjust="spacing" textLength="25.8333" x="378.6333" y="459.7314">utils/</text></g><!--entity Hardhat--><g id="elem_Hardhat"><rect fill="#4E5D6C" height="39.6533" rx="3.3333" ry="3.3333" style="stroke:#3E4A56;stroke-width:0.8333333333333334;" width="121.6667" x="40.3" y="217.1777"/><polygon fill="#4E5D6C" points="147.8,221.3444,147.8,233.0111,157.8,233.0111,157.8,226.3444,152.8,221.3444,147.8,221.3444" style="stroke:#3E4A56;stroke-width:0.8333333333333334;"/><line style="stroke:#3E4A56;stroke-width:0.8333333333333334;" x1="152.8" x2="152.8" y1="221.3444" y2="226.3444"/><line style="stroke:#3E4A56;stroke-width:0.8333333333333334;" x1="157.8" x2="152.8" y1="226.3444" y2="226.3444"/><text fill="#ABB6C2" font-family="Verdana" font-size="10" lengthAdjust="spacing" textLength="88.3333" x="52.8" y="242.2314">hardhat.config.js</text></g><!--entity Package--><g id="elem_Package"><rect fill="#4E5D6C" height="39.6533" rx="3.3333" ry="3.3333" style="stroke:#3E4A56;stroke-width:0.8333333333333334;" width="103.3333" x="49.4667" y="263.8444"/><polygon fill="#4E5D6C" points="138.6333,268.0111,138.6333,279.6777,148.6333,279.6777,148.6333,273.0111,143.6333,268.0111,138.6333,268.0111" style="stroke:#3E4A56;stroke-width:0.8333333333333334;"/><line style="stroke:#3E4A56;stroke-width:0.8333333333333334;" x1="143.6333" x2="143.6333" y1="268.0111" y2="273.0111"/><line style="stroke:#3E4A56;stroke-width:0.8333333333333334;" x1="148.6333" x2="143.6333" y1="273.0111" y2="273.0111"/><text fill="#ABB6C2" font-family="Verdana" font-size="10" lengthAdjust="spacing" textLength="70" x="61.9667" y="288.8981">package.json</text></g><!--entity CSV--><g id="elem_CSV"><rect fill="#4E5D6C" height="39.6533" rx="3.3333" ry="3.3333" style="stroke:#3E4A56;stroke-width:0.8333333333333334;" width="99.1667" x="51.55" y="108.0111"/><polygon fill="#4E5D6C" points="136.55,112.1777,136.55,123.8444,146.55,123.8444,146.55,117.1777,141.55,112.1777,136.55,112.1777" style="stroke:#3E4A56;stroke-width:0.8333333333333334;"/><line style="stroke:#3E4A56;stroke-width:0.8333333333333334;" x1="141.55" x2="141.55" y1="112.1777" y2="117.1777"/><line style="stroke:#3E4A56;stroke-width:0.8333333333333334;" x1="146.55" x2="141.55" y1="117.1777" y2="117.1777"/><text fill="#ABB6C2" font-family="Verdana" font-size="10" lengthAdjust="spacing" textLength="65.8333" x="64.05" y="133.0648">products.csv</text></g><!--entity OZ--><g id="elem_OZ"><rect fill="#4E5D6C" height="39.6533" rx="3.3333" ry="3.3333" style="stroke:#3E4A56;stroke-width:0.8333333333333334;" width="106.6667" x="514.4667" y="543.0111"/><polygon fill="#4E5D6C" points="606.9667,547.1777,606.9667,558.8444,616.9667,558.8444,616.9667,552.1777,611.9667,547.1777,606.9667,547.1777" style="stroke:#3E4A56;stroke-width:0.8333333333333334;"/><line style="stroke:#3E4A56;stroke-width:0.8333333333333334;" x1="611.9667" x2="611.9667" y1="547.1777" y2="552.1777"/><line style="stroke:#3E4A56;stroke-width:0.8333333333333334;" x1="616.9667" x2="611.9667" y1="552.1777" y2="552.1777"/><text fill="#ABB6C2" font-family="Verdana" font-size="10" lengthAdjust="spacing" textLength="73.3333" x="526.9667" y="568.0648">OpenZeppelin</text></g><!--entity ReactEthers--><g id="elem_ReactEthers"><rect fill="#4E5D6C" height="39.6533" rx="3.3333" ry="3.3333" style="stroke:#3E4A56;stroke-width:0.8333333333333334;" width="100.8333" x="517.3833" y="496.3444"/><polygon fill="#4E5D6C" points="604.05,500.5111,604.05,512.1777,614.05,512.1777,614.05,505.5111,609.05,500.5111,604.05,500.5111" style="stroke:#3E4A56;stroke-width:0.8333333333333334;"/><line style="stroke:#3E4A56;stroke-width:0.8333333333333334;" x1="609.05" x2="609.05" y1="500.5111" y2="505.5111"/><line style="stroke:#3E4A56;stroke-width:0.8333333333333334;" x1="614.05" x2="609.05" y1="505.5111" y2="505.5111"/><text fill="#ABB6C2" font-family="Verdana" font-size="10" lengthAdjust="spacing" textLength="67.5" x="529.8833" y="521.3981">React/Ethers</text></g><g id="elem_GMN34"><path d="M506.55,815.9277 L506.55,850.2344 A3.3333,3.3333 0 0 0 509.8833,853.5677 L625.7167,853.5677 A3.3333,3.3333 0 0 0 629.05,850.2344 L629.05,820.9277 L620.7167,812.5944 L509.8833,812.5944 A3.3333,3.3333 0 0 0 506.55,815.9277 " fill="#0073BB" style="stroke:#005C96;stroke-width:0.8333333333333334;"/><path d="M620.7167,812.5944 L620.7167,819.2611 A1.6667,1.6667 0 0 0 622.3833,820.9277 L629.05,820.9277 L620.7167,812.5944 " fill="#0073BB" style="stroke:#005C96;stroke-width:0.8333333333333334;"/><text fill="#FFFFFF" font-family="Verdana" font-size="10" lengthAdjust="spacing" textLength="30.8333" x="515.7167" y="830.9814">Smart</text><text fill="#FFFFFF" font-family="Verdana" font-size="10" lengthAdjust="spacing" textLength="3.3333" x="546.55" y="830.9814">&#160;</text><text fill="#FFFFFF" font-family="Verdana" font-size="10" lengthAdjust="spacing" textLength="48.3333" x="549.8833" y="830.9814">contracts</text><text fill="#FFFFFF" font-family="Verdana" font-size="10" lengthAdjust="spacing" textLength="22.5" x="515.7167" y="843.1348">with</text><text fill="#FFFFFF" font-family="Verdana" font-size="10" lengthAdjust="spacing" textLength="3.3333" x="538.2167" y="843.1348">&#160;</text><text fill="#FFFFFF" font-family="Verdana" font-size="10" lengthAdjust="spacing" textLength="28.3333" x="541.55" y="843.1348">UUPS</text><text fill="#FFFFFF" font-family="Verdana" font-size="10" lengthAdjust="spacing" textLength="3.3333" x="569.8833" y="843.1348">&#160;</text><text fill="#FFFFFF" font-family="Verdana" font-size="10" lengthAdjust="spacing" textLength="39.1667" x="573.2167" y="843.1348">pattern</text></g><g id="elem_GMN37"><path d="M42.3833,334.2611 L42.3833,368.5677 A3.3333,3.3333 0 0 0 45.7167,371.901 L156.55,371.901 A3.3333,3.3333 0 0 0 159.8833,368.5677 L159.8833,339.2611 L151.55,330.9277 L45.7167,330.9277 A3.3333,3.3333 0 0 0 42.3833,334.2611 " fill="#0073BB" style="stroke:#005C96;stroke-width:0.8333333333333334;"/><path d="M151.55,330.9277 L151.55,337.5944 A1.6667,1.6667 0 0 0 153.2167,339.2611 L159.8833,339.2611 L151.55,330.9277 " fill="#0073BB" style="stroke:#005C96;stroke-width:0.8333333333333334;"/><text fill="#FFFFFF" font-family="Verdana" font-size="10" lengthAdjust="spacing" textLength="29.1667" x="51.55" y="349.3148">React</text><text fill="#FFFFFF" font-family="Verdana" font-size="10" lengthAdjust="spacing" textLength="3.3333" x="80.7167" y="349.3148">&#160;</text><text fill="#FFFFFF" font-family="Verdana" font-size="10" lengthAdjust="spacing" textLength="27.5" x="84.05" y="349.3148">DApp</text><text fill="#FFFFFF" font-family="Verdana" font-size="10" lengthAdjust="spacing" textLength="3.3333" x="111.55" y="349.3148">&#160;</text><text fill="#FFFFFF" font-family="Verdana" font-size="10" lengthAdjust="spacing" textLength="22.5" x="114.8833" y="349.3148">with</text><text fill="#FFFFFF" font-family="Verdana" font-size="10" lengthAdjust="spacing" textLength="30.8333" x="51.55" y="361.4681">Web3</text><text fill="#FFFFFF" font-family="Verdana" font-size="10" lengthAdjust="spacing" textLength="3.3333" x="82.3833" y="361.4681">&#160;</text><text fill="#FFFFFF" font-family="Verdana" font-size="10" lengthAdjust="spacing" textLength="57.5" x="85.7167" y="361.4681">integration</text></g><g id="elem_GMN40"><path d="M346.55,525.0944 L346.55,559.401 A3.3333,3.3333 0 0 0 349.8833,562.7344 L457.3833,562.7344 A3.3333,3.3333 0 0 0 460.7167,559.401 L460.7167,530.0944 L452.3833,521.7611 L349.8833,521.7611 A3.3333,3.3333 0 0 0 346.55,525.0944 " fill="#0073BB" style="stroke:#005C96;stroke-width:0.8333333333333334;"/><path d="M452.3833,521.7611 L452.3833,528.4277 A1.6667,1.6667 0 0 0 454.05,530.0944 L460.7167,530.0944 L452.3833,521.7611 " fill="#0073BB" style="stroke:#005C96;stroke-width:0.8333333333333334;"/><text fill="#FFFFFF" font-family="Verdana" font-size="10" lengthAdjust="spacing" textLength="43.3333" x="355.7167" y="540.1481">External</text><text fill="#FFFFFF" font-family="Verdana" font-size="10" lengthAdjust="spacing" textLength="3.3333" x="399.05" y="540.1481">&#160;</text><text fill="#FFFFFF" font-family="Verdana" font-size="10" lengthAdjust="spacing" textLength="41.6667" x="402.3833" y="540.1481">libraries</text><text fill="#FFFFFF" font-family="Verdana" font-size="10" lengthAdjust="spacing" textLength="20" x="355.7167" y="552.3014">and</text><text fill="#FFFFFF" font-family="Verdana" font-size="10" lengthAdjust="spacing" textLength="3.3333" x="375.7167" y="552.3014">&#160;</text><text fill="#FFFFFF" font-family="Verdana" font-size="10" lengthAdjust="spacing" textLength="61.6667" x="379.05" y="552.3014">frameworks</text></g><!--link V1 to OZ--><g id="link_V1_OZ"><path d="M428.45,678.8027 C459.1667,653.1194 508.2892,612.0683 539.0558,586.3433 " fill="none" id="V1-to-OZ" style="stroke:#EC7211;stroke-width:2.5;"/><polygon fill="#EC7211" points="542.8917,583.1361,534.9998,585.3897,539.6951,585.8088,539.2761,590.5042,542.8917,583.1361" style="stroke:#EC7211;stroke-width:2.5;"/></g><!--link V2 to OZ--><g id="link_V2_OZ"><path d="M441.3333,741.1944 C453.6167,737.9027 466.25,732.1694 474.4667,722.1777 C489.1833,704.3027 472.1,691.8277 481.1333,670.5111 C495.775,635.9944 521.1923,606.8993 541.4089,586.841 " fill="none" id="V2-to-OZ" style="stroke:#EC7211;stroke-width:2.5;"/><polygon fill="#EC7211" points="544.9583,583.3194,537.2865,586.2355,542.0005,586.2541,541.982,590.9681,544.9583,583.3194" style="stroke:#EC7211;stroke-width:2.5;"/></g><!--link V2 to Lib--><g id="link_V2_Lib"><path d="M441.3417,745.5111 C467.9333,745.5111 498.6833,745.5111 525.2417,745.5111 " fill="none" id="V2-to-Lib" style="stroke:#EC7211;stroke-width:2.5;"/><polygon fill="#EC7211" points="530.2417,745.5111,522.7417,742.1777,526.075,745.5111,522.7417,748.8444,530.2417,745.5111" style="stroke:#EC7211;stroke-width:2.5;"/></g><!--link Deploy to V1--><g id="link_Deploy_V1"><path d="M297.8417,616.9611 C307.4417,620.3361 317.4333,624.5527 326.1333,629.6777 C348.5333,642.8694 366.6985,659.6934 381.2402,674.9351 " fill="none" id="Deploy-to-V1" style="stroke:#EC7211;stroke-width:2.5;"/><polygon fill="#EC7211" points="384.6917,678.5527,381.9262,670.8253,381.8154,675.538,377.1027,675.4273,384.6917,678.5527" style="stroke:#EC7211;stroke-width:2.5;"/></g><!--link DeployV2 to V2--><g id="link_DeployV2_V2"><path d="M275.4083,673.0694 C289.4833,688.3861 310.6167,709.0361 332.8,722.1777 C342.9417,728.1861 350.073,731.3566 361.148,734.9149 " fill="none" id="DeployV2-to-V2" style="stroke:#EC7211;stroke-width:2.5;"/><polygon fill="#EC7211" points="365.9083,736.4444,359.7875,730.9766,361.9414,735.1698,357.7482,737.3238,365.9083,736.4444" style="stroke:#EC7211;stroke-width:2.5;"/></g><!--link TestV1 to V1--><g id="link_TestV1_V1"><path d="M292.8917,741.9944 C305.2667,735.2194 319.4417,727.9361 332.8,722.1777 C343.3917,717.6111 350.4359,714.9468 361.2776,711.3635 " fill="none" id="TestV1-to-V1" style="stroke:#EC7211;stroke-width:2.5;"/><polygon fill="#EC7211" points="366.025,709.7944,357.8578,708.9831,362.0688,711.102,359.9499,715.313,366.025,709.7944" style="stroke:#EC7211;stroke-width:2.5;"/></g><!--link TestV2 to V2--><g id="link_TestV2_V2"><path d="M299.075,801.0527 C308.8667,797.6027 318.6417,792.6444 326.1333,785.5111 C331.9167,780.0111 327,774.3194 332.8,768.8444 C341.8417,760.3194 349.2851,756.3088 361.0018,752.8754 " fill="none" id="TestV2-to-V2" style="stroke:#EC7211;stroke-width:2.5;"/><polygon fill="#EC7211" points="365.8,751.4694,357.6653,750.3796,361.8015,752.6411,359.54,756.7773,365.8,751.4694" style="stroke:#EC7211;stroke-width:2.5;"/></g><!--link Components to Hooks--><g id="link_Components_Hooks"><path d="M152.1583,454.6777 C174.2,454.6777 194.6,454.6777 214.8333,454.6777 " fill="none" id="Components-to-Hooks" style="stroke:#EC7211;stroke-width:2.5;"/><polygon fill="#EC7211" points="219.8333,454.6777,212.3333,451.3444,215.6667,454.6777,212.3333,458.0111,219.8333,454.6777" style="stroke:#EC7211;stroke-width:2.5;"/></g><!--link Hooks to Utils--><g id="link_Hooks_Utils"><path d="M295.075,454.6777 C316.8333,454.6777 339.2667,454.6777 361.0083,454.6777 " fill="none" id="Hooks-to-Utils" style="stroke:#EC7211;stroke-width:2.5;"/><polygon fill="#EC7211" points="366.0083,454.6777,358.5083,451.3444,361.8417,454.6777,358.5083,458.0111,366.0083,454.6777" style="stroke:#EC7211;stroke-width:2.5;"/></g><!--link Utils to ReactEthers--><g id="link_Utils_ReactEthers"><path d="M440.85,474.7194 C453.375,481.1111 467.65,487.8611 481.1333,493.0111 C492.6083,497.3861 500.406,499.9612 512.3644,503.2695 " fill="none" id="Utils-to-ReactEthers" style="stroke:#EC7211;stroke-width:2.5;"/><polygon fill="#EC7211" points="517.1833,504.6027,510.8437,499.3903,513.1675,503.4917,509.0661,505.8156,517.1833,504.6027" style="stroke:#EC7211;stroke-width:2.5;"/></g><!--link contracts to GMN34--><g id="link_contracts_GMN34"><path d="M427.3601,792.2012 C427.4906,792.2393 427.6215,792.2776 427.7529,792.316 C428.2784,792.4696 428.8106,792.6251 429.3493,792.7826 C430.4268,793.0975 431.5304,793.42 432.6582,793.7496 C434.9138,794.4088 437.2663,795.0964 439.701,795.8079 C459.1792,801.5007 483.9208,808.7319 506.4,815.3027 " fill="none" id="contracts-GMN34" style="stroke:#EC7211;stroke-width:2.5;stroke-dasharray:7.0,7.0;"/></g><!--link frontend to GMN37--><g id="link_frontend_GMN37"><path d="M30.2989,495.5476 C30.1628,495.4939 30.0269,495.4396 29.8914,495.3848 C29.6203,495.2751 29.3505,495.1633 29.082,495.0494 C28.008,494.5935 26.9553,494.1028 25.9269,493.5753 C23.8701,492.5202 21.9106,491.318 20.0734,489.9526 C16.399,487.222 13.2135,483.8392 10.7167,479.6777 C5,470.1527 6.1,439.7861 10.7167,429.6777 C21.8917,405.2111 44.9,385.4527 64.9083,371.9027 " fill="none" id="frontend-GMN37" style="stroke:#EC7211;stroke-width:2.5;stroke-dasharray:7.0,7.0;"/></g><!--link GMN40 to deps--><g id="link_GMN40_deps"><path d="M427.25,521.6444 C441.6583,509.8361 461.2667,495.8361 481.1333,488.0111 C483.3375,487.1434 485.5953,486.3382 487.8919,485.5913 C489.0402,485.2179 490.1982,484.8589 491.364,484.514 C491.9469,484.3415 492.5317,484.1726 493.1183,484.007 C493.4116,483.9243 493.7053,483.8424 493.9994,483.7613 C494.1464,483.7208 494.2936,483.6805 494.4408,483.6403 " fill="none" id="GMN40-deps" style="stroke:#EC7211;stroke-width:2.5;stroke-dasharray:7.0,7.0;"/></g><!--SRC=[RLHBRzim3BxxLx0zx758scJOKFGmO71QjC2w54cR0aKkYitOMXn9a9YcwR3_Fago4plT8Gx5ZuzF9CKJAd6D8BQkfwrG1IPk9PKHLgnX8R9LOVL6vQckj8LjAQcDvqR2uFoyfJ7i8GgSqgv2i9WHHwpQBckfqaeuzoHpAk5RstSjNk_GEUyktn0ksjZM2XDT1iEsNkaS7HguQEdu5Ykl6tnDJd9SIeKmkfrSfG-turz0sl0F5ff8ymMavoYrIbmccF5v_o8XIImzFjvFUpDKkLJ5dSXA7sKsX1xSnnl2I8g2iyrLoXHWR0kXv9lmiM1ATfFHncAIV8HhRJE4JA-vD0ILsEaDmLRoJIfSKi_AeYGGDfH-ZOeIh_OK8t9WoB4cUWi3vZ1T2qkGQaMMWphu0DFCIaCkgUiFfra3de9mi3_1dmGu6ycbPtCw6_ITheB9RD15XWTas45-oiKUOZdvcnookaWZOBLyb357K-bT_tUq6ONJVmnwByEk3PDe9o9q550llB-KrpR-3oo_lzmxYn0_bjYt-TfooRZzN5kkyr8MXzpB6Wg-pU68W- -tLjnETnRCqlsvOrPglQejRhm8q84t9AiQVlHYfmHPeDMqbyKZ2gMmUIce7y7chZTHsx6iGxA9Li6edl5EkboG2A0NZb8PgtEUUDVFt4kyxdGMotdrIcYLg7mNkKgeCeaEFjNFuNChV0kFQT0SpywOJPxH6Anav3b-xk0JvB-pArveDiO8YdYkwJZ7FP3CXwkYuiDoe5MrIsRyi7hVVKZ_p3kId_8uXU78mzJCP3mFapXZ3HhdgS4EhG-QqESaTjkVOsF3DvpRd9bnMYyEfNbYmMWdFMVCmV639Ymaxorcx-5wO-XbwxbVrhjYhvchi7lyUkDbJRuxqRdUYEoz7-dBI0P6Fum9Askkdd3n1IJ3lFl2LWg-OMMnP-ZPvQ7fbLnOORcZSoKutfBt9MwrvVl_0m00]--></g></svg>